<?xml version="1.0" encoding="UTF-8"?>
<svg width="276px" height="365px" viewBox="0 0 276 365" version="1.1" xmlns="http://www.w3.org/2000/svg" xmlns:xlink="http://www.w3.org/1999/xlink">
    <!-- Generator: Sketch 54.1 (76490) - https://sketchapp.com -->
    <title>Group</title>
    <desc>Created with Sketch.</desc>
    <defs>
        <path d="M272.296225,0.816867427 L3.55905618,0.817905378 C1.60017978,0.817905378 0,2.33331382 0,4.17982862 L0,4.17982862 L0.00206741573,103.544953 C0,105.391467 1.60224719,106.908952 3.55905618,106.908952 L3.55905618,106.908952 L272.296225,106.908952 C274.255101,106.908952 275.861483,105.391467 275.861483,103.544953 L275.861483,103.544953 L275.863551,4.17775272 C275.861483,2.33331382 274.255101,0.816867427 272.296225,0.816867427 Z" id="path-1"></path>
        <linearGradient x1="50.0000193%" y1="82.9103331%" x2="50.0000193%" y2="1.27531156%" id="linearGradient-3">
            <stop stop-color="#FFFFFF" offset="0%"></stop>
            <stop stop-color="#E6E6E6" offset="100%"></stop>
        </linearGradient>
        <path d="M1.09042912,0.067 C0.518987748,0.067 0.0572796839,0.514 0.0572796839,1.067 L0.0572796839,1.067 C0.0572796839,1.618 0.518987748,2.066 1.09042912,2.066 L1.09042912,2.066 L260.934759,2.066 C261.50413,2.066 261.967908,1.618 261.967908,1.067 L261.967908,1.067 C261.967908,0.514 261.50413,0.067 260.934759,0.067 L260.934759,0.067 L1.09042912,0.067 Z" id="path-4"></path>
        <linearGradient x1="49.9998831%" y1="193.816838%" x2="49.9998831%" y2="-407.004562%" id="linearGradient-6">
            <stop stop-color="#FFFFFF" offset="0%"></stop>
            <stop stop-color="#E6E6E6" offset="100%"></stop>
        </linearGradient>
        <polygon id="path-7" points="0.730487923 0.814275 17.3376961 0.814275 17.3376961 32.6418578 0.730487923 32.6418578"></polygon>
        <polygon id="path-9" points="0 0.239968326 122.485762 0.239968326 122.485762 180.508165 0 180.508165"></polygon>
    </defs>
    <g id="Model" stroke="none" stroke-width="1" fill="none" fill-rule="evenodd">
        <g id="Desktop-HD-Copy" transform="translate(-89.000000, 0.000000)">
            <g id="Group" transform="translate(89.000000, -6.000000)">
                <g id="Group-138" transform="translate(138.000000, 317.500000) rotate(-180.000000) translate(-138.000000, -317.500000) translate(0.000000, 264.000000)">
                    <g id="Group-3" transform="translate(0.000000, 0.000000)">
                        <mask id="mask-2" fill="white">
                            <use xlink:href="#path-1"></use>
                        </mask>
                        <g id="Clip-2"></g>
                        <path d="M272.296225,0.816867427 L3.55905618,0.817905378 C1.60017978,0.817905378 0,2.33331382 0,4.17982862 L0,4.17982862 L0.00206741573,103.544953 C0,105.391467 1.60224719,106.908952 3.55905618,106.908952 L3.55905618,106.908952 L272.296225,106.908952 C274.255101,106.908952 275.861483,105.391467 275.861483,103.544953 L275.861483,103.544953 L275.863551,4.17775272 C275.861483,2.33331382 274.255101,0.816867427 272.296225,0.816867427 Z" id="Fill-1" fill="url(#linearGradient-3)" mask="url(#mask-2)"></path>
                    </g>
                    <g id="Group-134" transform="translate(6.000000, 9.000000)" fill="#20364D">
                        <path d="M15.7275671,14.3520443 C15.7275671,14.8328966 15.3393318,15.223783 14.8589553,15.223783 L1.55853176,15.223783 C1.07919059,15.223783 0.688884706,14.8339307 0.688884706,14.3530784 L0.690955294,1.04432841 C0.690955294,0.561407955 1.08022588,0.173623864 1.56163765,0.173623864 L14.8610259,0.173623864 C15.3382965,0.173623864 15.7275671,0.562442045 15.7275671,1.0453625 L15.7275671,14.3520443 Z" id="Fill-4"></path>
                        <path d="M43.2896847,32.6784102 C43.2896847,33.165467 42.9045553,33.5584216 42.4179671,33.5553193 L29.1216847,33.5553193 C28.6413082,33.5553193 28.2561788,33.165467 28.2561788,32.6784102 L28.2561788,19.367592 C28.2561788,18.8939784 28.6413082,18.503092 29.1196141,18.503092 L42.4179671,18.503092 C42.9045553,18.503092 43.2896847,18.8939784 43.2896847,19.367592 L43.2896847,32.6784102 Z" id="Fill-6"></path>
                        <path d="M47.6249788,51.0127386 C47.6249788,51.4956591 47.2367435,51.8793068 46.7563671,51.8793068 L33.4580141,51.8793068 C32.98592,51.8793068 32.5883671,51.4956591 32.5873318,51.0127386 L32.5873318,37.69675 C32.5873318,37.2283068 32.9838494,36.8343182 33.4559435,36.8343182 L46.7563671,36.83225 C47.2357082,36.8343182 47.6249788,37.2283068 47.6249788,37.69675 L47.6249788,51.0127386 Z" id="Fill-8"></path>
                        <path d="M38.66016,69.3396216 C38.66016,69.8173716 38.2698541,70.2103261 37.7925835,70.2103261 L24.4942306,70.2103261 C24.0200659,70.209292 23.6287247,69.8173716 23.6287247,69.3396216 L23.6287247,56.0308716 C23.6287247,55.5531216 24.0200659,55.1570648 24.4942306,55.1570648 L37.7925835,55.1570648 C38.2708894,55.1570648 38.66016,55.5531216 38.66016,56.0308716 L38.66016,69.3396216 Z" id="Fill-10"></path>
                        <path d="M15.7275671,89.9855568 C15.7286024,90.465375 15.3382965,90.8552273 14.8610259,90.8541932 L1.55956706,90.8541932 C1.07919059,90.8541932 0.688884706,90.465375 0.690955294,89.9834886 L0.688884706,74.3563068 C0.690955294,73.8857955 1.07919059,73.4876705 1.55956706,73.4876705 L14.8589553,73.4876705 C15.3393318,73.4876705 15.7275671,73.8857955 15.7275671,74.3563068 L15.7275671,89.9855568 Z" id="Fill-12"></path>
                        <path d="M33.9846682,89.9855568 C33.9857035,90.465375 33.5964329,90.8552273 33.1160565,90.8541932 L19.82288,90.8541932 C19.3456094,90.8552273 18.9532329,90.465375 18.9521976,89.9855568 L18.9532329,74.3563068 C18.9532329,73.8868295 19.3456094,73.4876705 19.82288,73.4876705 L33.1150212,73.4876705 C33.5964329,73.4876705 33.9857035,73.8868295 33.9857035,74.3563068 L33.9846682,89.9855568 Z" id="Fill-14"></path>
                        <path d="M52.2524329,89.983592 C52.2513976,90.4654784 51.8610918,90.8542966 51.37968,90.8542966 L38.0833976,90.8542966 C37.6040565,90.8553307 37.2158212,90.4654784 37.2147859,89.9856602 L37.2158212,74.3564102 C37.2158212,73.886933 37.6040565,73.4877739 38.0823624,73.4877739 L51.3807153,73.4877739 C51.8600565,73.4877739 52.2513976,73.886933 52.2513976,74.3564102 L52.2524329,89.983592 Z" id="Fill-16"></path>
                        <path d="M208.237609,89.983592 C208.237609,90.4654784 207.839021,90.8553307 207.361751,90.8553307 L194.063398,90.8553307 C193.587162,90.8553307 193.197892,90.4654784 193.197892,89.9856602 L193.197892,74.3564102 C193.197892,73.8858989 193.588198,73.4877739 194.063398,73.4877739 L207.365892,73.4877739 C207.839021,73.4877739 208.237609,73.8858989 208.237609,74.3564102 L208.237609,89.983592 Z" id="Fill-18"></path>
                        <path d="M226.542334,89.983592 C226.543369,90.4654784 226.152028,90.8553307 225.672687,90.8542966 L212.382616,90.8542966 C211.897064,90.8542966 211.504687,90.4654784 211.504687,89.9856602 L211.504687,83.0365693 C211.504687,82.566058 211.897064,82.168967 212.381581,82.168967 L225.672687,82.168967 C226.153064,82.168967 226.542334,82.566058 226.542334,83.0386375 L226.542334,89.983592 Z" id="Fill-20"></path>
                        <path d="M263.164828,89.983592 C263.165864,90.4654784 262.776593,90.8542966 262.295181,90.8542966 L248.999934,90.8542966 C248.523699,90.8542966 248.127181,90.4665125 248.127181,89.983592 L248.127181,83.0365693 C248.127181,82.5629557 248.521628,82.168967 248.999934,82.168967 L262.295181,82.168967 C262.774522,82.168967 263.165864,82.5629557 263.165864,83.0386375 L263.164828,89.983592 Z" id="Fill-22"></path>
                        <path d="M75.2801694,89.9855568 C75.2801694,90.465375 74.8919341,90.8541932 74.4188047,90.8541932 L56.3425694,90.8552273 C55.8652988,90.8552273 55.4801694,90.465375 55.4801694,89.9834886 L55.4801694,74.3563068 C55.4801694,73.8868295 55.8673694,73.4876705 56.3436047,73.4876705 L74.4188047,73.4876705 C74.8898635,73.4876705 75.2801694,73.8857955 75.2801694,74.3563068 L75.2801694,89.9855568 Z" id="Fill-24"></path>
                        <path d="M189.921807,89.9855568 C189.921807,90.465375 189.533572,90.8541932 189.051125,90.8552273 L170.983172,90.8541932 C170.511078,90.8552273 170.111454,90.465375 170.113525,89.9834886 L170.111454,74.3563068 C170.111454,73.8868295 170.511078,73.4876705 170.983172,73.4876705 L189.051125,73.4876705 C189.533572,73.4876705 189.921807,73.8857955 189.921807,74.3563068 L189.921807,89.9855568 Z" id="Fill-26"></path>
                        <path d="M166.841064,89.983592 C166.841064,90.4654784 166.446616,90.8542966 165.965205,90.8542966 L79.4260047,90.8542966 C78.9539106,90.8553307 78.5553224,90.4654784 78.5542871,89.9856602 L78.5542871,74.3564102 C78.5542871,73.8858989 78.9539106,73.4877739 79.4260047,73.4877739 L165.967275,73.4877739 C166.446616,73.4877739 166.841064,73.8858989 166.841064,74.3564102 L166.841064,89.983592 Z" id="Fill-28"></path>
                        <path d="M56.9699576,69.3396216 C56.9699576,69.8173716 56.5827576,70.2103261 56.1065224,70.209292 L42.8029929,70.2103261 C42.33504,70.2103261 41.9395576,69.8173716 41.9395576,69.3396216 L41.9395576,56.0288034 C41.9395576,55.5531216 42.33504,55.1570648 42.8040282,55.1570648 L56.1065224,55.1570648 C56.5827576,55.1570648 56.9699576,55.5531216 56.9699576,56.0288034 L56.9699576,69.3396216 Z" id="Fill-30"></path>
                        <path d="M75.2801694,69.3396216 C75.2801694,69.8173716 74.8919341,70.2103261 74.4188047,70.2103261 L61.1204518,70.2103261 C60.6400753,70.2103261 60.2497694,69.8173716 60.2497694,69.3396216 L60.2497694,56.0288034 C60.2497694,55.5531216 60.6400753,55.1570648 61.1204518,55.1570648 L74.4188047,55.1570648 C74.8919341,55.1570648 75.2801694,55.5531216 75.2801694,56.0308716 L75.2801694,69.3396216 Z" id="Fill-32"></path>
                        <path d="M93.5934871,69.3396216 C93.5934871,69.8173716 93.2052518,70.2103261 92.7228047,70.209292 L79.4265224,70.2103261 C78.9544282,70.209292 78.5537694,69.8173716 78.5537694,69.3396216 L78.5537694,56.0308716 C78.5537694,55.5531216 78.9554635,55.1570648 79.4265224,55.1570648 L92.7217694,55.1570648 C93.2052518,55.1570648 93.5934871,55.5531216 93.5945224,56.0288034 L93.5934871,69.3396216 Z" id="Fill-34"></path>
                        <path d="M111.904216,69.3396216 C111.904216,69.8173716 111.51184,70.2103261 111.039746,70.2103261 L97.7434635,70.2103261 C97.2661929,70.2103261 96.8707106,69.8173716 96.8707106,69.3396216 L96.8707106,56.0288034 C96.8707106,55.5531216 97.2661929,55.1570648 97.7434635,55.1570648 L111.039746,55.1570648 C111.51184,55.1570648 111.904216,55.5531216 111.904216,56.0308716 L111.904216,69.3396216 Z" id="Fill-36"></path>
                        <path d="M130.216499,69.3396216 C130.216499,69.8173716 129.826193,70.209292 129.347887,70.2103261 L116.05264,70.2103261 C115.575369,70.2103261 115.185064,69.8173716 115.185064,69.3396216 L115.187134,56.0288034 C115.185064,55.5531216 115.57744,55.1570648 116.05264,55.1570648 L129.349958,55.1570648 C129.825158,55.1570648 130.216499,55.5531216 130.214428,56.0288034 L130.216499,69.3396216 Z" id="Fill-38"></path>
                        <path d="M148.526193,69.3396216 C148.526193,69.8173716 148.138993,70.2103261 147.662758,70.209292 L134.359228,70.2103261 C133.880922,70.2103261 133.491652,69.8173716 133.491652,69.3396216 L133.491652,56.0308716 C133.491652,55.5531216 133.880922,55.1570648 134.359228,55.1570648 L147.662758,55.1570648 C148.138993,55.1570648 148.526193,55.5531216 148.526193,56.0288034 L148.526193,69.3396216 Z" id="Fill-40"></path>
                        <path d="M166.841064,69.3396216 C166.841064,69.8173716 166.446616,70.2103261 165.965205,70.2103261 L152.672028,70.2103261 C152.195793,70.209292 151.806522,69.8173716 151.806522,69.3396216 L151.806522,56.0288034 C151.806522,55.5531216 152.195793,55.1570648 152.672028,55.1570648 L165.965205,55.1570648 C166.446616,55.1570648 166.841064,55.5531216 166.841064,56.0288034 L166.841064,69.3396216 Z" id="Fill-42"></path>
                        <path d="M185.151793,69.3396216 C185.151793,69.8173716 184.761487,70.2103261 184.280075,70.2103261 L170.982758,70.2103261 C170.510664,70.209292 170.112075,69.8173716 170.112075,69.3396216 L170.112075,56.0288034 C170.112075,55.5531216 170.510664,55.1570648 170.982758,55.1570648 L184.280075,55.1570648 C184.761487,55.1570648 185.151793,55.5531216 185.151793,56.0288034 L185.151793,69.3396216 Z" id="Fill-44"></path>
                        <path d="M203.460555,69.3396216 C203.460555,69.8173716 203.074391,70.2103261 202.594014,70.209292 L189.293591,70.2103261 C188.813214,70.2103261 188.424979,69.8173716 188.424979,69.3396216 L188.424979,56.0288034 C188.424979,55.5531216 188.813214,55.1570648 189.293591,55.1570648 L202.591944,55.1570648 C203.075426,55.1570648 203.460555,55.5531216 203.460555,56.0308716 L203.460555,69.3396216 Z" id="Fill-46"></path>
                        <path d="M221.774287,69.3396216 C221.774287,69.8173716 221.378805,70.209292 220.903605,70.209292 L207.604216,70.2103261 C207.129016,70.209292 206.73664,69.8173716 206.73664,69.3396216 L206.73664,56.0288034 C206.73664,55.5531216 207.126946,55.1570648 207.604216,55.1570648 L220.901534,55.1570648 C221.378805,55.1570648 221.774287,55.5531216 221.774287,56.0288034 L221.774287,69.3396216 Z" id="Fill-48"></path>
                        <path d="M263.016264,69.3396216 C263.016264,69.8173716 262.628028,70.209292 262.149722,70.209292 L225.915464,70.209292 C225.438193,70.209292 225.045816,69.8173716 225.045816,69.3396216 L225.045816,56.0288034 C225.045816,55.5531216 225.439228,55.1570648 225.917534,55.1570648 L262.149722,55.1570648 C262.631134,55.1570648 263.016264,55.5531216 263.016264,56.0288034 L263.016264,69.3396216 Z" id="Fill-50"></path>
                        <path d="M65.9316706,51.0112909 C65.9316706,51.4962795 65.5496471,51.8788932 65.0713412,51.8788932 L51.7657412,51.8788932 C51.2915765,51.8788932 50.9023059,51.4962795 50.9023059,51.012325 L50.9023059,37.6963364 C50.9023059,37.2278932 51.2915765,36.8339045 51.7647059,36.8339045 L65.0713412,36.8339045 C65.5506824,36.8339045 65.9316706,37.225825 65.9316706,37.6984045 L65.9316706,51.0112909 Z" id="Fill-52"></path>
                        <path d="M84.2474729,51.0112909 C84.2464376,51.4962795 83.8571671,51.8788932 83.3778259,51.8788932 L70.0774024,51.8788932 C69.6032376,51.8788932 69.2170729,51.4962795 69.2170729,51.0112909 L69.2170729,37.6963364 C69.2170729,37.225825 69.6022024,36.8339045 70.0774024,36.8339045 L83.3778259,36.8339045 C83.8561318,36.8339045 84.2474729,37.225825 84.2464376,37.6984045 L84.2474729,51.0112909 Z" id="Fill-54"></path>
                        <path d="M102.553233,51.0112909 C102.553233,51.4962795 102.171209,51.8788932 101.691868,51.8788932 L88.3904094,51.8788932 C87.9141741,51.8788932 87.5238682,51.4962795 87.5249035,51.0112909 L87.5238682,37.6984045 C87.5249035,37.225825 87.9131388,36.8339045 88.3904094,36.8339045 L101.691868,36.8339045 C102.171209,36.8339045 102.553233,37.225825 102.553233,37.6963364 L102.553233,51.0112909 Z" id="Fill-56"></path>
                        <path d="M120.868518,51.0112909 C120.868518,51.4931773 120.477176,51.8788932 120.005082,51.8788932 L106.699482,51.8788932 C106.225318,51.8788932 105.836047,51.4962795 105.836047,51.012325 L105.836047,37.6963364 C105.836047,37.2278932 106.225318,36.8339045 106.698447,36.8339045 L120.005082,36.8339045 C120.477176,36.8339045 120.868518,37.2278932 120.868518,37.6963364 L120.868518,51.0112909 Z" id="Fill-58"></path>
                        <path d="M139.17728,51.0112909 C139.17728,51.4962795 138.785939,51.8788932 138.309704,51.8788932 L125.012386,51.8788932 C124.542362,51.8788932 124.142739,51.4962795 124.143774,51.0112909 L124.143774,37.6963364 C124.143774,37.225825 124.542362,36.8318364 125.012386,36.8318364 L138.309704,36.8339045 C138.785939,36.8339045 139.17728,37.225825 139.17728,37.6963364 L139.17728,51.0112909 Z" id="Fill-60"></path>
                        <path d="M157.489045,51.0112909 C157.489045,51.4962795 157.096668,51.8788932 156.620433,51.8788932 L143.324151,51.8788932 C142.847915,51.8788932 142.457609,51.4962795 142.457609,51.0112909 L142.457609,37.6984045 C142.457609,37.225825 142.847915,36.8318364 143.324151,36.8339045 L156.620433,36.8318364 C157.096668,36.8318364 157.489045,37.225825 157.489045,37.6963364 L157.489045,51.0112909 Z" id="Fill-62"></path>
                        <path d="M175.798739,51.0127386 C175.798739,51.4956591 175.413609,51.8793068 174.931162,51.8793068 L161.631774,51.8793068 C161.155539,51.8793068 160.767304,51.4956591 160.769374,51.0117045 L160.769374,37.69675 C160.769374,37.2262386 161.155539,36.8343182 161.631774,36.8343182 L174.931162,36.8343182 C175.410504,36.8343182 175.798739,37.2283068 175.798739,37.69675 L175.798739,51.0127386 Z" id="Fill-64"></path>
                        <path d="M194.111539,51.0112909 C194.112574,51.4931773 193.720198,51.8788932 193.247068,51.8788932 L179.944574,51.8788932 C179.469374,51.8788932 179.079068,51.4931773 179.079068,51.012325 L179.079068,37.6963364 C179.079068,37.2278932 179.469374,36.8339045 179.944574,36.8339045 L193.247068,36.8339045 C193.721233,36.8339045 194.111539,37.225825 194.112574,37.6963364 L194.111539,51.0112909 Z" id="Fill-66"></path>
                        <path d="M212.425271,51.0112909 C212.4232,51.4962795 212.032894,51.8788932 211.558729,51.8788932 L198.256235,51.8788932 C197.774824,51.8788932 197.388659,51.4931773 197.387624,51.0112909 L197.388659,37.6963364 C197.387624,37.225825 197.775859,36.8318364 198.254165,36.8339045 L211.558729,36.8339045 C212.036,36.8339045 212.425271,37.225825 212.425271,37.6963364 L212.425271,51.0112909 Z" id="Fill-68"></path>
                        <path d="M230.732066,51.0112909 C230.732066,51.4931773 230.342795,51.8788932 229.86656,51.8788932 L216.570278,51.8788932 C216.090936,51.8788932 215.699595,51.4931773 215.699595,51.0112909 L215.699595,37.6963364 C215.701666,37.225825 216.089901,36.8318364 216.570278,36.8339045 L229.86656,36.8339045 C230.342795,36.8339045 230.732066,37.225825 230.732066,37.6963364 L230.732066,51.0112909 Z" id="Fill-70"></path>
                        <path d="M249.046833,51.0112909 C249.046833,51.4931773 248.655492,51.8788932 248.177186,51.8788932 L234.874692,51.8788932 C234.398456,51.8788932 234.013327,51.4931773 234.013327,51.0112909 L234.013327,37.6963364 C234.014362,37.225825 234.398456,36.8318364 234.874692,36.8339045 L248.180292,36.8318364 C248.655492,36.8339045 249.043727,37.225825 249.046833,37.6963364 L249.046833,51.0112909 Z" id="Fill-72"></path>
                        <path d="M61.5994824,32.6784102 C61.5994824,33.165467 61.2091765,33.5553193 60.7288,33.5553193 L47.4304471,33.5553193 C46.9552471,33.5553193 46.5628706,33.165467 46.5618353,32.6784102 L46.5628706,19.367592 C46.5618353,18.8939784 46.9552471,18.503092 47.4314824,18.503092 L60.7288,18.503092 C61.2102118,18.503092 61.5994824,18.8939784 61.5994824,19.367592 L61.5994824,32.6784102 Z" id="Fill-74"></path>
                        <path d="M79.9102118,32.6784102 C79.9112471,33.165467 79.5199059,33.5584216 79.0416,33.5553193 L65.7401412,33.5553193 C65.2649412,33.5553193 64.8767059,33.165467 64.8756706,32.6784102 L64.8756706,19.367592 C64.8756706,18.8929443 65.2649412,18.503092 65.7411765,18.503092 L79.0395294,18.503092 C79.5199059,18.503092 79.9102118,18.8939784 79.9102118,19.367592 L79.9102118,32.6784102 Z" id="Fill-76"></path>
                        <path d="M98.2209412,32.6784102 C98.2209412,33.165467 97.8316706,33.5553193 97.3512941,33.5553193 L84.0519059,33.5553193 C83.5798118,33.5553193 83.1905412,33.165467 83.1905412,32.6784102 L83.1905412,19.367592 C83.1905412,18.8939784 83.5808471,18.503092 84.0519059,18.503092 L97.3512941,18.503092 C97.8316706,18.503092 98.2209412,18.8950125 98.2219765,19.367592 L98.2209412,32.6784102 Z" id="Fill-78"></path>
                        <path d="M116.528151,32.6784102 C116.52608,33.165467 116.135774,33.5553193 115.665751,33.5553193 L102.366362,33.5553193 C101.885986,33.5584216 101.496715,33.165467 101.496715,32.6784102 L101.496715,19.367592 C101.496715,18.8939784 101.885986,18.503092 102.366362,18.503092 L115.665751,18.503092 C116.135774,18.503092 116.528151,18.8929443 116.528151,19.367592 L116.528151,32.6784102 Z" id="Fill-80"></path>
                        <path d="M134.840951,32.6784102 C134.841986,33.165467 134.450645,33.5553193 133.968198,33.5553193 L120.677092,33.5553193 C120.198786,33.5553193 119.810551,33.165467 119.810551,32.6784102 L119.810551,19.367592 C119.810551,18.8939784 120.198786,18.503092 120.672951,18.503092 L133.968198,18.503092 C134.450645,18.503092 134.841986,18.8939784 134.840951,19.367592 L134.840951,32.6784102 Z" id="Fill-82"></path>
                        <path d="M153.148678,32.6784102 C153.148678,33.165467 152.766654,33.5553193 152.286278,33.5553193 L138.983784,33.5584216 C138.506513,33.5553193 138.116207,33.165467 138.116207,32.6804784 L138.116207,19.367592 C138.116207,18.8950125 138.505478,18.5041261 138.983784,18.503092 L152.287313,18.503092 C152.766654,18.503092 153.148678,18.8939784 153.150748,19.367592 L153.148678,32.6784102 Z" id="Fill-84"></path>
                        <path d="M171.462409,32.6784102 C171.462409,33.165467 171.07728,33.5553193 170.595868,33.5553193 L157.292339,33.5553193 C156.820245,33.5553193 156.429939,33.165467 156.429939,32.6804784 L156.430974,19.367592 C156.429939,18.8950125 156.820245,18.503092 157.293374,18.503092 L170.595868,18.503092 C171.07728,18.503092 171.462409,18.8939784 171.459304,19.367592 L171.462409,32.6784102 Z" id="Fill-86"></path>
                        <path d="M189.775209,32.6784102 C189.775209,33.1633989 189.383868,33.5553193 188.905562,33.5553193 L175.605139,33.5553193 C175.129939,33.5553193 174.739633,33.165467 174.739633,32.6804784 L174.739633,19.367592 C174.739633,18.8939784 175.128904,18.503092 175.605139,18.503092 L188.905562,18.503092 C189.385939,18.503092 189.774174,18.8939784 189.774174,19.367592 L189.775209,32.6784102 Z" id="Fill-88"></path>
                        <path d="M208.081901,32.6784102 C208.083972,33.165467 207.691595,33.5553193 207.219501,33.5553193 L193.921148,33.5553193 C193.439736,33.5553193 193.054607,33.165467 193.054607,32.6784102 L193.055642,19.367592 C193.055642,18.8939784 193.439736,18.503092 193.921148,18.503092 L207.219501,18.503092 C207.691595,18.503092 208.083972,18.8939784 208.083972,19.367592 L208.081901,32.6784102 Z" id="Fill-90"></path>
                        <path d="M226.395736,32.6784102 C226.399878,33.165467 226.007501,33.5553193 225.526089,33.5553193 L212.225666,33.5553193 C211.756678,33.5553193 211.363266,33.165467 211.362231,32.6784102 L211.363266,19.367592 C211.362231,18.8929443 211.756678,18.503092 212.225666,18.503092 L225.525054,18.503092 C226.007501,18.503092 226.399878,18.8939784 226.399878,19.367592 L226.395736,32.6784102 Z" id="Fill-92"></path>
                        <path d="M244.706466,32.6784102 C244.706466,33.165467 244.319266,33.5553193 243.845101,33.5553193 L230.543642,33.5553193 C230.06016,33.5553193 229.67296,33.165467 229.67296,32.6784102 L229.67296,19.367592 C229.67296,18.8939784 230.06016,18.503092 230.541572,18.503092 L243.845101,18.503092 C244.318231,18.503092 244.706466,18.8939784 244.706466,19.367592 L244.706466,32.6784102 Z" id="Fill-94"></path>
                        <path d="M24.9774024,32.680892 C24.9774024,33.1648466 24.5891671,33.555733 24.1108612,33.555733 L1.56112,33.555733 C1.07970824,33.5578011 0.689402353,33.1648466 0.689402353,32.6788239 L0.689402353,19.3680057 C0.689402353,18.893358 1.07970824,18.5035057 1.56008471,18.5045398 L24.1087906,18.5035057 C24.5891671,18.5035057 24.9774024,18.8954261 24.9784376,19.3680057 L24.9774024,32.680892 Z" id="Fill-96"></path>
                        <path d="M263.016264,14.3520443 C263.016264,14.8328966 262.628028,15.223783 262.149722,15.223783 L239.598946,15.223783 C239.128922,15.223783 238.73344,14.8328966 238.73344,14.3520443 L238.73344,1.04432841 C238.736546,0.561407955 239.128922,0.173623864 239.598946,0.173623864 L262.149722,0.173623864 C262.628028,0.173623864 263.016264,0.561407955 263.016264,1.04432841 L263.016264,14.3520443 Z" id="Fill-98"></path>
                        <path d="M29.3102118,51.0127386 C29.3102118,51.4956591 28.9250824,51.8793068 28.4416,51.8793068 L1.56122353,51.8793068 C1.07981176,51.8793068 0.689505882,51.4956591 0.690541176,51.0117045 L0.689505882,37.6988182 C0.688470588,37.2283068 1.07877647,36.8343182 1.56122353,36.83225 L28.4416,36.83225 C28.9240471,36.8343182 29.3102118,37.2283068 29.3102118,37.69675 L29.3102118,51.0127386 Z" id="Fill-100"></path>
                        <path d="M20.3545035,69.3396216 C20.3545035,69.8173716 19.9631624,70.2103261 19.4848565,70.209292 L1.55977412,70.2103261 C1.07939765,70.2103261 0.689091765,69.8173716 0.689091765,69.3396216 L0.691162353,56.0288034 C0.689091765,55.5531216 1.07939765,55.1570648 1.55977412,55.1570648 L19.4827859,55.1570648 C19.9631624,55.1570648 20.3545035,55.5531216 20.3534682,56.0288034 L20.3545035,69.3396216 Z" id="Fill-102"></path>
                        <path d="M34.0357082,14.3520443 C34.0357082,14.8328966 33.6485082,15.223783 33.1639906,15.223783 L19.8728847,15.223783 C19.3966494,15.223783 19.0042729,14.8328966 19.0042729,14.3520443 L19.0032376,1.04432841 C19.0032376,0.561407955 19.3945788,0.174657955 19.8728847,0.173623864 L33.1650259,0.173623864 C33.6485082,0.174657955 34.0357082,0.562442045 34.0357082,1.0453625 L34.0357082,14.3520443 Z" id="Fill-104"></path>
                        <path d="M52.3490259,14.3520443 C52.3490259,14.8328966 51.9597553,15.223783 51.4793788,15.223783 L38.1799906,15.223783 C37.7058259,15.223783 37.3165553,14.8328966 37.3165553,14.3520443 L37.3165553,1.04432841 C37.3165553,0.562442045 37.7068612,0.173623864 38.1799906,0.174657955 L51.4814494,0.173623864 C51.9597553,0.173623864 52.3490259,0.562442045 52.3490259,1.04432841 L52.3490259,14.3520443 Z" id="Fill-106"></path>
                        <path d="M70.6648282,14.3535955 C70.6648282,14.8334136 70.26624,15.2243 69.7900047,15.2243 L56.4885459,15.2243 C56.0133459,15.2243 55.6251106,14.8323795 55.6251106,14.3525614 L55.6251106,1.04381136 C55.6251106,0.561925 56.0143812,0.173106818 56.4885459,0.174140909 L69.7879341,0.174140909 C70.26624,0.174140909 70.6658635,0.561925 70.6658635,1.04381136 L70.6648282,14.3535955 Z" id="Fill-108"></path>
                        <path d="M88.9695529,14.3535955 C88.9695529,14.8334136 88.5802824,15.2243 88.1009412,15.2243 L74.8005176,15.2243 C74.3263529,15.2243 73.9319059,14.8334136 73.9319059,14.3535955 L73.9319059,1.04381136 C73.9319059,0.563993182 74.3242824,0.174140909 74.7994824,0.174140909 L88.0999059,0.174140909 C88.5792471,0.174140909 88.9716235,0.561925 88.9716235,1.04381136 L88.9695529,14.3535955 Z" id="Fill-110"></path>
                        <path d="M107.274692,14.3520443 C107.274692,14.8328966 106.892668,15.2227489 106.411256,15.223783 L93.1097976,15.223783 C92.6335624,15.223783 92.2432565,14.8339307 92.2432565,14.3530784 L92.2442918,1.04432841 C92.2442918,0.561407955 92.6345976,0.173623864 93.1097976,0.174657955 L106.412292,0.173623864 C106.892668,0.173623864 107.274692,0.562442045 107.273656,1.04432841 L107.274692,14.3520443 Z" id="Fill-112"></path>
                        <path d="M125.589976,14.3535955 C125.589976,14.8334136 125.201741,15.2243 124.7224,15.2243 L111.431294,15.2243 C110.948847,15.2243 110.560612,14.8323795 110.560612,14.3525614 L110.560612,1.04381136 C110.560612,0.561925 110.948847,0.174140909 111.431294,0.174140909 L124.7224,0.174140909 C125.201741,0.173106818 125.589976,0.563993182 125.589976,1.04381136 L125.589976,14.3535955 Z" id="Fill-114"></path>
                        <path d="M143.894701,14.3535955 C143.894701,14.8334136 143.513713,15.2243 143.033336,15.2243 L129.736019,15.2243 C129.254607,15.2243 128.865336,14.8323795 128.865336,14.3525614 L128.865336,1.04381136 C128.865336,0.561925 129.254607,0.174140909 129.736019,0.174140909 L143.032301,0.174140909 C143.513713,0.174140909 143.894701,0.563993182 143.894701,1.04381136 L143.894701,14.3535955 Z" id="Fill-116"></path>
                        <path d="M162.210504,14.3535955 C162.210504,14.8334136 161.821233,15.2243 161.337751,15.2243 L148.041468,15.2243 C147.563162,15.2243 147.172856,14.8323795 147.172856,14.3525614 L147.172856,1.04381136 C147.172856,0.561925 147.563162,0.173106818 148.041468,0.174140909 L161.338786,0.174140909 C161.821233,0.174140909 162.210504,0.562959091 162.212574,1.04277727 L162.210504,14.3535955 Z" id="Fill-118"></path>
                        <path d="M180.518231,14.3504932 C180.519266,14.8323795 180.132066,15.2243 179.654795,15.2243 L166.359548,15.2243 C165.876066,15.2243 165.487831,14.8334136 165.487831,14.3535955 L165.488866,1.04381136 C165.488866,0.561925 165.876066,0.173106818 166.359548,0.174140909 L179.654795,0.174140909 C180.132066,0.174140909 180.518231,0.561925 180.518231,1.04381136 L180.518231,14.3504932 Z" id="Fill-120"></path>
                        <path d="M198.835068,14.3504932 C198.835068,14.8313455 198.442692,15.2243 197.970598,15.2243 L184.666033,15.2243 C184.190833,15.2243 183.801562,14.8323795 183.801562,14.3515273 L183.802598,1.04381136 C183.802598,0.561925 184.190833,0.174140909 184.666033,0.173106818 L197.970598,0.173106818 C198.441656,0.174140909 198.835068,0.561925 198.835068,1.04381136 L198.835068,14.3504932 Z" id="Fill-122"></path>
                        <path d="M217.146833,14.3520443 C217.146833,14.8328966 216.757562,15.223783 216.277186,15.223783 L202.978833,15.223783 C202.499492,15.223783 202.107115,14.8328966 202.107115,14.3520443 L202.108151,1.04432841 C202.108151,0.561407955 202.499492,0.173623864 202.978833,0.173623864 L216.277186,0.173623864 C216.757562,0.173623864 217.144762,0.561407955 217.146833,1.04432841 L217.146833,14.3520443 Z" id="Fill-124"></path>
                        <path d="M235.451558,14.3520443 C235.451558,14.8328966 235.067464,15.223783 234.591228,15.223783 L221.284593,15.223783 C220.810428,15.223783 220.421158,14.8328966 220.421158,14.3520443 L220.421158,1.04432841 C220.421158,0.562442045 220.811464,0.173623864 221.283558,0.173623864 L234.592264,0.173623864 C235.067464,0.173623864 235.453628,0.561407955 235.451558,1.04432841 L235.451558,14.3520443 Z" id="Fill-126"></path>
                        <path d="M229.818108,82.662642 L229.818108,89.9840057 C229.818108,90.2104716 229.904038,90.4359034 230.071755,90.5992898 C230.240508,90.7699148 230.467238,90.8536761 230.684649,90.8557443 L243.989214,90.8536761 C244.208696,90.8536761 244.426108,90.7699148 244.601073,90.5972216 C244.770861,90.4359034 244.855755,90.2084034 244.855755,89.9840057 L244.855755,82.6605739 L229.818108,82.662642 Z" id="Fill-128"></path>
                        <path d="M244.856066,81.6784977 L244.856066,74.3561 C244.856066,74.139975 244.771172,73.9135091 244.601384,73.7470205 C244.429525,73.5753614 244.209007,73.4884977 243.99056,73.4884977 L230.68496,73.4884977 C230.467548,73.4884977 230.240819,73.5753614 230.072066,73.7470205 C229.904348,73.9135091 229.818419,74.139975 229.818419,74.3561 L229.818419,81.6784977 L244.856066,81.6784977 Z" id="Fill-130"></path>
                        <path d="M248.849713,18.503092 C248.631266,18.503092 248.408678,18.581683 248.237854,18.7574784 C248.070136,18.9250011 247.990419,19.1452625 247.990419,19.367592 L247.990419,32.6784102 C247.990419,32.903842 248.070136,33.1272057 248.237854,33.2998989 C248.408678,33.4653534 248.631266,33.5553193 248.849713,33.5553193 L252.322089,33.5553193 L252.322089,51.011808 C252.322089,51.2362057 252.410089,51.4595693 252.578842,51.6250239 C252.749666,51.797717 252.967078,51.8794102 253.189666,51.8794102 L262.150136,51.8794102 C262.375831,51.8794102 262.594278,51.797717 262.766136,51.6250239 C262.93696,51.4595693 263.021854,51.2362057 263.021854,51.011808 L263.021854,19.367592 C263.021854,19.1452625 262.93696,18.9250011 262.766136,18.7574784 C262.594278,18.582717 262.375831,18.503092 262.150136,18.503092 L248.849713,18.503092 Z" id="Fill-132"></path>
                    </g>
                    <g id="Group-137" transform="translate(6.000000, 4.000000)">
                        <mask id="mask-5" fill="white">
                            <use xlink:href="#path-4"></use>
                        </mask>
                        <g id="Clip-136"></g>
                        <path d="M1.09042912,0.067 C0.518987748,0.067 0.0572796839,0.514 0.0572796839,1.067 L0.0572796839,1.067 C0.0572796839,1.618 0.518987748,2.066 1.09042912,2.066 L1.09042912,2.066 L260.934759,2.066 C261.50413,2.066 261.967908,1.618 261.967908,1.067 L261.967908,1.067 C261.967908,0.514 261.50413,0.067 260.934759,0.067 L260.934759,0.067 L1.09042912,0.067 Z" id="Fill-135" fill="url(#linearGradient-6)" mask="url(#mask-5)"></path>
                    </g>
                </g>
                <g id="Group-121" transform="translate(134.000000, 146.000000) rotate(-180.000000) translate(-134.000000, -146.000000) translate(4.000000, 0.000000)">
                    <path d="M202.643712,181.559846 C202.643712,181.559846 205.024594,165.294484 199.869956,159.527363 C199.869956,159.527363 212.951357,143.763736 207.797534,127.5 L50.3838329,127.5 C50.3838329,127.5 47.2114974,145.713758 59.1069405,157.633451 C59.1069405,157.633451 51.1769168,166.492308 52.7630846,183.409846 L101.929395,201.5 L157.442006,201.5 L202.643712,181.559846 Z" id="Fill-1" fill="#6F4D29"></path>
                    <path d="M218.731605,220.047882 C218.731605,220.047882 226.623183,246.237774 224.697194,257.586726 L131.163161,268.5 L28,257.586726 C28,257.586726 49.2282937,165.85741 60.0068143,158.5 L201.4491,160.246812 L218.731605,220.047882 Z" id="Fill-3" fill="#A67C52"></path>
                    <path d="M177.440282,138.94174 C177.43782,138.957634 177.514984,138.975201 177.511701,138.991931 C162.969421,133.612229 146.35108,131.720006 129.933039,131.520077 L129.933039,131.5 C129.933039,131.501673 129.401916,131.507529 129.110495,131.509202 C128.820717,131.507529 128.291235,131.501673 128.291235,131.5 L128.291235,131.520077 C112.694096,131.71917 95.1990318,133.60721 80.6756328,138.963489 C80.3546601,141.143477 79.7356999,143.558529 80.1239866,145.494251 C80.7708574,148.733282 122.360218,147.142209 128.937285,146.869501 C135.527487,147.142209 177.204684,148.733282 177.854838,145.494251 C178.243945,143.551837 177.762897,141.127583 177.440282,138.94174" id="Fill-5" fill="#044561"></path>
                    <path d="M80.449,139.03 C80.481,139.018 80.514,139.008 80.547,138.997 C80.548,138.987 80.55,138.978 80.551,138.97 C80.554,138.989 80.446,139.01 80.449,139.03" id="Fill-7" fill="#044561"></path>
                    <path d="M176.570049,127.5 L129.29301,127.5 L127.559636,127.5 L80.4659578,127.5 C80.4659578,127.5 79.4831417,133.348749 80.3722398,138.438409 C95.0623249,133.20957 112.220859,131.315445 128.4251,131.186664 C144.592669,131.315445 161.909302,133.031195 176.607536,138.267234 C176.608351,138.274433 176.610796,138.493601 176.610796,138.5 C177.509673,133.406341 176.570049,127.5 176.570049,127.5" id="Fill-9" fill="#25536C"></path>
                    <path d="M80.5255,139.021 C80.5235,139.005 80.5215,138.992 80.5195,138.979 C80.5045,138.984 80.4895,138.989 80.4745,138.994 C80.4735,139.002 80.5265,139.013 80.5255,139.021" id="Fill-11" fill="#25536C"></path>
                    <path d="M67,189.127277 L75.6347341,143.13268 C75.6347341,143.13268 130.184363,124.711473 181.023781,145.10497 L191,185.418022 L122.997777,192.5 L73.3185184,192.5 L67,189.127277 Z" id="Fill-13" fill="#E83A33"></path>
                    <path d="M228.532826,196.036687 C230.573994,203.308989 225.740508,211.023938 217.663198,212.911916 C157.371996,227.029361 94.6289426,227.029361 34.3369237,212.911916 C26.2620633,211.023938 21.4253117,203.307358 23.4672961,196.036687 C23.5015878,195.911148 23.5350629,195.787239 23.5709875,195.665776 C25.6146048,188.382876 33.2371424,184.153675 40.6588291,185.887582 C96.7925806,199.032507 155.207541,199.032507 211.341293,185.887582 C218.76298,184.153675 226.385517,188.382876 228.429135,195.665776 C228.46261,195.787239 228.497718,195.911148 228.532826,196.036687" id="Fill-15" fill="#6F4D29"></path>
                    <path d="M196,47.5 L190.912166,34.8480892 C189.826266,32.1450806 186.682735,30.8062454 183.888486,31.8598221 L182.206355,32.4940932 C182.135315,32.5210661 182.069349,32.5537605 182,32.5856375 L186.344448,43.3894981 L196,47.5 Z" id="Fill-17" fill="#F9BB88"></path>
                    <path d="M198.375356,43.9634536 L187.222173,38.9418057 C186.165185,38.4661655 185.040985,38.3916676 184,38.6364463 L187.09495,46.7861862 L202,53.5 L198.375356,43.9634536 Z" id="Fill-19" fill="#F9BB88"></path>
                    <g id="Group-23" transform="translate(190.000000, 0.500000)">
                        <mask id="mask-8" fill="white">
                            <use xlink:href="#path-7"></use>
                        </mask>
                        <g id="Clip-22"></g>
                        <path d="M2.99503636,1.059465 C4.82285455,0.340065 6.88549091,1.25664 7.59730909,3.10299 L17.0947636,27.74739 C17.8065818,29.59374 16.9008545,31.676865 15.0738545,32.396265 C13.2435818,33.115665 11.1825818,32.20074 10.4715818,30.355215 L0.973309091,5.70999 C0.261490909,3.862815 1.16803636,1.77969 2.99503636,1.059465" id="Fill-21" fill="#F9BB88" mask="url(#mask-8)"></path>
                    </g>
                    <path d="M198.092689,50.5975089 C199.948522,55.3628832 205.316655,57.7222387 210.079304,55.8663543 L224.098967,50.4067629 C228.864078,48.5516971 231.22202,43.1829762 229.366186,38.4184206 L223.908626,24.4006395 C222.051151,19.6360839 216.683839,17.2783657 211.920369,19.1334315 L197.899886,24.5930228 C193.135596,26.4489073 190.778474,31.8151722 192.633487,36.5797278 L198.092689,50.5975089 Z" id="Fill-24" fill="#F9BB88"></path>
                    <path d="M213.23274,5.74599176 C215.033733,5.02566219 217.064485,5.94094334 217.765857,7.79133122 L223.759762,23.5948002 C224.462746,25.4476663 223.570311,27.533483 221.769318,28.2538126 C219.965906,28.9749682 217.93596,28.0580349 217.233782,26.2051689 L211.239877,10.4016998 C210.5377,8.55131196 211.429328,6.46797346 213.23274,5.74599176" id="Fill-26" fill="#F9BB88"></path>
                    <path d="M203.317072,4.74721185 C205.188929,4.02314593 207.299479,4.94377958 208.028959,6.80163486 L217.750889,31.5791209 C218.480369,33.4353174 217.553234,35.530381 215.681377,36.2527881 C213.810358,36.9768541 211.699808,36.0562204 210.972003,34.1983651 L201.249236,9.42170846 C200.519756,7.56385317 201.446053,5.47044837 203.317072,4.74721185" id="Fill-28" fill="#F9BB88"></path>
                    <path d="M186.317342,10.74783 C188.189057,10.0216523 190.298502,10.9458028 191.026763,12.8082447 L198.751352,32.5631055 C199.479613,34.4263792 198.553801,36.5258895 196.683761,37.2520672 C194.812046,37.9782448 192.703438,37.0549261 191.97434,35.1916524 L184.248077,15.4367916 C183.520653,13.5751815 184.447302,11.4740076 186.317342,10.74783" id="Fill-30" fill="#F9BB88"></path>
                    <path d="M237,69.1747619 L223.625675,34.5349409 C222.365864,31.27645 218.72905,29.6637032 215.498786,30.9341022 L205.998975,34.6644556 C202.76953,35.9332048 201.171201,39.6016881 202.430193,42.860179 L215.805338,77.5 L237,69.1747619 Z" id="Fill-32" fill="#F9BB88"></path>
                    <path d="M212.666079,10.5 L212.158571,9.40291647 C211.694611,8.30737272 212.283354,7.07324998 213.473403,6.64596482 C214.662614,6.21867966 216.003408,6.7614473 216.46653,7.85699106 L217,9.12036935 L212.666079,10.5 Z" id="Fill-34" fill="#F9D4A7"></path>
                    <path d="M185.798283,16.5 L185.18948,15.1292815 C184.634471,13.7585629 185.33976,12.2160957 186.769122,11.6820389 C188.195069,11.1487999 189.802888,11.8267985 190.358751,13.1966992 L191,14.7759698 L185.798283,16.5 Z" id="Fill-36" fill="#F9D4A7"></path>
                    <path d="M191.798946,7.5 L191.189168,6.12928147 C190.634901,4.75938078 191.339477,3.21609566 192.769127,2.68203885 C194.196214,2.1487999 195.803501,2.82679851 196.36033,4.19669919 L197,5.77596977 L191.798946,7.5 Z" id="Fill-38" fill="#F9D4A7"></path>
                    <path d="M202.799595,10.5 L202.189039,9.12928147 C201.634841,7.75856293 202.340183,6.21609566 203.7688,5.68203885 C205.195709,5.1487999 206.803651,5.82679851 207.359556,7.19669919 L208,8.77596977 L202.799595,10.5 Z" id="Fill-40" fill="#F9D4A7"></path>
                    <path d="M183.625596,37.5 L182,33.3223477 C182.050532,33.2984021 182.099352,33.2736013 182.151597,33.2522213 L183.384069,32.7724541 C185.432766,31.9745524 187.73755,32.9888197 188.533219,35.0361686 L189,36.2394351 C187.671602,36.5233615 185.046495,37.1544992 183.625596,37.5" id="Fill-42" fill="#F9D4A7"></path>
                    <polygon id="Fill-44" fill="#F9FFFF" points="212.583573 70.5 236 61.4023369 232.414773 52.5 209 61.5976631"></polygon>
                    <path d="M149.831752,174.948366 C149.831752,174.948366 176.202767,186.446441 197.747302,180.706412 C232.395554,171.473556 229.462533,112.479589 210.931991,69.1341416 C226.127101,62.9486034 237.311185,59.5 237.311185,59.5 C237.311185,59.5 266.496624,129.461361 258.665148,160.753485 C250.836125,192.046429 240.010284,208.145371 225.772946,221.40419 C208.998455,237.017495 165.596944,245.341314 144.783619,239.764257 C124.696598,234.386204 149.831752,174.948366 149.831752,174.948366" id="Fill-46" fill="#E83A33"></path>
                    <path d="M237.32372,59.5 C237.32372,59.5 233.557695,60.6645512 227.434126,62.8446041 C235.043015,83.0940365 251.07498,130.331247 245.028251,154.505102 C237.200284,185.797297 226.380424,201.897913 212.148498,215.153486 C197.266695,229.016723 161.415486,237.123539 139,234.865686 C140.235995,237.303709 142.121051,239.035794 144.847269,239.763844 C165.649096,245.341733 209.02663,237.017894 225.791855,221.403736 C240.021327,208.145705 250.841187,192.046727 258.665885,160.753713 C266.493035,129.461518 237.32372,59.5 237.32372,59.5" id="Fill-48" fill="#DD2828"></path>
                    <path d="M61,51.5 L65.3494393,38.9944339 C66.2783082,36.3219789 69.3015059,34.8735068 72.1047741,35.7611521 L73.7917334,36.2958017 C73.8642102,36.3188059 73.9300224,36.3473629 74,36.3751266 L70.2861903,47.0546342 L61,51.5 Z" id="Fill-50" fill="#F9BB88"></path>
                    <path d="M57.2843483,48.7046794 L68.6563312,43.0594706 C69.7324545,42.5253305 70.9013182,42.3907635 72,42.58312 L69.1952284,50.9535166 L54,58.5 L57.2843483,48.7046794 Z" id="Fill-52" fill="#F9BB88"></path>
                    <path d="M60.6216414,6.68157286 C58.8015386,6.06336692 56.8351561,7.0749023 56.2316525,8.9393329 L48.1766784,33.8196687 C47.5747735,35.6832816 48.5603628,37.6989927 50.3796663,38.3180164 C52.1989697,38.9370401 54.1653522,37.9255047 54.7688558,36.0627096 L62.8222312,11.1823738 C63.4265342,9.31794315 62.4401455,7.30059653 60.6216414,6.68157286" id="Fill-54" fill="#F9BB88"></path>
                    <path d="M57.8630377,55.075936 C56.2748511,59.989342 51.11001,62.6511501 46.3284686,61.020254 L32.2531244,56.222867 C27.4707743,54.5936283 24.8790543,49.2882437 26.4672409,44.3748377 L31.1371888,29.9221811 C32.7245667,25.0096038 37.8902164,22.3494531 42.6725665,23.9795205 L56.7479107,28.7769075 C61.5302608,30.4069749 64.1203635,35.7107021 62.5329855,40.6232794 L57.8630377,55.075936 Z" id="Fill-56" fill="#F9BB88"></path>
                    <path d="M40.6408133,10.6815939 C38.8380537,10.0641167 36.888696,11.0723093 36.2904176,12.9328976 L31.1769196,28.8274279 C30.5762639,30.6904633 31.5549048,32.7011385 33.3576645,33.3178 C35.1635938,33.9369085 37.1105741,32.9270846 37.709645,31.0640492 L42.8239354,15.1695188 C43.4222139,13.3089305 42.4467426,11.2998867 40.6408133,10.6815939" id="Fill-58" fill="#F9BB88"></path>
                    <path d="M50.6214955,9.6823403 C48.8021389,9.06255143 46.8364983,10.0740011 46.2313784,11.939909 L38.1777676,36.8189537 C37.573447,38.6832263 38.5598645,40.7004019 40.3792211,41.3177378 C42.1985777,41.9375267 44.1642183,40.9252594 44.7677395,39.0601691 L52.8221497,14.1811244 C53.4264702,12.3168518 52.4408522,10.3013115 50.6214955,9.6823403" id="Fill-60" fill="#F9BB88"></path>
                    <path d="M67.5040417,14.6826257 C65.5952378,14.0613516 63.5338637,15.0765643 62.9009489,16.9485936 L56.1861841,36.8006389 C55.5532694,38.6726682 56.5860522,40.6957072 58.4948561,41.3169813 C60.4019834,41.9390761 62.4650341,40.9238634 63.0979489,39.0510134 L69.8143902,19.1989681 C70.4464667,17.3285802 69.4120073,15.3038998 67.5040417,14.6826257" id="Fill-62" fill="#F9BB88"></path>
                    <path d="M20,75.404156 L31.4299008,40.7600745 C32.5047827,37.5013324 36.0021838,35.7362817 39.2413551,36.8184789 L48.7668104,39.9986483 C52.0051746,41.0792255 53.759524,44.5971765 52.6830281,47.8559185 L41.2539343,82.5 L20,75.404156 Z" id="Fill-64" fill="#F9BB88"></path>
                    <path d="M41.4320139,15.5 L41.881028,14.3577876 C42.2853935,13.2195031 41.6257723,11.9893074 40.4059365,11.6114503 C39.1869432,11.2328077 37.8710706,11.8502623 37.4658627,12.9893324 L37,14.3020125 L41.4320139,15.5 Z" id="Fill-66" fill="#F9D4A7"></path>
                    <path d="M68.3184048,20.5 L68.8571188,19.0730615 C69.3425629,17.6486264 68.5512461,16.1123728 67.086322,15.63923 C65.6248347,15.1660872 64.0447787,15.9379692 63.5593347,17.3615698 L63,19.0029663 L68.3184048,20.5 Z" id="Fill-68" fill="#F9D4A7"></path>
                    <path d="M62.3183987,11.5 L62.8571121,10.0730615 C63.3425556,8.64862642 62.5512398,7.11237276 61.0871765,6.63923 C59.6248317,6.16608724 58.0447775,6.93796917 57.559334,8.36156979 L57,10.0029663 L62.3183987,11.5 Z" id="Fill-70" fill="#F9D4A7"></path>
                    <path d="M51.3183987,14.5 L51.8571121,13.0730615 C52.3425556,11.6486264 51.5512398,10.1123728 50.0871765,9.63923 C48.6248317,9.16608724 47.0447775,9.93796917 46.559334,11.3615698 L46,13.0029663 L51.3183987,14.5 Z" id="Fill-72" fill="#F9D4A7"></path>
                    <path d="M71.5563759,41.5 L73,37.1913648 C72.9456889,37.1697133 72.8957577,37.1471958 72.8414466,37.1281426 L71.5563759,36.7063726 C69.4233513,36.0048662 67.1221374,37.149794 66.4152171,39.2612418 L66,40.503168 C67.3735452,40.7214145 70.0873483,41.2245938 71.5563759,41.5" id="Fill-74" fill="#F9D4A7"></path>
                    <polygon id="Fill-76" fill="#F9FFFF" points="45.9303695 74.5 22 66.6596905 25.0688027 57.5 49 65.3403095"></polygon>
                    <path d="M111.022026,178.796078 C111.022026,178.796078 84.8511632,190.868235 63.1337992,185.617231 C28.2035152,177.176044 29.8252052,118.21367 47.429314,74.5275401 C32.0617928,68.6934545 20.7804712,65.5 20.7804712,65.5 C20.7804712,65.5 -6.90877851,135.998881 1.63747852,167.060848 C10.1853753,198.126904 21.3929092,213.96006 35.9577841,226.873719 C53.1142475,242.085357 96.7949345,249.422533 117.528462,243.391361 C137.538051,237.571178 111.022026,178.796078 111.022026,178.796078" id="Fill-78" fill="#E83A33"></path>
                    <g id="Group-82" transform="translate(0.000000, 65.500000)">
                        <mask id="mask-10" fill="white">
                            <use xlink:href="#path-9"></use>
                        </mask>
                        <g id="Clip-81"></g>
                        <path d="M20.6466497,0.239968326 C20.6466497,0.239968326 24.422994,1.31777828 30.5697358,3.36119457 C23.4406232,23.7757014 8.52015298,71.3672353 15.0774377,95.3984661 C23.5693252,126.508353 34.7061199,142.367557 49.1761331,155.299638 C64.309206,168.827136 100.204027,176.125285 122.485762,173.369335 C121.310338,175.831262 119.469411,177.605226 116.769928,178.396385 C96.1702788,184.436543 52.771643,177.088434 35.7259609,161.854131 C21.2551331,148.921231 10.1199675,133.064484 1.62645099,101.95214 C-6.86380728,70.8438914 20.6466497,0.239968326 20.6466497,0.239968326" id="Fill-80" fill="#DD2828" mask="url(#mask-10)"></path>
                    </g>
                    <path d="M126.5,270.5 C92.5885091,270.5 65,240.255188 65,203.079614 C65,195.27537 66.2065257,187.626085 68.5834878,180.346255 L71.1072672,181.537811 C68.8557968,188.437582 67.7140676,195.685604 67.7140676,203.079614 C67.7140676,238.457659 94.0845681,267.239328 126.5,267.239328 C158.915432,267.239328 185.289213,238.457659 185.289213,203.079614 C185.289213,194.335826 183.702111,185.859547 180.582861,177.889741 L183.036102,176.5 C186.329237,184.906955 188,193.850559 188,203.079614 C188,240.255188 160.40985,270.5 126.5,270.5" id="Fill-83" fill="#E6E7E8"></path>
                    <polygon id="Fill-85" fill="#E6E7E8" points="180 181.4988 178.376172 183.5 177 178.785396 179.002117 178.5"></polygon>
                    <path d="M163,171.240335 C164.244218,170.763536 165.568369,170.5 166.941772,170.5 C174.155165,170.5 180,177.600078 180,186.35841 C180,193.470651 176.143006,199.492257 170.832676,201.5 C170.159297,195.871671 168.065685,181.89775 163,171.240335" id="Fill-87" fill="#E2DBC7"></path>
                    <path d="M176,177.752195 C176,176.612292 175.884311,175.503265 175.686226,174.420107 C173.243446,171.387599 169.835206,169.5 166.063254,169.5 C164.646692,169.5 163.282563,169.772041 162,170.261882 C165.364128,177.331616 167.454848,185.807452 168.701623,192.5 C173.128589,189.112837 176,183.777157 176,177.752195" id="Fill-89" fill="#F9F1E4"></path>
                    <path d="M180.198748,178.703727 C181.614157,182.326336 183.797365,190.910815 182.703784,193.056533 C181.614157,195.20386 182.703784,189.435534 179,178.3005 C179.325781,176.288387 180.198748,178.703727 180.198748,178.703727" id="Fill-91" fill="#E6E7E8"></path>
                    <path d="M181,183.833364 C181,183.833364 184.162522,182.61533 186.757722,184.835765 C189.351312,187.055368 191.460465,209.100703 188.701104,211.375255 C186.681274,212.051293 187.054661,209.759258 187.054661,209.759258 C187.054661,209.759258 187.727401,198.106759 185.453282,189.875246 C183.360223,189.816134 182.042103,188.520672 182.042103,188.520672 L181,183.833364 Z" id="Fill-93" fill="#E6E7E8"></path>
                    <polygon id="Fill-95" fill="#E6E7E8" points="73 184.500171 74.6259819 186.5 76 181.786302 74.0006042 181.5"></polygon>
                    <path d="M82,203.608993 C82,203.608993 82.2352875,204.82129 84.2425039,204.41773 C86.2462979,204.013362 85.1836539,199.160936 88.0139488,189.590337 C90.8450992,180.019737 93.3203238,177.189964 92.9661092,175.033061 C92.6136057,172.876967 90.0177428,173.282144 89.1946643,174.493633 C88.783125,175.094525 86.0418116,182.117602 84.3580087,189.186777 C82.6485379,196.374836 82,203.608993 82,203.608993" id="Fill-97" fill="#E6E7E8"></path>
                    <path d="M170,200.608239 C170,200.608239 169.76467,201.821331 167.761372,201.417776 C165.754651,201.013412 166.814063,196.161043 163.984115,186.590554 C161.155024,177.020065 158.676788,174.190326 159.034489,172.033448 C159.3862,169.87657 161.979106,170.282551 162.803188,171.493217 C163.214801,172.09572 165.956607,179.117097 167.644991,186.18619 C169.351346,193.374975 170,200.608239 170,200.608239" id="Fill-99" fill="#E6E7E8"></path>
                    <path d="M90,173.240335 C88.7550342,172.761104 87.4293313,172.5 86.0551862,172.5 C78.8461721,172.5 73,179.600889 73,188.357599 C73,195.471462 76.856003,201.490636 82.1693104,203.5 C82.843465,197.871671 84.9321334,183.896129 90,173.240335" id="Fill-101" fill="#E2DBC7"></path>
                    <path d="M77.031218,177.393117 C77.0244681,177.592308 77,177.788259 77,177.987449 C77,183.954251 80.0315193,189.225506 84.6796239,192.5 C85.9781233,186.439271 87.9828241,179.303239 91,173.239271 C89.6989694,172.760729 88.3144097,172.5 86.8775387,172.5 C83.0048213,172.5 79.5134695,174.382591 77.031218,177.393117" id="Fill-103" fill="#F9F1E4"></path>
                    <path d="M72.8020292,181.702231 C71.3858141,185.324218 69.2049537,193.909937 70.2945932,196.057373 C71.3858141,198.202394 70.2945932,192.433776 74,181.301398 C73.6742152,179.288378 72.8020292,181.702231 72.8020292,181.702231" id="Fill-105" fill="#E6E7E8"></path>
                    <path d="M71,187.59573 C71,187.59573 67.8925405,186.87192 65.6315217,189.404849 C63.369734,191.937779 63.369734,213.649653 66.197353,215.459586 C68.176225,215.82027 67.6111625,213.648025 67.6111625,213.648025 C67.6111625,213.648025 65.9152061,202.432625 67.3282468,194.107582 C69.3055812,193.746898 70.4349375,192.299277 70.4349375,192.299277 L71,187.59573 Z" id="Fill-107" fill="#E6E7E8"></path>
                    <path d="M181.846495,214.312796 C179.649078,182.623525 154.433426,158.584209 125.521155,160.620368 C96.6096985,162.658989 74.9560824,189.997835 77.1534999,221.688747 C79.3509173,253.378018 104.566568,277.416514 133.47884,275.379534 C162.391112,273.343375 184.043913,246.002067 181.846495,214.312796" id="Fill-109" fill="#5E4836"></path>
                    <path d="M127.029186,276.170503 C127.029186,276.170503 118.831372,278.469567 129.407805,291.5 C139.985896,284.857191 132.99357,271.735564 129.218643,273.697848 C125.442887,275.658533 127.029186,276.170503 127.029186,276.170503" id="Fill-111" fill="#5E4836"></path>
                    <path d="M124.001863,274.356887 C124.001863,274.356887 123.735542,277.5 129.570472,277.5 C135.407067,277.5 136.204366,275.785331 137,273.5 C130.634092,274.356887 124.001863,274.356887 124.001863,274.356887" id="Fill-113" fill="#EDB458"></path>
                    <path d="M139.570698,273.705806 C148.983212,262.215871 154.215487,248.89775 155,224.352149 C154.215487,237.147814 151.339213,255.164765 137.21798,274.227444 C142.186836,264.304058 148.723896,238.452727 147.415828,211.034028 C146.893093,223.830511 144.017639,260.648504 133.293774,272.921714 C134.599381,263.521601 138.526049,225.918698 136.693604,207.378475 C135.909091,218.605955 135.386356,248.89775 129.632167,272.921714 C128.847654,265.871425 128.847654,198.5 128.847654,198.5 C128.847654,198.5 125.970559,242.891555 126.755072,272.921714 C117.862832,251.248392 114.463823,229.051797 114.986558,206.5952 C113.154933,219.128411 111.846865,237.930271 121.52608,271.615984 C108.448676,260.387685 105.308983,239.757639 104.002556,224.873787 C103.787553,261.390081 117.195667,272.636366 121.960188,275.480029 C127.110401,276.762049 133.778761,277.045761 139.990856,275.094115 C150.352007,267.864769 154.215487,255.164765 154.215487,255.164765 C154.215487,255.164765 152.123726,261.17096 139.570698,273.705806" id="Fill-115" fill="#775B46"></path>
                    <path d="M126,131.5 L126,131.554294 C143.968758,131.630305 159.952785,133.331247 174.945264,138.5 C174.946897,138.485263 174.845619,138.468199 174.849703,138.454238 C174.849703,138.448033 175.00162,138.439501 174.999987,138.432521 C160.006692,133.265319 143.968758,131.56903 126,131.5" id="Fill-117" fill="#25536C"></path>
                    <polygon id="Fill-119" fill="#F2F2F2" points="30.6931705 69.5 34 60.5458324 25.043207 57.5 22 66.5667235"></polygon>
                </g>
                <path d="M93.246,182.648 C92.05,182.076 91.478,181.036 91.218,179.996 C91.114,179.58 91.27,179.372 91.79,179.372 C96.106,179.58 101.618,178.072 104.53,178.072 C106.766,178.072 108.118,179.112 108.794,180.724 C108.95,181.14 108.846,181.504 108.17,181.504 C104.27,181.452 100.63,182.492 97.458,182.96 C95.638,185.924 93.194,190.136 90.646,194.816 C91.998,194.556 93.194,194.452 94.13,194.4 C96.73,194.244 98.03,195.336 98.498,196.896 C98.654,197.364 98.55,197.676 97.926,197.676 C95.326,197.624 91.322,198.404 88.358,199.132 C86.382,202.98 84.458,206.88 82.95,210.364 C82.742,210.884 82.43,210.884 82.066,210.572 C81.078,209.74 80.558,208.076 81.65,204.852 C83.21,200.276 88.67,190.084 93.246,182.648 Z M108.586,205.788 C106.766,208.232 104.01,210.884 101.098,210.676 C97.406,210.416 97.302,206.568 98.446,203.136 C99.59,199.704 102.242,194.608 105.622,189.876 C106.038,189.304 106.558,189.356 106.974,189.824 C108.118,191.54 107.858,193.88 105.986,196.844 C104.062,199.912 103.022,201.992 101.93,204.488 C100.838,207.036 100.994,208.908 102.19,209.012 C104.218,209.168 107.078,205.528 109.886,201.004 C113.162,195.7 114.67,192.112 116.334,189.876 C116.854,189.148 117.218,189.044 117.634,189.564 C118.414,190.5 118.83,192.788 117.582,195.388 C116.438,197.728 113.838,201.628 112.642,204.28 C111.29,207.244 111.498,209.428 113.37,209.324 C115.554,209.22 118.206,205.788 120.234,202.148 C120.494,201.68 120.962,201.628 121.17,202.096 C121.378,202.512 121.43,203.916 120.702,205.372 C119.194,208.284 115.97,210.936 112.902,210.936 C109.522,210.936 108.17,208.804 108.586,205.788 Z M125.902,189.772 C124.134,189.772 122.938,188.992 122.522,188.42 C122.002,187.692 122.314,187.328 123.094,187.38 C124.55,187.432 126.006,187.328 127.41,187.172 C129.022,184.312 130.478,181.868 131.362,180.724 C131.83,180.048 132.35,180.1 132.61,180.724 C133.182,182.18 133.182,183.896 131.934,186.6 C133.962,186.548 134.742,187.484 135.158,188.16 C135.522,188.784 135.314,189.148 134.534,189.148 C133.39,188.992 131.778,189.148 130.478,189.356 C128.45,192.84 125.486,197.884 123.51,202.252 C121.794,206.048 122.366,209.272 124.55,209.376 C126.89,209.48 129.854,205.788 131.778,201.888 C132.09,201.264 132.662,201.16 132.87,201.888 C133.13,202.72 132.87,203.656 132.35,204.852 C131.674,206.36 128.242,210.936 124.082,210.78 C120.65,210.676 117.894,206.828 120.39,200.848 C121.482,198.248 123.666,193.88 125.902,189.772 Z M168.386,205.528 C167.086,208.648 163.966,210.832 161.21,210.78 C157.154,210.676 155.594,207.088 156.894,202.928 C157.986,199.444 161.21,195.544 163.394,193.048 C161.106,194.504 158.87,195.024 157.154,195.024 C154.45,201.888 150.03,210.208 144.414,210.676 C141.294,210.936 139.786,208.804 140.046,205.84 C138.226,208.284 135.626,210.832 132.766,210.624 C129.022,210.364 128.97,206.516 130.114,203.136 C131.258,199.704 133.806,194.66 137.29,189.98 C137.706,189.46 138.122,189.408 138.486,189.928 C139.734,191.644 139.474,193.776 137.602,196.896 C135.782,199.964 134.482,202.044 133.494,204.488 C132.454,207.036 132.61,208.856 133.754,208.96 C135.782,209.116 138.694,205.528 141.45,201.056 C144.726,195.7 146.182,192.216 147.846,189.98 C148.314,189.356 148.678,189.252 149.094,189.668 C149.874,190.5 150.29,192.788 149.042,195.388 C147.95,197.728 145.298,201.628 144.154,204.28 C142.854,207.244 143.114,209.272 144.726,209.116 C148.054,208.804 152.37,202.148 155.126,194.764 C150.966,193.204 155.854,186.184 157.986,186.028 C159.65,185.924 159.234,189.148 158.09,192.58 C159.91,192.32 161.782,191.488 163.81,190.136 C164.434,189.616 164.954,189.46 165.37,189.98 C166.306,191.124 167.606,193.516 166.046,195.284 C163.602,198.04 161.106,201.628 160.17,204.28 C159.182,207.14 159.806,209.22 161.47,209.324 C163.55,209.428 166.202,206.048 167.866,202.148 C168.074,201.68 168.438,201.68 168.646,202.148 C168.906,202.72 169.01,203.968 168.386,205.528 Z M172.026,201.108 C170.362,205.892 171.61,209.168 174.366,209.324 C178.682,209.532 182.478,205.372 184.714,201.94 C184.974,201.524 185.39,201.524 185.598,201.992 C185.806,202.408 185.65,203.864 184.714,205.216 C182.53,208.388 178.526,210.78 174.522,210.832 C167.918,210.936 165.63,204.436 169.01,197.728 C172.39,191.02 177.694,188.316 180.294,189.824 C181.594,190.604 182.53,191.384 183.362,192.528 C184.298,193.776 183.882,196.948 181.698,199.6 C179.15,202.72 175.666,204.072 172.026,201.108 Z M172.494,199.964 C175.042,201.576 177.174,199.34 178.682,197.364 C180.346,195.18 181.49,192.476 180.762,191.904 C179.67,191.02 175.354,194.14 172.91,199.08 C172.754,199.392 172.598,199.704 172.494,199.964 Z M103.75,222.7 C102.554,222.908 101.514,223.012 100.578,223.064 C97.458,223.168 95.222,222.024 94.65,220.1 C94.494,219.632 94.702,219.372 95.222,219.424 C99.85,219.788 108.482,217.864 111.446,217.968 C113.63,218.02 115.606,218.592 116.386,220.62 C116.542,221.036 116.438,221.452 115.762,221.4 C113.214,221.14 109.938,221.66 106.922,222.18 C106.974,223.428 106.61,225.144 105.206,227.692 C102.086,233.36 97.666,240.64 93.61,250.156 C93.402,250.676 93.142,250.676 92.778,250.312 C92.05,249.636 91.426,248.076 92.102,245.58 C93.298,241.316 98.914,230.032 103.75,222.7 Z M107.286,241.108 C105.622,245.892 106.87,249.168 109.626,249.324 C113.942,249.532 117.738,245.372 119.974,241.94 C120.234,241.524 120.65,241.524 120.858,241.992 C121.066,242.408 120.91,243.864 119.974,245.216 C117.79,248.388 113.786,250.78 109.782,250.832 C103.178,250.936 100.89,244.436 104.27,237.728 C107.65,231.02 112.954,228.316 115.554,229.824 C116.854,230.604 117.79,231.384 118.622,232.528 C119.558,233.776 119.142,236.948 116.958,239.6 C114.41,242.72 110.926,244.072 107.286,241.108 Z M107.754,239.964 C110.302,241.576 112.434,239.34 113.942,237.364 C115.606,235.18 116.75,232.476 116.022,231.904 C114.93,231.02 110.614,234.14 108.17,239.08 C108.014,239.392 107.858,239.704 107.754,239.964 Z M124.238,239.6 C122.158,244.696 121.586,249.012 123.926,249.22 C126.422,249.428 130.062,245.684 132.09,241.68 C132.454,241.004 133.026,240.952 133.234,241.68 C133.494,242.512 133.286,243.656 132.714,244.904 C131.986,246.464 128.19,250.78 124.03,250.676 C120.442,250.572 118.518,248.076 119.714,242.46 C121.638,233.412 127.566,224 132.87,218.488 C133.65,217.656 134.378,217.552 135.106,218.228 C136.614,219.58 136.926,221.504 136.302,223.948 C134.69,230.344 128.866,236.584 124.238,239.6 Z M125.174,237.364 C132.298,231.592 135.21,223.272 134.534,222.856 C133.858,222.44 130.01,228.212 126.422,234.868 C125.954,235.7 125.538,236.532 125.174,237.364 Z M136.198,239.6 C134.118,244.696 133.546,249.012 135.886,249.22 C138.382,249.428 142.022,245.684 144.05,241.68 C144.414,241.004 144.986,240.952 145.194,241.68 C145.454,242.512 145.246,243.656 144.674,244.904 C143.946,246.464 140.15,250.78 135.99,250.676 C132.402,250.572 130.478,248.076 131.674,242.46 C133.598,233.412 139.526,224 144.83,218.488 C145.61,217.656 146.338,217.552 147.066,218.228 C148.574,219.58 148.886,221.504 148.262,223.948 C146.65,230.344 140.826,236.584 136.198,239.6 Z M137.134,237.364 C144.258,231.592 147.17,223.272 146.494,222.856 C145.818,222.44 141.97,228.212 138.382,234.868 C137.914,235.7 137.498,236.532 137.134,237.364 Z M177.746,245.424 C176.446,248.544 173.326,250.936 170.466,250.78 C166.514,250.572 164.954,247.036 166.254,242.824 C167.346,239.34 170.466,235.492 172.702,232.996 C170.414,234.452 168.074,234.972 166.462,234.972 C162.146,244.02 156.53,250.572 150.342,250.676 C143.738,250.78 141.502,244.332 144.882,237.676 C148.158,231.228 153.462,228.316 156.062,229.824 C157.362,230.604 158.298,231.332 159.13,232.476 C160.014,233.724 159.494,236.792 157.414,239.444 C154.97,242.616 151.486,243.916 147.846,241.004 C146.182,245.736 147.482,249.116 150.134,249.22 C155.854,249.48 161.574,241.264 164.434,234.66 C160.43,232.996 165.526,226.08 167.71,225.976 C169.322,225.924 168.802,229.096 167.502,232.476 C169.322,232.216 171.142,231.384 173.17,230.032 C173.794,229.616 174.262,229.356 174.626,229.876 C175.666,231.02 176.966,233.516 175.406,235.232 C172.962,237.936 170.31,241.472 169.426,244.28 C168.542,247.14 169.166,249.22 170.726,249.272 C172.91,249.376 175.562,245.944 177.226,242.096 C177.434,241.68 177.798,241.576 178.006,242.044 C178.266,242.616 178.37,243.968 177.746,245.424 Z M148.314,239.86 C150.862,241.42 152.89,239.288 154.45,237.312 C156.114,235.18 157.206,232.476 156.53,231.904 C155.386,230.916 151.122,234.192 148.73,238.976 C148.574,239.236 148.47,239.6 148.314,239.86 Z" id="FutueTelle" fill="#000A12" fill-rule="nonzero"></path>
            </g>
        </g>
    </g>
</svg>