<?xml version="1.0" encoding="UTF-8"?>
<svg width="45px" height="111px" viewBox="0 0 45 111" version="1.1" xmlns="http://www.w3.org/2000/svg" xmlns:xlink="http://www.w3.org/1999/xlink">
    <!-- Generator: Sketch 54.1 (76490) - https://sketchapp.com -->
    <title>Group</title>
    <desc>Created with Sketch.</desc>
    <g id="Page-1" stroke="none" stroke-width="1" fill="none" fill-rule="evenodd">
        <g id="Group" transform="translate(0.100000, 0.100000)" fill="#000000" fill-rule="nonzero">
            <path d="M-3.55271368e-15,38.799 L-3.55271368e-15,38.799 L-3.55271368e-15,48.599 L-3.55271368e-15,70.199 C-3.55271368e-15,73.499 2.7,76.199 6,76.199 L8.3,76.199 L8.3,104.499 C8.3,107.799 11,110.499 14.3,110.499 L30.4,110.499 C33.7,110.499 36.4,107.799 36.4,104.499 L36.4,76.099 L38.7,76.099 C42,76.099 44.7,73.4 44.7,70.099 L44.7,48.6 L44.7,38.8 L44.7,38.8 C44.7,35.5 42,32.7999997 38.7,32.8 L6,32.7999997 C2.6,32.799 -3.55271368e-15,35.5 -3.55271368e-15,38.799 Z" id="Path"></path>
            <circle id="Oval" cx="22.3" cy="13.9" r="13.9"></circle>
        </g>
    </g>
</svg>