<?xml version="1.0" encoding="UTF-8"?>
<svg width="805px" height="720px" viewBox="0 0 805 720" version="1.1" xmlns="http://www.w3.org/2000/svg" xmlns:xlink="http://www.w3.org/1999/xlink">
    <!-- Generator: Sketch 54.1 (76490) - https://sketchapp.com -->
    <title>Group</title>
    <desc>Created with Sketch.</desc>
    <defs>
        <filter x="-5.6%" y="-14.6%" width="111.3%" height="129.2%" filterUnits="objectBoundingBox" id="filter-1">
            <feOffset dx="0" dy="2" in="SourceAlpha" result="shadowOffsetOuter1"></feOffset>
            <feGaussianBlur stdDeviation="7" in="shadowOffsetOuter1" result="shadowBlurOuter1"></feGaussianBlur>
            <feColorMatrix values="0 0 0 0 0   0 0 0 0 0   0 0 0 0 0  0 0 0 0.5 0" type="matrix" in="shadowBlurOuter1" result="shadowMatrixOuter1"></feColorMatrix>
            <feMerge>
                <feMergeNode in="shadowMatrixOuter1"></feMergeNode>
                <feMergeNode in="SourceGraphic"></feMergeNode>
            </feMerge>
        </filter>
        <path d="M543.605869,0.626100579 L7.10521723,0.62816678 C3.1945618,0.62816678 0,3.64482097 0,7.32059343 L0,7.32059343 L0.00412734082,205.122195 C0,208.797968 3.19868914,211.818754 7.10521723,211.818754 L7.10521723,211.818754 L543.605869,211.818754 C547.516524,211.818754 550.723468,208.797968 550.723468,205.122195 L550.723468,205.122195 L550.727596,7.31646103 C550.723468,3.64482097 547.516524,0.626100579 543.605869,0.626100579 Z" id="path-2"></path>
        <linearGradient x1="50.0000193%" y1="82.9103331%" x2="50.0000193%" y2="1.27531156%" id="linearGradient-4">
            <stop stop-color="#FFFFFF" offset="0%"></stop>
            <stop stop-color="#E6E6E6" offset="100%"></stop>
        </linearGradient>
        <path d="M2.17690741,0.133373832 C1.03609511,0.133373832 0.114351833,1.02319626 0.114351833,2.12402804 L0.114351833,2.12402804 C0.114351833,3.2208785 1.03609511,4.11269159 2.17690741,4.11269159 L2.17690741,4.11269159 L520.924102,4.11269159 C522.060781,4.11269159 522.986657,3.2208785 522.986657,2.12402804 L522.986657,2.12402804 C522.986657,1.02319626 522.060781,0.133373832 520.924102,0.133373832 L520.924102,0.133373832 L2.17690741,0.133373832 Z" id="path-5"></path>
        <linearGradient x1="49.9998831%" y1="193.816838%" x2="49.9998831%" y2="-407.004562%" id="linearGradient-7">
            <stop stop-color="#FFFFFF" offset="0%"></stop>
            <stop stop-color="#E6E6E6" offset="100%"></stop>
        </linearGradient>
        <polygon id="path-8" points="0.458166277 0.622972774 33.6087087 0.622972774 33.6087087 64.0601412 0.458166277 64.0601412"></polygon>
        <polygon id="path-10" points="0 0.478293033 244.500425 0.478293033 244.500425 359.779973 0 359.779973"></polygon>
        <filter x="-20.3%" y="-20.5%" width="140.6%" height="141.0%" filterUnits="objectBoundingBox" id="filter-12">
            <feOffset dx="0" dy="2" in="SourceAlpha" result="shadowOffsetOuter1"></feOffset>
            <feGaussianBlur stdDeviation="10" in="shadowOffsetOuter1" result="shadowBlurOuter1"></feGaussianBlur>
            <feColorMatrix values="0 0 0 0 0   0 0 0 0 0   0 0 0 0 0  0 0 0 0.5 0" type="matrix" in="shadowBlurOuter1" result="shadowMatrixOuter1"></feColorMatrix>
            <feMerge>
                <feMergeNode in="shadowMatrixOuter1"></feMergeNode>
                <feMergeNode in="SourceGraphic"></feMergeNode>
            </feMerge>
        </filter>
        <polygon id="path-13" points="0 22.0438095 30.9566265 183 144.168434 161.002362 113.213554 0.0426666667"></polygon>
        <linearGradient x1="0%" y1="49.999617%" x2="99.9992722%" y2="49.999617%" id="linearGradient-15">
            <stop stop-color="#FFFFFF" offset="0%"></stop>
            <stop stop-color="#E6E6E6" offset="100%"></stop>
        </linearGradient>
        <polygon id="path-16" points="29.8932683 0.435 0.66302439 159.972 113.622244 180.61325 142.850732 21.0745"></polygon>
        <linearGradient x1="64.5051252%" y1="51.210822%" x2="-39.7561412%" y2="42.5093772%" id="linearGradient-18">
            <stop stop-color="#FFFFFF" offset="0%"></stop>
            <stop stop-color="#E6E6E6" offset="100%"></stop>
        </linearGradient>
        <path d="M7.0541,0.95 L0.3775,2.6942 L29.1739,113.3027 L35.8467,111.5585 C47.4614,108.5223 55.1773,98.0514 55.2438,86.5735 L55.2438,86.5735 L55.2438,86.2828 C55.2305,84.1624 54.9588,82.0116 54.4002,79.8665 L54.4002,79.8665 L38.691,19.532 C35.651,7.8489 25.1307,0.1026 13.6129,0.1026 L13.6129,0.1026 C11.4488,0.1026 9.2467,0.3781 7.0541,0.95" id="path-19"></path>
        <linearGradient x1="47.7150638%" y1="16.0645132%" x2="55.4643184%" y2="90.6761027%" id="linearGradient-21">
            <stop stop-color="#FFFFFF" offset="0%"></stop>
            <stop stop-color="#E6E6E6" offset="100%"></stop>
        </linearGradient>
        <polygon id="path-22" points="0 0.79553 54.7752586 0.79553 54.7752586 114 0 114"></polygon>
        <polygon id="path-24" points="0.325170968 0.783920455 103.622 0.783920455 103.622 103.976707 0.325170968 103.976707"></polygon>
        <polygon id="path-26" points="0.000159887325 0.726136364 101.444906 0.726136364 101.444906 48.4246023 0.000159887325 48.4246023"></polygon>
    </defs>
    <g id="Model" stroke="none" stroke-width="1" fill="none" fill-rule="evenodd">
        <g id="Desktop-HD-Copy-2" transform="translate(-299.000000, -164.000000)">
            <g id="Group" transform="translate(291.743873, 163.000000)">
                <g id="Group-138" filter="url(#filter-1)" transform="translate(384.756127, 600.000000) rotate(-180.000000) translate(-384.756127, -600.000000) translate(109.256127, 494.000000)">
                    <g id="Group-3">
                        <mask id="mask-3" fill="white">
                            <use xlink:href="#path-2"></use>
                        </mask>
                        <g id="Clip-2"></g>
                        <path d="M543.605869,0.626100579 L7.10521723,0.62816678 C3.1945618,0.62816678 0,3.64482097 0,7.32059343 L0,7.32059343 L0.00412734082,205.122195 C0,208.797968 3.19868914,211.818754 7.10521723,211.818754 L7.10521723,211.818754 L543.605869,211.818754 C547.516524,211.818754 550.723468,208.797968 550.723468,205.122195 L550.723468,205.122195 L550.727596,7.31646103 C550.723468,3.64482097 547.516524,0.626100579 543.605869,0.626100579 Z" id="Fill-1" fill="url(#linearGradient-4)" mask="url(#mask-3)"></path>
                    </g>
                    <g id="Group-134" transform="translate(12.978261, 16.915888)" fill="#20364D">
                        <path d="M30.3981502,28.5699574 C30.3981502,29.527168 29.6230862,30.3052876 28.6640738,30.3052876 L2.11141668,30.3052876 C1.15447107,30.3052876 0.375273453,29.5292265 0.375273453,28.5720159 L0.379407127,2.07889674 C0.379407127,1.11756911 1.1565379,0.345625074 2.11761719,0.345625074 L28.6682075,0.345625074 C29.6210194,0.345625074 30.3981502,1.11962762 30.3981502,2.08095526 L30.3981502,28.5699574 Z" id="Fill-4"></path>
                        <path d="M85.4225227,65.0514148 C85.4225227,66.0209765 84.6536593,66.8032131 83.6822458,66.7970375 L57.1378561,66.7970375 C56.1788436,66.7970375 55.4099802,66.0209765 55.4099802,65.0514148 L55.4099802,38.5541786 C55.4099802,37.6113776 56.1788436,36.833258 57.1337224,36.833258 L83.6822458,36.833258 C84.6536593,36.833258 85.4225227,37.6113776 85.4225227,38.5541786 L85.4225227,65.0514148 Z" id="Fill-6"></path>
                        <path d="M94.0774034,101.548723 C94.0774034,102.51005 93.3023394,103.27376 92.343327,103.27376 L65.7948035,103.27376 C64.8523258,103.27376 64.0586603,102.51005 64.0565935,101.548723 L64.0565935,75.0411939 C64.0565935,74.1086855 64.8481921,73.3243904 65.7906699,73.3243904 L92.343327,73.3202734 C93.3002726,73.3243904 94.0774034,74.1086855 94.0774034,75.0411939 L94.0774034,101.548723 Z" id="Fill-8"></path>
                        <path d="M76.180247,138.031209 C76.180247,138.982244 75.4010493,139.764481 74.4482374,139.764481 L47.899714,139.764481 C46.9531025,139.762422 46.1718381,138.982244 46.1718381,138.031209 L46.1718381,111.53809 C46.1718381,110.587055 46.9531025,109.798643 47.899714,109.798643 L74.4482374,109.798643 C75.4031162,109.798643 76.180247,110.587055 76.180247,111.53809 L76.180247,138.031209 Z" id="Fill-10"></path>
                        <path d="M30.3981502,179.130127 C30.400217,180.085279 29.6210194,180.86134 28.6682075,180.859282 L2.11348351,180.859282 C1.15447107,180.859282 0.375273453,180.085279 0.379407127,179.12601 L0.375273453,148.017695 C0.379407127,147.081069 1.15447107,146.28854 2.11348351,146.28854 L28.6640738,146.28854 C29.6230862,146.28854 30.3981502,147.081069 30.3981502,148.017695 L30.3981502,179.130127 Z" id="Fill-12"></path>
                        <path d="M66.8462036,179.130127 C66.8482705,180.085279 66.0711397,180.86134 65.1121272,180.859282 L38.573938,180.859282 C37.621126,180.86134 36.8377947,180.085279 36.8357279,179.130127 L36.8377947,148.017695 C36.8377947,147.083128 37.621126,146.28854 38.573938,146.28854 L65.1100604,146.28854 C66.0711397,146.28854 66.8482705,147.083128 66.8482705,148.017695 L66.8462036,179.130127 Z" id="Fill-14"></path>
                        <path d="M103.315545,179.126216 C103.313479,180.085485 102.534281,180.859488 101.573202,180.859488 L75.028812,180.859488 C74.0718664,180.861546 73.2968024,180.085485 73.2947356,179.130333 L73.2968024,148.017901 C73.2968024,147.083334 74.0718664,146.288746 75.0267451,146.288746 L101.575269,146.288746 C102.532214,146.288746 103.313479,147.083334 103.313479,148.017901 L103.315545,179.126216 Z" id="Fill-16"></path>
                        <path d="M414.720735,179.126216 C414.720735,180.085485 413.925002,180.861546 412.97219,180.861546 L386.423667,180.861546 C385.472922,180.861546 384.695791,180.085485 384.695791,179.130333 L384.695791,148.017901 C384.695791,147.081275 385.474989,146.288746 386.423667,146.288746 L412.980458,146.288746 C413.925002,146.288746 414.720735,147.081275 414.720735,148.017901 L414.720735,179.126216 Z" id="Fill-18"></path>
                        <path d="M451.263863,179.126216 C451.26593,180.085485 450.484665,180.861546 449.527719,180.859488 L422.995731,180.859488 C422.026384,180.859488 421.243053,180.085485 421.243053,179.130333 L421.243053,165.297096 C421.243053,164.360471 422.026384,163.57 422.993664,163.57 L449.527719,163.57 C450.486732,163.57 451.263863,164.360471 451.263863,165.301213 L451.263863,179.126216 Z" id="Fill-20"></path>
                        <path d="M524.376161,179.126216 C524.378228,180.085485 523.601097,180.859488 522.640017,180.859488 L496.097695,180.859488 C495.146949,180.859488 494.355351,180.087544 494.355351,179.126216 L494.355351,165.297096 C494.355351,164.354295 495.142816,163.57 496.097695,163.57 L522.640017,163.57 C523.596963,163.57 524.378228,164.354295 524.378228,165.301213 L524.376161,179.126216 Z" id="Fill-22"></path>
                        <path d="M149.287585,179.130127 C149.287585,180.085279 148.512521,180.859282 147.567976,180.859282 L111.480999,180.86134 C110.528187,180.86134 109.759324,180.085279 109.759324,179.12601 L109.759324,148.017695 C109.759324,147.083128 110.532321,146.28854 111.483066,146.28854 L147.567976,146.28854 C148.508387,146.28854 149.287585,147.081069 149.287585,148.017695 L149.287585,179.130127 Z" id="Fill-24"></path>
                        <path d="M378.155492,179.130127 C378.155492,180.085279 377.380428,180.859282 376.417282,180.86134 L340.346839,180.859282 C339.404362,180.86134 338.606562,180.085279 338.610696,179.12601 L338.606562,148.017695 C338.606562,147.083128 339.404362,146.28854 340.346839,146.28854 L376.417282,146.28854 C377.380428,146.28854 378.155492,147.081069 378.155492,148.017695 L378.155492,179.130127 Z" id="Fill-26"></path>
                        <path d="M332.07763,179.126216 C332.07763,180.085485 331.290165,180.859488 330.329086,180.859488 L157.564234,180.859488 C156.621756,180.861546 155.826024,180.085485 155.823957,179.130333 L155.823957,148.017901 C155.823957,147.081275 156.621756,146.288746 157.564234,146.288746 L330.33322,146.288746 C331.290165,146.288746 332.07763,147.081275 332.07763,148.017901 L332.07763,179.126216 Z" id="Fill-28"></path>
                        <path d="M112.733502,138.031209 C112.733502,138.982244 111.960505,139.764481 111.00976,139.762422 L84.4509026,139.764481 C83.5166922,139.764481 82.7271604,138.982244 82.7271604,138.031209 L82.7271604,111.533973 C82.7271604,110.587055 83.5166922,109.798643 84.4529694,109.798643 L111.00976,109.798643 C111.960505,109.798643 112.733502,110.587055 112.733502,111.533973 L112.733502,138.031209 Z" id="Fill-30"></path>
                        <path d="M149.287585,138.031209 C149.287585,138.982244 148.512521,139.764481 147.567976,139.764481 L121.019453,139.764481 C120.06044,139.764481 119.281243,138.982244 119.281243,138.031209 L119.281243,111.533973 C119.281243,110.587055 120.06044,109.798643 121.019453,109.798643 L147.567976,109.798643 C148.512521,109.798643 149.287585,110.587055 149.287585,111.53809 L149.287585,138.031209 Z" id="Fill-32"></path>
                        <path d="M185.847867,138.031209 C185.847867,138.982244 185.072803,139.764481 184.109657,139.762422 L157.565267,139.764481 C156.62279,139.762422 155.822924,138.982244 155.822924,138.031209 L155.822924,111.53809 C155.822924,110.587055 156.624857,109.798643 157.565267,109.798643 L184.10759,109.798643 C185.072803,109.798643 185.847867,110.587055 185.849934,111.533973 L185.847867,138.031209 Z" id="Fill-34"></path>
                        <path d="M222.402983,138.031209 C222.402983,138.982244 221.619652,139.764481 220.677174,139.764481 L194.132784,139.764481 C193.179972,139.764481 192.39044,138.982244 192.39044,138.031209 L192.39044,111.533973 C192.39044,110.587055 193.179972,109.798643 194.132784,109.798643 L220.677174,109.798643 C221.619652,109.798643 222.402983,110.587055 222.402983,111.53809 L222.402983,138.031209 Z" id="Fill-36"></path>
                        <path d="M258.961199,138.031209 C258.961199,138.982244 258.182001,139.762422 257.227122,139.764481 L230.684799,139.764481 C229.731987,139.764481 228.95279,138.982244 228.95279,138.031209 L228.956924,111.533973 C228.95279,110.587055 229.736121,109.798643 230.684799,109.798643 L257.231256,109.798643 C258.179934,109.798643 258.961199,110.587055 258.957065,111.533973 L258.961199,138.031209 Z" id="Fill-38"></path>
                        <path d="M295.514248,138.031209 C295.514248,138.982244 294.74125,139.764481 293.790505,139.762422 L267.231648,139.764481 C266.276769,139.764481 265.499638,138.982244 265.499638,138.031209 L265.499638,111.53809 C265.499638,110.587055 266.276769,109.798643 267.231648,109.798643 L293.790505,109.798643 C294.74125,109.798643 295.514248,110.587055 295.514248,111.533973 L295.514248,138.031209 Z" id="Fill-40"></path>
                        <path d="M332.07763,138.031209 C332.07763,138.982244 331.290165,139.764481 330.329086,139.764481 L303.790897,139.764481 C302.840152,139.762422 302.063021,138.982244 302.063021,138.031209 L302.063021,111.533973 C302.063021,110.587055 302.840152,109.798643 303.790897,109.798643 L330.329086,109.798643 C331.290165,109.798643 332.07763,110.587055 332.07763,111.533973 L332.07763,138.031209 Z" id="Fill-42"></path>
                        <path d="M368.632746,138.031209 C368.632746,138.982244 367.853548,139.764481 366.892469,139.764481 L340.346013,139.764481 C339.403535,139.762422 338.607802,138.982244 338.607802,138.031209 L338.607802,111.533973 C338.607802,110.587055 339.403535,109.798643 340.346013,109.798643 L366.892469,109.798643 C367.853548,109.798643 368.632746,110.587055 368.632746,111.533973 L368.632746,138.031209 Z" id="Fill-44"></path>
                        <path d="M405.183935,138.031209 C405.183935,138.982244 404.413004,139.764481 403.453992,139.762422 L376.901335,139.764481 C375.942322,139.764481 375.167258,138.982244 375.167258,138.031209 L375.167258,111.533973 C375.167258,110.587055 375.942322,109.798643 376.901335,109.798643 L403.449858,109.798643 C404.415071,109.798643 405.183935,110.587055 405.183935,111.53809 L405.183935,138.031209 Z" id="Fill-46"></path>
                        <path d="M441.745044,138.031209 C441.745044,138.982244 440.955512,139.762422 440.006834,139.762422 L413.456244,139.764481 C412.507565,139.762422 411.724234,138.982244 411.724234,138.031209 L411.724234,111.533973 C411.724234,110.587055 412.503432,109.798643 413.456244,109.798643 L440.0027,109.798643 C440.955512,109.798643 441.745044,110.587055 441.745044,111.533973 L441.745044,138.031209 Z" id="Fill-48"></path>
                        <path d="M524.07957,138.031209 C524.07957,138.982244 523.304506,139.762422 522.349627,139.762422 L450.012393,139.762422 C449.059581,139.762422 448.27625,138.982244 448.27625,138.031209 L448.27625,111.533973 C448.27625,110.587055 449.061648,109.798643 450.016526,109.798643 L522.349627,109.798643 C523.310706,109.798643 524.07957,110.587055 524.07957,111.533973 L524.07957,138.031209 Z" id="Fill-50"></path>
                        <path d="M130.624458,101.545841 C130.624458,102.511285 129.861795,103.272937 128.906917,103.272937 L102.343925,103.272937 C101.397314,103.272937 100.620183,102.511285 100.620183,101.547899 L100.620183,75.0403705 C100.620183,74.1078621 101.397314,73.323567 102.341858,73.323567 L128.906917,73.323567 C129.863862,73.323567 130.624458,74.1037451 130.624458,75.0444876 L130.624458,101.545841 Z" id="Fill-52"></path>
                        <path d="M167.189701,101.545841 C167.187635,102.511285 166.410504,103.272937 165.453558,103.272937 L138.900901,103.272937 C137.95429,103.272937 137.183359,102.511285 137.183359,101.545841 L137.183359,75.0403705 C137.183359,74.1037451 137.952223,73.323567 138.900901,73.323567 L165.453558,73.323567 C166.408437,73.323567 167.189701,74.1037451 167.187635,75.0444876 L167.189701,101.545841 Z" id="Fill-54"></path>
                        <path d="M203.734896,101.545841 C203.734896,102.511285 202.972233,103.272937 202.015288,103.272937 L175.460564,103.272937 C174.509819,103.272937 173.730621,102.511285 173.732688,101.545841 L173.730621,75.0444876 C173.732688,74.1037451 174.507752,73.323567 175.460564,73.323567 L202.015288,73.323567 C202.972233,73.323567 203.734896,74.1037451 203.734896,75.0403705 L203.734896,101.545841 Z" id="Fill-56"></path>
                        <path d="M240.299106,101.545841 C240.299106,102.50511 239.517841,103.272937 238.575364,103.272937 L212.012372,103.272937 C211.065761,103.272937 210.28863,102.511285 210.28863,101.547899 L210.28863,75.0403705 C210.28863,74.1078621 211.065761,73.323567 212.010306,73.323567 L238.575364,73.323567 C239.517841,73.323567 240.299106,74.1078621 240.299106,75.0403705 L240.299106,101.545841 Z" id="Fill-58"></path>
                        <path d="M276.850294,101.545841 C276.850294,102.511285 276.06903,103.272937 275.118285,103.272937 L248.571828,103.272937 C247.633484,103.272937 246.835685,102.511285 246.837752,101.545841 L246.837752,75.0403705 C246.837752,74.1037451 247.633484,73.31945 248.571828,73.31945 L275.118285,73.323567 C276.06903,73.323567 276.850294,74.1037451 276.850294,75.0403705 L276.850294,101.545841 Z" id="Fill-60"></path>
                        <path d="M313.407477,101.545841 C313.407477,102.511285 312.624146,103.272937 311.673401,103.272937 L285.129011,103.272937 C284.178266,103.272937 283.399068,102.511285 283.399068,101.545841 L283.399068,75.0444876 C283.399068,74.1037451 284.178266,73.31945 285.129011,73.323567 L311.673401,73.31945 C312.624146,73.31945 313.407477,74.1037451 313.407477,75.0403705 L313.407477,101.545841 Z" id="Fill-62"></path>
                        <path d="M349.960526,101.548723 C349.960526,102.51005 349.191662,103.27376 348.228516,103.27376 L321.677926,103.27376 C320.727181,103.27376 319.952117,102.51005 319.956251,101.546664 L319.956251,75.0411939 C319.956251,74.1045685 320.727181,73.3243904 321.677926,73.3243904 L348.228516,73.3243904 C349.185462,73.3243904 349.960526,74.1086855 349.960526,75.0411939 L349.960526,101.548723 Z" id="Fill-64"></path>
                        <path d="M386.519775,101.545841 C386.521842,102.50511 385.738511,103.272937 384.793966,103.272937 L358.237175,103.272937 C357.288497,103.272937 356.509299,102.50511 356.509299,101.547899 L356.509299,75.0403705 C356.509299,74.1078621 357.288497,73.323567 358.237175,73.323567 L384.793966,73.323567 C385.740577,73.323567 386.519775,74.1037451 386.521842,75.0403705 L386.519775,101.545841 Z" id="Fill-66"></path>
                        <path d="M423.080884,101.545841 C423.076751,102.511285 422.297553,103.272937 421.350942,103.272937 L394.794151,103.272937 C393.833072,103.272937 393.062141,102.50511 393.060075,101.545841 L393.062141,75.0403705 C393.060075,74.1037451 393.835138,73.31945 394.790017,73.323567 L421.350942,73.323567 C422.303754,73.323567 423.080884,74.1037451 423.080884,75.0403705 L423.080884,101.545841 Z" id="Fill-68"></path>
                        <path d="M459.628146,101.545841 C459.628146,102.50511 458.851015,103.272937 457.90027,103.272937 L431.35588,103.272937 C430.398935,103.272937 429.61767,102.50511 429.61767,101.545841 L429.61767,75.0403705 C429.621804,74.1037451 430.396868,73.31945 431.35588,73.323567 L457.90027,73.323567 C458.851015,73.323567 459.628146,74.1037451 459.628146,75.0403705 L459.628146,101.545841 Z" id="Fill-70"></path>
                        <path d="M496.191322,101.545841 C496.191322,102.50511 495.410058,103.272937 494.455179,103.272937 L467.898388,103.272937 C466.947643,103.272937 466.17878,102.50511 466.17878,101.545841 L466.17878,75.0403705 C466.180847,74.1037451 466.947643,73.31945 467.898388,73.323567 L494.46138,73.31945 C495.410058,73.323567 496.185122,74.1037451 496.191322,75.0403705 L496.191322,101.545841 Z" id="Fill-72"></path>
                        <path d="M121.975778,65.0514148 C121.975778,66.0209765 121.196581,66.7970375 120.237568,66.7970375 L93.6890447,66.7970375 C92.7403664,66.7970375 91.9570351,66.0209765 91.9549683,65.0514148 L91.9570351,38.5541786 C91.9549683,37.6113776 92.7403664,36.833258 93.6911115,36.833258 L120.237568,36.833258 C121.198647,36.833258 121.975778,37.6113776 121.975778,38.5541786 L121.975778,65.0514148 Z" id="Fill-74"></path>
                        <path d="M158.530894,65.0514148 C158.532961,66.0209765 157.751696,66.8032131 156.796817,66.7970375 L130.242093,66.7970375 C129.293415,66.7970375 128.518351,66.0209765 128.516284,65.0514148 L128.516284,38.5541786 C128.516284,37.6093191 129.293415,36.833258 130.24416,36.833258 L156.792684,36.833258 C157.751696,36.833258 158.530894,37.6113776 158.530894,38.5541786 L158.530894,65.0514148 Z" id="Fill-76"></path>
                        <path d="M195.086009,65.0514148 C195.086009,66.0209765 194.308879,66.7970375 193.349866,66.7970375 L166.799276,66.7970375 C165.856798,66.7970375 165.079667,66.0209765 165.079667,65.0514148 L165.079667,38.5541786 C165.079667,37.6113776 165.858865,36.833258 166.799276,36.833258 L193.349866,36.833258 C194.308879,36.833258 195.086009,37.6134361 195.088076,38.5541786 L195.086009,65.0514148 Z" id="Fill-78"></path>
                        <path d="M231.634098,65.0514148 C231.629964,66.0209765 230.850766,66.7970375 229.912422,66.7970375 L203.361832,66.7970375 C202.40282,66.8032131 201.625689,66.0209765 201.625689,65.0514148 L201.625689,38.5541786 C201.625689,37.6113776 202.40282,36.833258 203.361832,36.833258 L229.912422,36.833258 C230.850766,36.833258 231.634098,37.6093191 231.634098,38.5541786 L231.634098,65.0514148 Z" id="Fill-80"></path>
                        <path d="M268.193347,65.0514148 C268.195414,66.0209765 267.414149,66.7970375 266.451003,66.7970375 L239.916948,66.7970375 C238.962069,66.7970375 238.187005,66.0209765 238.187005,65.0514148 L238.187005,38.5541786 C238.187005,37.6113776 238.962069,36.833258 239.90868,36.833258 L266.451003,36.833258 C267.414149,36.833258 268.195414,37.6113776 268.193347,38.5541786 L268.193347,65.0514148 Z" id="Fill-82"></path>
                        <path d="M304.742469,65.0514148 C304.742469,66.0209765 303.979806,66.7970375 303.020793,66.7970375 L276.464003,66.8032131 C275.511191,66.7970375 274.731993,66.0209765 274.731993,65.0555318 L274.731993,38.5541786 C274.731993,37.6134361 275.509124,36.8353165 276.464003,36.833258 L303.02286,36.833258 C303.979806,36.833258 304.742469,37.6113776 304.746602,38.5541786 L304.742469,65.0514148 Z" id="Fill-84"></path>
                        <path d="M341.303578,65.0514148 C341.303578,66.0209765 340.534715,66.7970375 339.573635,66.7970375 L313.014778,66.7970375 C312.0723,66.7970375 311.293103,66.0209765 311.293103,65.0555318 L311.295169,38.5541786 C311.293103,37.6134361 312.0723,36.833258 313.016845,36.833258 L339.573635,36.833258 C340.534715,36.833258 341.303578,37.6113776 341.297378,38.5541786 L341.303578,65.0514148 Z" id="Fill-86"></path>
                        <path d="M377.862827,65.0514148 C377.862827,66.0168594 377.081563,66.7970375 376.126684,66.7970375 L349.574027,66.7970375 C348.625349,66.7970375 347.846151,66.0209765 347.846151,65.0555318 L347.846151,38.5541786 C347.846151,37.6113776 348.623282,36.833258 349.574027,36.833258 L376.126684,36.833258 C377.085697,36.833258 377.860761,37.6113776 377.860761,38.5541786 L377.862827,65.0514148 Z" id="Fill-88"></path>
                        <path d="M414.409882,65.0514148 C414.414016,66.0209765 413.630685,66.7970375 412.688207,66.7970375 L386.139684,66.7970375 C385.178604,66.7970375 384.409741,66.0209765 384.409741,65.0514148 L384.411808,38.5541786 C384.411808,37.6113776 385.178604,36.833258 386.139684,36.833258 L412.688207,36.833258 C413.630685,36.833258 414.414016,37.6113776 414.414016,38.5541786 L414.409882,65.0514148 Z" id="Fill-90"></path>
                        <path d="M450.971199,65.0514148 C450.979466,66.0209765 450.196135,66.7970375 449.235055,66.7970375 L422.682398,66.7970375 C421.746121,66.7970375 420.960723,66.0209765 420.958656,65.0514148 L420.960723,38.5541786 C420.958656,37.6093191 421.746121,36.833258 422.682398,36.833258 L449.232988,36.833258 C450.196135,36.833258 450.979466,37.6113776 450.979466,38.5541786 L450.971199,65.0514148 Z" id="Fill-92"></path>
                        <path d="M487.526314,65.0514148 C487.526314,66.0209765 486.753317,66.7970375 485.806706,66.7970375 L459.251982,66.7970375 C458.286769,66.7970375 457.513772,66.0209765 457.513772,65.0514148 L457.513772,38.5541786 C457.513772,37.6113776 458.286769,36.833258 459.247848,36.833258 L485.806706,36.833258 C486.75125,36.833258 487.526314,37.6113776 487.526314,38.5541786 L487.526314,65.0514148 Z" id="Fill-94"></path>
                        <path d="M48.8643069,65.0563552 C48.8643069,66.0197413 48.0892429,66.7978609 47.1343642,66.7978609 L2.11658377,66.7978609 C1.15550448,66.801978 0.376306871,66.0197413 0.376306871,65.0522382 L0.376306871,38.555002 C0.376306871,37.6101425 1.15550448,36.8340814 2.11451693,36.8361399 L47.1302305,36.8340814 C48.0892429,36.8340814 48.8643069,37.6142595 48.8663737,38.555002 L48.8643069,65.0563552 Z" id="Fill-96"></path>
                        <path d="M524.07957,28.5699574 C524.07957,29.527168 523.304506,30.3052876 522.349627,30.3052876 L477.32978,30.3052876 C476.391436,30.3052876 475.601904,29.527168 475.601904,28.5699574 L475.601904,2.07889674 C475.608104,1.11756911 476.391436,0.345625074 477.32978,0.345625074 L522.349627,0.345625074 C523.304506,0.345625074 524.07957,1.11756911 524.07957,2.07889674 L524.07957,28.5699574 Z" id="Fill-98"></path>
                        <path d="M57.5142271,101.548723 C57.5142271,102.51005 56.7453637,103.27376 55.7801507,103.27376 L2.11679045,103.27376 C1.15571117,103.27376 0.376513555,102.51005 0.378580392,101.546664 L0.376513555,75.045311 C0.374446718,74.1086855 1.15364433,73.3243904 2.11679045,73.3202734 L55.7801507,73.3202734 C56.7432968,73.3243904 57.5142271,74.1086855 57.5142271,75.0411939 L57.5142271,101.548723 Z" id="Fill-100"></path>
                        <path d="M39.6352589,138.031209 C39.6352589,138.982244 38.8539944,139.764481 37.8991156,139.762422 L2.11389688,139.764481 C1.15488443,139.764481 0.37568682,138.982244 0.37568682,138.031209 L0.379820494,111.533973 C0.37568682,110.587055 1.15488443,109.798643 2.11389688,109.798643 L37.894982,109.798643 C38.8539944,109.798643 39.6352589,110.587055 39.633192,111.533973 L39.6352589,138.031209 Z" id="Fill-102"></path>
                        <path d="M66.9480987,28.5699574 C66.9480987,29.527168 66.1751016,30.3052876 65.2078218,30.3052876 L38.6737662,30.3052876 C37.7230211,30.3052876 36.9396898,29.527168 36.9396898,28.5699574 L36.937623,2.07889674 C36.937623,1.11756911 37.7188874,0.347683592 38.6737662,0.345625074 L65.2098886,0.345625074 C66.1751016,0.347683592 66.9480987,1.11962762 66.9480987,2.08095526 L66.9480987,28.5699574 Z" id="Fill-104"></path>
                        <path d="M103.508381,28.5699574 C103.508381,29.527168 102.731251,30.3052876 101.772238,30.3052876 L75.2216479,30.3052876 C74.2750365,30.3052876 73.4979057,29.527168 73.4979057,28.5699574 L73.4979057,2.07889674 C73.4979057,1.11962762 74.2771033,0.345625074 75.2216479,0.347683592 L101.776372,0.345625074 C102.731251,0.345625074 103.508381,1.11962762 103.508381,2.07889674 L103.508381,28.5699574 Z" id="Fill-106"></path>
                        <path d="M140.073624,28.5730452 C140.073624,29.5281972 139.277892,30.3063168 138.327147,30.3063168 L111.772423,30.3063168 C110.823745,30.3063168 110.048681,29.5261387 110.048681,28.5709866 L110.048681,2.07786748 C110.048681,1.11859836 110.825812,0.344595816 111.772423,0.346654333 L138.323013,0.346654333 C139.277892,0.346654333 140.075691,1.11859836 140.075691,2.07786748 L140.073624,28.5730452 Z" id="Fill-108"></path>
                        <path d="M176.616752,28.5730452 C176.616752,29.5281972 175.839622,30.3063168 174.882676,30.3063168 L148.330019,30.3063168 C147.383408,30.3063168 146.595943,29.5281972 146.595943,28.5730452 L146.595943,2.07786748 C146.595943,1.1227154 147.379274,0.346654333 148.327952,0.346654333 L174.880609,0.346654333 C175.837555,0.346654333 176.620886,1.11859836 176.620886,2.07786748 L176.616752,28.5730452 Z" id="Fill-110"></path>
                        <path d="M213.160707,28.5699574 C213.160707,29.527168 212.398044,30.303229 211.436965,30.3052876 L184.882241,30.3052876 C183.931496,30.3052876 183.152298,29.5292265 183.152298,28.5720159 L183.154365,2.07889674 C183.154365,1.11756911 183.933563,0.345625074 184.882241,0.347683592 L211.439032,0.345625074 C212.398044,0.345625074 213.160707,1.11962762 213.15864,2.07889674 L213.160707,28.5699574 Z" id="Fill-112"></path>
                        <path d="M249.724917,28.5730452 C249.724917,29.5281972 248.949853,30.3063168 247.992907,30.3063168 L221.458852,30.3063168 C220.495706,30.3063168 219.720642,29.5261387 219.720642,28.5709866 L219.720642,2.07786748 C219.720642,1.11859836 220.495706,0.346654333 221.458852,0.346654333 L247.992907,0.346654333 C248.949853,0.344595816 249.724917,1.1227154 249.724917,2.07786748 L249.724917,28.5730452 Z" id="Fill-114"></path>
                        <path d="M286.268045,28.5730452 C286.268045,29.5281972 285.507449,30.3063168 284.548436,30.3063168 L258.00198,30.3063168 C257.0409,30.3063168 256.26377,29.5261387 256.26377,28.5709866 L256.26377,2.07786748 C256.26377,1.11859836 257.0409,0.346654333 258.00198,0.346654333 L284.546369,0.346654333 C285.507449,0.346654333 286.268045,1.1227154 286.268045,2.07786748 L286.268045,28.5730452 Z" id="Fill-116"></path>
                        <path d="M322.833288,28.5730452 C322.833288,29.5281972 322.056157,30.3063168 321.090944,30.3063168 L294.546554,30.3063168 C293.591676,30.3063168 292.812478,29.5261387 292.812478,28.5709866 L292.812478,2.07786748 C292.812478,1.11859836 293.591676,0.344595816 294.546554,0.346654333 L321.093011,0.346654333 C322.056157,0.346654333 322.833288,1.12065688 322.837422,2.07580896 L322.833288,28.5730452 Z" id="Fill-118"></path>
                        <path d="M359.38241,28.5668696 C359.384476,29.5261387 358.611479,30.3063168 357.658667,30.3063168 L331.116344,30.3063168 C330.151132,30.3063168 329.376068,29.5281972 329.376068,28.5730452 L329.378134,2.07786748 C329.378134,1.11859836 330.151132,0.344595816 331.116344,0.346654333 L357.658667,0.346654333 C358.611479,0.346654333 359.38241,1.11859836 359.38241,2.07786748 L359.38241,28.5668696 Z" id="Fill-120"></path>
                        <path d="M395.94972,28.5668696 C395.94972,29.5240802 395.166388,30.3063168 394.223911,30.3063168 L367.662986,30.3063168 C366.714308,30.3063168 365.937177,29.5261387 365.937177,28.5689281 L365.939244,2.07786748 C365.939244,1.11859836 366.714308,0.346654333 367.662986,0.344595816 L394.223911,0.344595816 C395.164321,0.346654333 395.94972,1.11859836 395.94972,2.07786748 L395.94972,28.5668696 Z" id="Fill-122"></path>
                        <path d="M432.506902,28.5699574 C432.506902,29.527168 431.729771,30.3052876 430.770759,30.3052876 L404.222235,30.3052876 C403.26529,30.3052876 402.481958,29.527168 402.481958,28.5699574 L402.484025,2.07889674 C402.484025,1.11756911 403.26529,0.345625074 404.222235,0.345625074 L430.770759,0.345625074 C431.729771,0.345625074 432.502768,1.11756911 432.506902,2.07889674 L432.506902,28.5699574 Z" id="Fill-124"></path>
                        <path d="M469.05003,28.5699574 C469.05003,29.527168 468.283233,30.3052876 467.332488,30.3052876 L440.76743,30.3052876 C439.820819,30.3052876 439.043688,29.527168 439.043688,28.5699574 L439.043688,2.07889674 C439.043688,1.11962762 439.822886,0.345625074 440.765363,0.345625074 L467.334555,0.345625074 C468.283233,0.345625074 469.054164,1.11756911 469.05003,2.07889674 L469.05003,28.5699574 Z" id="Fill-126"></path>
                        <path d="M457.803542,164.552736 L457.803542,179.127039 C457.803542,179.577855 457.97509,180.026611 458.309917,180.351857 C458.646812,180.691513 459.099449,180.858252 459.533485,180.86237 L486.094409,180.858252 C486.532579,180.858252 486.966615,180.691513 487.31591,180.34774 C487.654871,180.026611 487.824352,179.573738 487.824352,179.127039 L487.824352,164.548619 L457.803542,164.552736 Z" id="Fill-128"></path>
                        <path d="M487.824972,162.593645 L487.824972,148.017283 C487.824972,147.587053 487.655491,147.136238 487.31653,146.804816 C486.973435,146.463103 486.533199,146.290187 486.097096,146.290187 L459.534105,146.290187 C459.100069,146.290187 458.647432,146.463103 458.310537,146.804816 C457.97571,147.136238 457.804162,147.587053 457.804162,148.017283 L457.804162,162.593645 L487.824972,162.593645 Z" id="Fill-130"></path>
                        <path d="M495.797796,36.833258 C495.361694,36.833258 494.917324,36.9897053 494.576296,37.3396533 C494.241468,37.6731331 494.082322,38.1115973 494.082322,38.5541786 L494.082322,65.0514148 C494.082322,65.5001715 494.241468,65.9448113 494.576296,66.2885837 C494.917324,66.6179465 495.361694,66.7970375 495.797796,66.7970375 L502.729968,66.7970375 L502.729968,101.54687 C502.729968,101.993568 502.90565,102.438208 503.242544,102.767571 C503.583572,103.111343 504.017608,103.273966 504.461978,103.273966 L522.350454,103.273966 C522.801024,103.273966 523.237127,103.111343 523.580222,102.767571 C523.92125,102.438208 524.090731,101.993568 524.090731,101.54687 L524.090731,38.5541786 C524.090731,38.1115973 523.92125,37.6731331 523.580222,37.3396533 C523.237127,36.9917638 522.801024,36.833258 522.350454,36.833258 L495.797796,36.833258 Z" id="Fill-132"></path>
                    </g>
                    <g id="Group-137" transform="translate(11.978261, 6.962617)">
                        <mask id="mask-6" fill="white">
                            <use xlink:href="#path-5"></use>
                        </mask>
                        <g id="Clip-136"></g>
                        <path d="M2.17690741,0.133373832 C1.03609511,0.133373832 0.114351833,1.02319626 0.114351833,2.12402804 L0.114351833,2.12402804 C0.114351833,3.2208785 1.03609511,4.11269159 2.17690741,4.11269159 L2.17690741,4.11269159 L520.924102,4.11269159 C522.060781,4.11269159 522.986657,3.2208785 522.986657,2.12402804 L522.986657,2.12402804 C522.986657,1.02319626 522.060781,0.133373832 520.924102,0.133373832 L520.924102,0.133373832 L2.17690741,0.133373832 Z" id="Fill-135" fill="url(#linearGradient-7)" mask="url(#mask-6)"></path>
                    </g>
                </g>
                <g id="Group-121" transform="translate(376.756127, 290.500000) rotate(-180.000000) translate(-376.756127, -290.500000) translate(117.256127, 0.000000)">
                    <path d="M404.508025,360.876132 C404.508025,360.876132 409.260631,328.456813 398.971181,316.962072 C398.971181,316.962072 425.08367,285.542789 414.795847,253.126712 L100.573882,253.126712 C100.573882,253.126712 94.2414121,289.429477 117.986547,313.18722 C117.986547,313.18722 102.156999,330.844257 105.323234,364.56346 L203.466753,400.619863 L314.278466,400.619863 L404.508025,360.876132 Z" id="Fill-1" fill="#6F4D29"></path>
                    <path d="M436.621935,437.588587 C436.621935,437.588587 452.374738,489.788987 448.530168,512.40916 L261.821848,534.160959 L55.8923077,512.40916 C55.8923077,512.40916 98.2672477,329.578811 119.782833,314.914384 L402.123396,318.396042 L436.621935,437.588587 Z" id="Fill-3" fill="#A67C52"></path>
                    <path d="M354.198102,275.931823 C354.193186,275.963502 354.347219,275.998516 354.340664,276.031863 C325.312037,265.309306 292.139271,261.537821 259.366336,261.139331 L259.366336,261.099315 C259.366336,261.10265 258.306131,261.114321 257.724412,261.117656 C257.145969,261.114321 256.089042,261.10265 256.089042,261.099315 L256.089042,261.139331 C224.954754,261.536154 190.031913,265.299302 161.040975,275.975174 C160.400264,280.320218 159.164724,285.133781 159.939804,288.991967 C161.231058,295.447843 244.249819,292.276594 257.378657,291.733046 C270.533714,292.276594 353.727811,295.447843 355.025619,288.991967 C355.802337,285.120442 354.84209,280.288539 354.198102,275.931823" id="Fill-5" fill="#044561"></path>
                    <path d="M160.588581,276.10774 C160.652458,276.083822 160.718331,276.06389 160.784204,276.041966 C160.7862,276.022034 160.790192,276.004096 160.792188,275.988151 C160.798177,276.026021 160.582592,276.067877 160.588581,276.10774" id="Fill-7" fill="#044561"></path>
                    <path d="M352.460983,253.126712 L258.08874,253.126712 L254.628657,253.126712 L160.622431,253.126712 C160.622431,253.126712 158.660579,264.784151 160.435356,274.92861 C189.759025,264.506745 224.0101,260.731469 256.356258,260.474789 C288.629213,260.731469 323.195876,264.151218 352.535813,274.587432 C352.53744,274.60178 352.54232,275.038616 352.54232,275.05137 C354.336617,264.89894 352.460983,253.126712 352.460983,253.126712" id="Fill-9" fill="#25536C"></path>
                    <path d="M160.741287,276.089801 C160.737294,276.057911 160.733302,276.032 160.72931,276.006089 C160.699367,276.016055 160.669425,276.026021 160.639483,276.035986 C160.637487,276.051932 160.743283,276.073856 160.741287,276.089801" id="Fill-11" fill="#25536C"></path>
                    <path d="M133.742308,375.959161 L150.978565,284.284998 C150.978565,284.284998 259.868017,247.568757 361.351316,288.21607 L381.265385,368.566057 L245.522485,382.681507 L146.355042,382.681507 L133.742308,375.959161 Z" id="Fill-13" fill="#E83A33"></path>
                    <path d="M456.186679,389.730657 C460.261165,404.22545 450.612784,419.602507 434.489231,423.365532 C314.138715,451.503727 188.893928,451.503727 68.5417823,423.365532 C52.4231186,419.602507 42.7682184,404.222201 46.8443334,389.730657 C46.9127848,389.480438 46.9796064,389.233469 47.0513173,388.991375 C51.1306919,374.475459 66.3464497,366.046024 81.161278,369.501962 C193.212882,395.701777 309.818131,395.701777 421.869735,369.501962 C436.684563,366.046024 451.900321,374.475459 455.979696,388.991375 C456.046517,389.233469 456.116598,389.480438 456.186679,389.730657" id="Fill-15" fill="#6F4D29"></path>
                    <path d="M391.246154,93.6746575 L381.090055,68.4574928 C378.92243,63.0699895 372.64746,60.4014892 367.069709,62.5014262 L363.711916,63.7656241 C363.570109,63.8193851 363.438431,63.88455 363.3,63.9480857 L371.972188,85.4818078 L391.246154,93.6746575 Z" id="Fill-17" fill="#F9BB88"></path>
                    <path d="M395.987729,86.6257876 L373.72426,76.6168867 C371.61435,75.668864 369.370274,75.5203785 367.292308,76.0082594 L373.470304,92.251919 L403.223077,105.633562 L395.987729,86.6257876 Z" id="Fill-19" fill="#F9BB88"></path>
                    <g id="Group-23" transform="translate(380.269231, 0.996575)">
                        <mask id="mask-9" fill="white">
                            <use xlink:href="#path-8"></use>
                        </mask>
                        <g id="Clip-22"></g>
                        <path d="M4.97855336,1.11167339 C8.62715965,-0.322199212 12.7444992,1.50467288 14.1653978,5.18472664 L33.1237782,54.3047294 C34.5446768,57.9847832 32.7367058,62.1367652 29.0897327,63.5706378 C25.4362268,65.0045104 21.3221537,63.180927 19.9028883,59.5025176 L0.942874685,10.3808705 C-0.478023916,6.69917236 1.33158028,2.54719034 4.97855336,1.11167339" id="Fill-21" fill="#F9BB88" mask="url(#mask-9)"></path>
                    </g>
                    <path d="M395.423483,99.8484595 C399.128011,109.346569 409.843631,114.04912 419.350611,110.350062 L447.336016,99.4682741 C456.847909,95.7708484 461.554724,85.0701786 457.850195,75.5737013 L446.956064,47.6341514 C443.24826,38.1376741 432.534278,33.4383864 423.025661,37.1358121 L395.038618,48.0176002 C385.528362,51.7166576 380.823185,62.4124323 384.526076,71.9089096 L395.423483,99.8484595 Z" id="Fill-24" fill="#F9BB88"></path>
                    <path d="M425.645354,10.4526274 C429.240413,9.01690204 433.294108,10.8411953 434.694153,14.5292972 L446.658909,46.0279923 C448.062173,49.7210336 446.280736,53.8783805 442.685677,55.3141059 C439.08579,56.7514778 435.033704,54.9238916 433.63205,51.2308503 L421.667294,19.7321552 C420.265639,16.0440533 422.045467,11.8916457 425.645354,10.4526274" id="Fill-26" fill="#F9BB88"></path>
                    <path d="M405.852155,8.46190855 C409.58867,7.01873606 413.801652,8.85369765 415.257806,12.5566832 L434.664275,61.9419465 C436.120428,65.6416258 434.269725,69.8174033 430.533211,71.2572695 C426.798369,72.700442 422.585386,70.8654804 421.132576,67.1624949 L401.724436,17.7788847 C400.268282,14.0758991 402.117313,9.90342792 405.852155,8.46190855" id="Fill-28" fill="#F9BB88"></path>
                    <path d="M371.918079,20.4220447 C375.654309,18.9746632 379.865087,20.8166344 381.318808,24.5287618 L396.738276,63.903176 C398.191997,67.6169614 396.343934,71.8016016 392.611046,73.2489832 C388.874816,74.6963647 384.665709,72.8560514 383.210317,69.1422661 L367.787507,29.7678518 C366.335457,26.0573823 368.185191,21.8694262 371.918079,20.4220447" id="Fill-30" fill="#F9BB88"></path>
                    <path d="M473.088462,136.875724 L446.391251,67.8333412 C443.876474,61.3386777 436.616835,58.1242304 430.168731,60.656327 L411.205645,68.0914835 C404.759178,70.6202917 401.568667,77.9321317 404.081808,84.4267952 L430.780655,153.469178 L473.088462,136.875724 Z" id="Fill-32" fill="#F9BB88"></path>
                    <path d="M424.514212,19.9280822 L423.501147,17.7414294 C422.575012,15.5578456 423.750234,13.0980531 426.125754,12.2464093 C428.499602,11.3947656 431.176033,12.4765833 432.100496,14.6601671 L433.165385,17.1782704 L424.514212,19.9280822 Z" id="Fill-34" fill="#F9D4A7"></path>
                    <path d="M370.881956,31.8869863 L369.666693,29.1549377 C368.558809,26.4228891 369.966674,23.3485194 372.819901,22.2840637 C375.66631,21.2212382 378.875764,22.5725915 379.985353,25.30301 L381.265385,28.4507343 L370.881956,31.8869863 Z" id="Fill-36" fill="#F9D4A7"></path>
                    <path d="M382.860205,13.9486301 L381.642993,11.2165816 C380.536591,8.48616307 381.943034,5.41016326 384.796833,4.34570758 C387.645519,3.282882 390.853913,4.63423538 391.965428,7.36465387 L393.242308,10.5123781 L382.860205,13.9486301 Z" id="Fill-38" fill="#F9D4A7"></path>
                    <path d="M404.819192,19.9280822 L403.600427,17.1960336 C402.494164,14.463985 403.902135,11.3896153 406.753875,10.3251596 C409.602205,9.26233405 412.811903,10.6136874 413.921575,13.3441059 L415.2,16.4918302 L404.819192,19.9280822 Z" id="Fill-40" fill="#F9D4A7"></path>
                    <path d="M366.544941,73.7431507 L363.3,65.4164602 C363.40087,65.368733 363.498321,65.3193012 363.60261,65.2766877 L366.062816,64.3204393 C370.15233,62.7301011 374.753033,64.7516886 376.341311,68.8323635 L377.273077,71.2306549 C374.621389,71.7965631 369.381272,73.0545155 366.544941,73.7431507" id="Fill-42" fill="#F9D4A7"></path>
                    <polygon id="Fill-44" fill="#F9FFFF" points="424.349517 139.517123 471.092308 121.38411 463.935643 103.640411 417.196154 121.773424"></polygon>
                    <path d="M299.087228,347.698456 C299.087228,347.698456 351.727831,370.615851 394.734037,359.175108 C463.897278,340.772636 458.042517,223.188771 421.052706,136.794762 C451.384482,124.466052 473.709635,117.592466 473.709635,117.592466 C473.709635,117.592466 531.968261,257.036 516.335429,319.40592 C500.707495,381.777471 479.097452,413.865089 450.677535,440.291914 C417.19307,471.411582 330.556976,488.002209 289.010378,476.886293 C248.913593,466.167024 299.087228,347.698456 299.087228,347.698456" id="Fill-46" fill="#E83A33"></path>
                    <path d="M473.734656,117.592466 C473.734656,117.592466 466.217092,119.913592 453.993505,124.258766 C469.182018,164.618936 501.184287,258.769813 489.114086,306.951949 C473.488258,369.322009 451.890153,401.412963 423.481041,427.833319 C393.774672,455.464839 322.210144,471.622944 277.465385,467.122702 C279.932621,471.98205 283.695482,475.434357 289.137434,476.885469 C330.66108,488.003042 417.249312,471.412378 450.715279,440.291008 C479.119496,413.865755 500.717601,381.778066 516.336901,319.406374 C531.961097,257.036314 473.734656,117.592466 473.734656,117.592466" id="Fill-48" fill="#DD2828"></path>
                    <path d="M121.765385,101.64726 L130.447535,76.7217826 C132.3017,71.3951772 138.336468,68.5081539 143.932222,70.2773648 L147.299652,71.343002 C147.444327,71.3888529 147.575699,71.4457712 147.715385,71.5011085 L140.302049,92.7869763 L121.765385,101.64726 Z" id="Fill-50" fill="#F9BB88"></path>
                    <path d="M114.348372,96.0757651 L137.0486,84.8240133 C139.196707,83.7593915 141.529939,83.4911793 143.723077,83.8745747 L138.124321,100.558036 L107.792308,115.599315 L114.348372,96.0757651 Z" id="Fill-52" fill="#F9BB88"></path>
                    <path d="M121.010123,12.3173815 C117.376917,11.0852039 113.451715,13.1013464 112.247029,16.8174375 L96.1680619,66.4076958 C94.9665671,70.1221571 96.9339549,74.1397732 100.565565,75.3735806 C104.197174,76.6073881 108.122376,74.5912457 109.327062,70.8784142 L125.402839,21.2881559 C126.60912,17.5720648 124.640137,13.551189 121.010123,12.3173815" id="Fill-54" fill="#F9BB88"></path>
                    <path d="M115.503525,108.77464 C112.33326,118.567798 102.023443,123.873183 92.4787507,120.622561 L64.3821982,111.060646 C54.8358917,107.813328 49.6624199,97.2388967 52.8326847,87.4457382 L62.1546191,58.6394158 C65.3232697,48.8479089 75.6347012,43.5458278 85.1810078,46.7947978 L113.27756,56.3567129 C122.823867,59.6056829 127.99411,70.1768104 124.82546,79.9683172 L115.503525,108.77464 Z" id="Fill-56" fill="#F9BB88"></path>
                    <path d="M81.1253158,20.2900262 C77.5267302,19.0593012 73.6355125,21.0687808 72.4412566,24.7772137 L62.2339281,56.4574077 C61.0349268,60.1707179 62.9884447,64.1782966 66.5870302,65.4073958 C70.1919429,66.6413724 74.0784153,64.6286412 75.274253,60.9153309 L85.4831633,29.2351369 C86.6774192,25.526704 84.7302285,21.5223769 81.1253158,20.2900262" id="Fill-58" fill="#F9BB88"></path>
                    <path d="M101.048293,18.2983632 C97.4165772,17.0630306 93.4928562,19.0790021 92.2849438,22.7980378 L76.2086977,72.3857228 C75.0023808,76.1014989 76.9714218,80.1220339 80.6031375,81.3524774 C84.2348533,82.58781 88.1585743,80.5702087 89.3632955,76.8528028 L105.441137,27.2651178 C106.647454,23.5493416 104.680009,19.5320661 101.048293,18.2983632" id="Fill-60" fill="#F9BB88"></path>
                    <path d="M134.748452,28.2646855 C130.938186,27.0263926 126.823366,29.0498645 125.559971,32.7811009 L112.156268,72.3492187 C110.892872,76.0804551 112.954466,80.1126768 116.764732,81.3509696 C120.571651,82.5908982 124.689818,80.5674263 125.953213,76.8345541 L139.360264,37.2664363 C140.621985,33.5384716 138.557045,29.5029783 134.748452,28.2646855" id="Fill-62" fill="#F9BB88"></path>
                    <path d="M39.9230769,149.291845 L62.7389173,80.2409704 C64.884547,73.7458064 71.8658977,70.2277944 78.3317819,72.3847765 L97.3460561,78.7233333 C103.810329,80.8770864 107.312281,87.8888928 105.163429,94.3840568 L82.3491997,163.434932 L39.9230769,149.291845 Z" id="Fill-64" fill="#F9BB88"></path>
                    <path d="M82.7046739,29.8938356 L83.6009752,27.6172342 C84.4081509,25.3484616 83.0914456,22.8964962 80.6564656,22.1433702 C78.2231673,21.3886784 75.5964832,22.6193583 74.7876259,24.8896967 L73.8576923,27.506066 L82.7046739,29.8938356 Z" id="Fill-66" fill="#F9D4A7"></path>
                    <path d="M136.374046,39.859589 L137.449403,37.0154856 C138.418424,34.1763718 136.838834,31.1143868 133.91462,30.171342 C130.997266,29.2282972 127.843231,30.7667742 126.87421,33.6042247 L125.757692,36.8757753 L136.374046,39.859589 Z" id="Fill-68" fill="#F9D4A7"></path>
                    <path d="M124.397111,21.9212329 L125.472466,19.0771294 C126.441486,16.2380157 124.861898,13.1760306 121.939402,12.2329858 C119.020337,11.289941 115.866306,12.828418 114.897286,15.6658686 L113.780769,18.9374191 L124.397111,21.9212329 Z" id="Fill-70" fill="#F9D4A7"></path>
                    <path d="M102.439419,27.9006849 L103.514774,25.0565815 C104.483794,22.2174677 102.904206,19.1554827 99.9817101,18.2124379 C97.0626448,17.2693931 93.9086136,18.8078701 92.9395937,21.6453206 L91.8230769,24.9168712 L102.439419,27.9006849 Z" id="Fill-72" fill="#F9D4A7"></path>
                    <path d="M142.837535,81.7157534 L145.719231,73.1279941 C145.610817,73.0848396 145.511147,73.0399588 145.402734,73.0019828 L142.837535,72.1613318 C138.57969,70.7631237 133.986113,73.0451374 132.574991,77.253571 L131.746154,79.7289171 C134.487961,80.1639151 139.90513,81.1668273 142.837535,81.7157534" id="Fill-74" fill="#F9D4A7"></path>
                    <polygon id="Fill-76" fill="#F9FFFF" points="91.6840837 147.489726 43.9153846 131.862808 50.0411869 113.606164 97.8115385 129.233083"></polygon>
                    <path d="M221.617044,355.367525 C221.617044,355.367525 169.375976,379.429154 126.024776,368.963111 C56.2985553,352.138553 59.535698,234.617658 94.6762076,147.544618 C64.000271,135.916406 41.4810174,129.55137 41.4810174,129.55137 C41.4810174,129.55137 -13.7909848,270.066263 3.26865904,331.977444 C20.331576,393.896775 42.7035379,425.45464 71.777269,451.193508 C106.024209,481.512595 193.217581,496.136693 234.604892,484.115659 C274.547109,472.515157 221.617044,355.367525 221.617044,355.367525" id="Fill-78" fill="#E83A33"></path>
                    <g id="Group-82" transform="translate(0.000000, 129.551370)">
                        <mask id="mask-11" fill="white">
                            <use xlink:href="#path-10"></use>
                        </mask>
                        <g id="Clip-81"></g>
                        <path d="M41.2138891,0.478293033 C41.2138891,0.478293033 48.7520535,2.62653068 61.0218956,6.69936726 C46.7910901,47.3885554 17.0075361,142.245654 30.0968854,190.143518 C47.0479991,252.15021 69.2787547,283.759993 98.1631273,309.53558 C128.371069,336.497921 200.022654,351.044233 244.500425,345.551208 C242.154099,350.458201 238.479325,353.993978 233.090741,355.570876 C191.970672,367.609822 105.340318,352.963934 71.3145143,322.599673 C42.4285157,296.822453 20.2010121,265.217568 3.24664641,203.205978 C-13.7012153,141.202551 41.2138891,0.478293033 41.2138891,0.478293033" id="Fill-80" fill="#DD2828" mask="url(#mask-11)"></path>
                    </g>
                    <path d="M252.513462,538.14726 C184.820909,538.14726 129.75,477.864793 129.75,403.768272 C129.75,388.213237 132.158411,372.967059 136.903193,358.457262 L141.941045,360.832213 C137.446764,374.584496 135.167696,389.030896 135.167696,403.768272 C135.167696,474.282047 187.807272,531.64825 252.513462,531.64825 C317.219651,531.64825 369.865776,474.282047 369.865776,403.768272 C369.865776,386.340585 366.697676,369.446084 360.471173,353.561059 L365.36822,350.791096 C371.941823,367.547424 375.276923,385.373374 375.276923,403.768272 C375.276923,477.864793 320.20274,538.14726 252.513462,538.14726" id="Fill-83" fill="#E6E7E8"></path>
                    <polygon id="Fill-85" fill="#E6E7E8" points="359.307692 360.754458 356.066281 364.743151 353.319231 355.346234 357.315764 354.777397"></polygon>
                    <path d="M325.373077,340.307791 C327.856727,339.35746 330.499936,338.832192 333.241459,338.832192 C347.640503,338.832192 359.307692,352.983718 359.307692,370.440392 C359.307692,384.616161 351.60854,396.618129 341.008304,400.619863 C339.664135,389.401756 335.484964,361.549626 325.373077,340.307791" id="Fill-87" fill="#E2DBC7"></path>
                    <path d="M351.323077,353.286909 C351.323077,351.014911 351.092144,348.804454 350.696735,346.645557 C345.82057,340.60131 339.0172,336.839041 331.487804,336.839041 C328.660127,336.839041 325.937117,337.38126 323.376923,338.357587 C330.09224,352.448632 334.265639,369.342251 336.754394,382.681507 C345.591299,375.93038 351.323077,365.295566 351.323077,353.286909" id="Fill-89" fill="#F9F1E4"></path>
                    <path d="M359.704424,355.183457 C362.529797,362.403861 366.887817,379.514022 364.704861,383.79076 C362.529797,388.070707 364.704861,376.573564 357.311538,354.379764 C357.961848,350.369319 359.704424,355.183457 359.704424,355.183457" id="Fill-91" fill="#E6E7E8"></path>
                    <path d="M361.303846,365.407595 C361.303846,365.407595 367.616727,362.979869 372.797144,367.405532 C377.974349,371.829535 382.184543,415.76921 376.676434,420.302734 C372.644543,421.65018 373.389881,417.081808 373.389881,417.081808 C373.389881,417.081808 374.732773,393.856622 370.193282,377.449977 C366.015215,377.332158 363.384045,374.750107 363.384045,374.750107 L361.303846,365.407595 Z" id="Fill-93" fill="#E6E7E8"></path>
                    <polygon id="Fill-95" fill="#E6E7E8" points="145.719231 366.736643 148.964941 370.722603 151.707692 361.327492 147.716591 360.756849"></polygon>
                    <path d="M163.684615,404.823403 C163.684615,404.823403 164.154285,407.239695 168.160998,406.435339 C172.160879,405.629371 170.039678,395.957757 175.689382,376.882109 C181.340794,357.806461 186.281723,352.166298 185.574656,347.867266 C184.871005,343.569845 179.689263,344.377425 178.046272,346.792104 C177.224777,347.989773 171.752693,361.987823 168.391563,376.077753 C164.979197,390.404638 163.684615,404.823403 163.684615,404.823403" id="Fill-97" fill="#E6E7E8"></path>
                    <path d="M339.346154,398.842449 C339.346154,398.842449 338.876399,401.260325 334.877508,400.455978 C330.871784,399.65002 332.986533,389.978517 327.337523,370.903091 C321.690221,351.827665 316.74328,346.187567 317.457306,341.888584 C318.159376,337.589601 323.335215,338.398784 324.98021,340.811823 C325.801853,342.012702 331.274919,356.007366 334.645193,370.097132 C338.05134,384.425463 339.346154,398.842449 339.346154,398.842449" id="Fill-99" fill="#E6E7E8"></path>
                    <path d="M179.653846,344.294092 C177.168703,343.338912 174.522396,342.818493 171.779391,342.818493 C157.38909,342.818493 145.719231,356.971636 145.719231,374.425077 C145.719231,388.604079 153.416406,400.601198 164.022585,404.606164 C165.368301,393.388058 169.537605,365.532695 179.653846,344.294092" id="Fill-101" fill="#E2DBC7"></path>
                    <path d="M153.766162,352.571213 C153.752688,352.96823 153.703846,353.35879 153.703846,353.755807 C153.703846,365.648541 159.755225,376.154947 169.033557,382.681507 C171.625562,370.601561 175.627253,356.378373 181.65,344.291972 C179.052943,343.338165 176.289149,342.818493 173.420933,342.818493 C165.690393,342.818493 158.721118,346.570781 153.766162,352.571213" id="Fill-103" fill="#F9F1E4"></path>
                    <path d="M145.324051,361.159927 C142.497067,368.379093 138.143734,385.491724 140.318823,389.771888 C142.497067,394.047238 140.318823,382.549513 147.715385,360.361006 C147.065068,356.348754 145.324051,361.159927 145.324051,361.159927" id="Fill-105" fill="#E6E7E8"></path>
                    <path d="M141.726923,372.906558 C141.726923,372.906558 135.523956,371.463894 131.010614,376.512405 C126.495738,381.560916 126.495738,424.835952 132.140101,428.443422 C136.090234,429.16232 134.962282,424.832706 134.962282,424.832706 C134.962282,424.832706 131.576892,402.478725 134.397539,385.885661 C138.344603,385.166763 140.598971,382.281436 140.598971,382.281436 L141.726923,372.906558 Z" id="Fill-107" fill="#E6E7E8"></path>
                    <path d="M362.99358,426.157696 C358.607197,362.996204 308.272878,315.082225 250.559536,319.140597 C192.847821,323.203875 149.623872,377.694316 154.010255,440.859078 C158.396639,504.02057 208.730958,551.932915 266.4443,547.872907 C324.157643,543.814534 367.379964,489.319189 362.99358,426.157696" id="Fill-109" fill="#5E4836"></path>
                    <path d="M253.569798,549.449426 C253.569798,549.449426 237.2057,554.031809 258.317887,580.003425 C279.433386,566.763306 265.475627,540.609925 257.940292,544.521054 C250.403301,548.428993 253.569798,549.449426 253.569798,549.449426" id="Fill-111" fill="#5E4836"></path>
                    <path d="M247.526797,545.834618 C247.526797,545.834618 246.995179,552.099315 258.642597,552.099315 C270.293337,552.099315 271.884868,548.681721 273.473077,544.126712 C260.765746,545.834618 247.526797,545.834618 247.526797,545.834618" id="Fill-113" fill="#EDB458"></path>
                    <path d="M278.604587,544.536915 C297.393413,521.635743 307.837838,495.090722 309.403846,446.16764 C307.837838,471.671328 302.096352,507.581826 273.908199,545.576618 C283.826799,525.797815 296.875778,474.272216 294.264672,419.622618 C293.221212,445.127937 287.481365,518.511745 266.07488,542.974101 C268.681072,524.23826 276.519305,449.290008 272.861463,412.336549 C271.295455,434.714609 270.251995,495.090722 258.765749,542.974101 C257.19974,528.921813 257.19974,394.640411 257.19974,394.640411 C257.19974,394.640411 251.456617,483.11947 253.022625,542.974101 C235.272345,499.775904 228.4874,455.534745 229.530859,410.775364 C225.874655,435.755942 223.263549,473.230883 242.584753,540.371584 C216.480242,517.991893 210.212932,476.873103 207.605102,447.207343 C207.175924,519.989818 233.940582,542.40536 243.451299,548.073209 C253.731916,550.628467 267.042988,551.193948 279.443286,547.304024 C300.125737,532.894848 307.837838,507.581826 307.837838,507.581826 C307.837838,507.581826 303.662361,519.553078 278.604587,544.536915" id="Fill-115" fill="#775B46"></path>
                    <path d="M251.515385,261.099315 L251.515385,261.20753 C287.38379,261.359032 319.290368,264.749265 349.217661,275.05137 C349.220922,275.021997 349.018755,274.987987 349.026907,274.96016 C349.026907,274.947792 349.330158,274.930787 349.326897,274.916874 C319.397973,264.617861 287.38379,261.236903 251.515385,261.099315" id="Fill-117" fill="#25536C"></path>
                    <polygon id="Fill-119" fill="#F2F2F2" points="61.2682904 137.523973 67.8692308 119.676967 49.990094 113.606164 43.9153846 131.677511"></polygon>
                </g>
                <g id="Group-113" filter="url(#filter-12)" transform="translate(395.820264, 451.857031) rotate(-165.000000) translate(-395.820264, -451.857031) translate(289.820264, 346.857031)">
                    <g id="Group-3" transform="translate(0.000000, 27.000000)">
                        <mask id="mask-14" fill="white">
                            <use xlink:href="#path-13"></use>
                        </mask>
                        <g id="Clip-2"></g>
                        <polygon id="Fill-1" fill="url(#linearGradient-15)" mask="url(#mask-14)" points="0 22.0438095 30.9566265 183 144.168434 161.002362 113.213554 0.0426666667"></polygon>
                    </g>
                    <g id="Group-52" transform="translate(13.000000, 27.000000)">
                        <path d="M72.5170253,93.3126898 C72.2707453,95.3257918 71.6157453,97.221302 70.579972,98.9026898 L83.1524787,110.881261 C87.321772,105.563302 89.7705987,98.9307714 89.8282387,91.8963224 L72.5170253,93.3126898 Z" id="Fill-4" fill="#A6DAE9"></path>
                        <path d="M59.015292,77.6384 C65.0133453,77.7226449 70.3249587,81.7664 72.0559053,87.6617878 L89.344412,86.2366449 C89.3094787,86.0435837 89.297252,85.8540327 89.2570787,85.6557061 C86.179452,69.6807673 71.5039587,58.9430531 55.7280653,60.5612571 L59.015292,77.6384 Z" id="Fill-6" fill="#F99B1C"></path>
                        <path d="M47.0453853,84.3674612 C48.524812,81.8962776 50.725612,79.8814204 53.4888387,78.7177878 L50.1981187,61.6371347 C41.319812,64.2224 34.3890387,70.5495429 30.7105587,78.5387673 L47.0453853,84.3674612 Z" id="Fill-8" fill="#15B0BF"></path>
                        <path d="M66.7303187,103.033498 C65.1915053,104.118151 63.4238787,104.911457 61.4658653,105.295824 C53.9604387,106.75958 46.6873187,101.810192 45.2323453,94.2544776 C44.935412,92.7064776 44.9651053,91.1918245 45.1642253,89.7192939 L28.832892,83.8818245 C27.7342387,88.2186816 27.5001853,92.8503959 28.403212,97.5382735 C31.6607453,114.462722 47.9187187,125.5146 64.726892,122.230804 C70.3371853,121.137376 75.2837453,118.566151 79.278372,115.005049 L66.7303187,103.033498 Z" id="Fill-10" fill="#4C8EB4"></path>
                        <polygon id="Fill-12" fill="#F99B1C" points="15.5252133 32.0469918 1.36149333 34.8095224 0.563266667 30.6587061 14.72524 27.8944204"></polygon>
                        <polygon id="Fill-14" fill="#15B0BF" points="17.3459387 41.5038327 3.18221867 44.2698735 2.383992 40.1190571 16.5459653 37.3530163"></polygon>
                        <polygon id="Fill-16" fill="#A6DAE9" points="19.1668387 50.9631306 5.00835867 53.7274163 4.20663867 49.5783551 18.368612 46.8105592"></polygon>
                        <polygon id="Fill-18" fill="#4C8EB4" points="20.9877387 60.420849 6.82576533 63.1886449 6.02753867 59.0343184 20.189512 56.2700327"></polygon>
                        <polygon id="Fill-20" fill="#CCCCCC" points="25.2546707 30.8968735 91.193084 18.0232 90.297044 13.3528735 24.356884 26.2300571"></polygon>
                        <polygon id="Fill-22" fill="#CCCCCC" points="27.9412187 44.8494082 93.879632 31.9774898 92.9818453 27.3089184 27.0451787 40.1825918"></polygon>
                        <polygon id="Fill-24" fill="#CCCCCC" points="30.6284653 58.8045755 96.5686253 45.9291469 95.6708387 41.2658408 29.7306787 54.1395143"></polygon>
                        <polygon id="Fill-26" fill="#CCCCCC" points="29.2852787 51.8234816 95.2219453 38.9515633 94.3259053 34.286502 28.387492 47.1636857"></polygon>
                        <polygon id="Fill-28" fill="#CCCCCC" points="26.596984 37.8700694 92.5353973 24.9963959 91.6393573 20.3330898 25.700944 33.2102735"></polygon>
                        <polygon id="Fill-30" fill="#CCCCCC" points="29.8763507 166.728784 26.8808173 167.316743 20.704604 135.249273 23.7001373 134.663069"></polygon>
                        <polygon id="Fill-32" fill="#CCCCCC" points="27.4608853 170.331482 26.8792453 167.316216 116.567085 149.807318 117.148725 152.822584"></polygon>
                        <polygon id="Fill-34" fill="#15B0BF" points="43.0282267 149.369771 34.9988 150.933567 37.7463067 165.199037 45.77224 163.626465"></polygon>
                        <polygon id="Fill-36" fill="#A6DAE9" points="41.655172 142.236159 33.6205053 143.806976 34.9986253 150.93269 43.028052 149.368894"></polygon>
                        <polygon id="Fill-38" fill="#15B0BF" points="56.8157147 140.268514 48.7845413 141.837576 52.7180347 162.270473 60.749208 160.706678"></polygon>
                        <polygon id="Fill-40" fill="#A6DAE9" points="56.0243 136.180706 47.9948733 137.749767 48.7843667 141.8374 56.81554 140.268339"></polygon>
                        <polygon id="Fill-42" fill="#15B0BF" points="73.7237973 147.403706 65.6908773 148.976278 67.6925573 159.352441 75.721984 157.779869"></polygon>
                        <polygon id="Fill-44" fill="#A6DAE9" points="72.28926 139.956633 64.2580867 141.522184 65.6921 148.976102 73.7232733 147.403531"></polygon>
                        <polygon id="Fill-46" fill="#15B0BF" points="89.5485973 148.915551 81.5191707 150.484612 82.6667307 156.425633 90.692664 154.860082"></polygon>
                        <polygon id="Fill-48" fill="#A6DAE9" points="88.4050547 142.974882 80.3721347 144.542188 81.5196947 150.483208 89.5491213 148.915902"></polygon>
                        <polygon id="Fill-50" fill="#000000" points="45.2653573 137.23131 129.278277 152.709555 99.9639707 0.0420040816 69.098624 6.05322857"></polygon>
                    </g>
                    <g id="Group-55" transform="translate(69.000000, 0.000000)">
                        <mask id="mask-17" fill="white">
                            <use xlink:href="#path-16"></use>
                        </mask>
                        <g id="Clip-54"></g>
                        <polygon id="Fill-53" fill="url(#linearGradient-18)" mask="url(#mask-17)" points="29.8932683 0.435 0.66302439 159.972 113.622244 180.61325 142.850732 21.0745"></polygon>
                    </g>
                    <g id="Group-112" transform="translate(84.000000, 32.000000)">
                        <polygon id="Fill-56" fill="#4C8EB4" points="14.8681687 53.3526795 24.568691 55.1376658 22.9446612 64.0135014 13.2406463 62.2285151"></polygon>
                        <polygon id="Fill-58" fill="#609DC1" points="26.7731806 51.5855781 36.4754493 53.3723178 34.159897 66.0793863 24.4628672 64.2979068"></polygon>
                        <polygon id="Fill-60" fill="#73ACCD" points="39.6024925 44.7447671 49.3065075 46.5244932 45.377403 68.1442192 35.6768806 66.3592329"></polygon>
                        <polygon id="Fill-62" fill="#87BBDA" points="50.2779567 49.8056767 59.9802254 51.590663 56.5959567 70.208526 46.8954343 68.4235397"></polygon>
                        <polygon id="Fill-64" fill="#9ACAE6" points="59.8073448 61.1694466 69.5078672 62.9544329 67.810494 72.2738849 58.1082254 70.4888986"></polygon>
                        <polygon id="Fill-66" fill="#73ACCD" points="71.3805657 59.6506301 81.0810881 61.4356164 78.7463269 74.2671781 69.0475507 72.4821918"></polygon>
                        <polygon id="Fill-68" fill="#87BBDA" points="83.6472299 55.9263562 93.3512448 57.7130959 89.9634836 76.3309589 80.2629612 74.547726"></polygon>
                        <polygon id="Fill-70" fill="#9ACAE6" points="97.0912284 45.6882849 106.791751 47.4732712 101.18099 78.4001753 91.4787209 76.6134356"></polygon>
                        <polygon id="Fill-72" fill="#CCCCCC" points="7.0288194 74.6806356 49.113894 82.4290192 48.6039836 85.2432658 6.51541642 77.4948822"></polygon>
                        <polygon id="Fill-74" fill="#CCCCCC" points="6.13088806 79.6061808 48.2212015 87.3545644 47.7077985 90.1653041 5.62097761 82.418674"></polygon>
                        <polygon id="Fill-76" fill="#CCCCCC" points="5.23557612 84.5290959 47.3241433 92.275726 46.8142328 95.0899726 4.72566567 87.3450959"></polygon>
                        <polygon id="Fill-78" fill="#CCCCCC" points="4.34288358 89.4562192 46.4314507 97.2010959 45.9163015 100.015342 3.8294806 92.2704658"></polygon>
                        <polygon id="Fill-80" fill="#CCCCCC" points="3.44669851 94.3775562 45.5317731 102.12594 45.023609 104.936679 2.93504179 97.1918027"></polygon>
                        <polygon id="Fill-82" fill="#CCCCCC" points="2.5496403 99.3022247 44.6399537 107.050608 44.1300433 109.863101 2.03972985 102.116471"></polygon>
                        <polygon id="Fill-84" fill="#CCCCCC" points="1.65607463 104.224263 43.7463881 111.976153 43.2312388 114.7904 1.14267164 107.042016"></polygon>
                        <polygon id="Fill-86" fill="#CCCCCC" points="0.759016418 109.15314 21.8050463 113.026455 21.2933896 115.838948 0.24910597 111.967386"></polygon>
                        <polygon id="Fill-88" fill="#CCCCCC" points="56.6464239 83.8151014 98.734991 91.5634849 98.2250806 94.3777315 56.1347672 86.6311014"></polygon>
                        <polygon id="Fill-90" fill="#CCCCCC" points="55.7512866 88.7395945 97.8416 96.4879781 97.3247045 99.3022247 55.2413761 91.5520877"></polygon>
                        <polygon id="Fill-92" fill="#CCCCCC" points="54.8559746 93.664263 96.9462881 101.412647 96.4311388 104.226893 54.3460642 96.4785096"></polygon>
                        <polygon id="Fill-94" fill="#CCCCCC" points="53.9622343 98.5873534 96.0508015 106.333984 95.5391448 109.15349 53.4505776 101.4016"></polygon>
                        <polygon id="Fill-96" fill="#CCCCCC" points="53.0662239 103.512723 95.1530448 111.261107 94.6413881 114.071847 52.5563134 106.325216"></polygon>
                        <polygon id="Fill-98" fill="#CCCCCC" points="52.1700388 108.438268 94.258606 116.184899 93.7469493 118.997392 51.6548896 111.252515"></polygon>
                        <polygon id="Fill-100" fill="#CCCCCC" points="51.2756 113.362937 93.3624209 121.107814 92.8525104 123.920307 50.7639433 116.17543"></polygon>
                        <polygon id="Fill-102" fill="#CCCCCC" points="50.3794149 118.285852 80.0031164 123.739003 79.4949522 126.555003 49.8677582 121.098345"></polygon>
                        <polygon id="Fill-104" fill="#FEC00F" points="22.3853313 24.4374795 20.4452269 20.4449315 56.7850776 2.55123288 75.0091373 20.690411 112.412466 3.88383562 114.212869 7.93775342 74.0486896 25.9910137 55.910197 7.92723288"></polygon>
                        <polygon id="Fill-106" fill="#FEC00F" points="113.127388 15.660011 109.652313 15.020011 111.047582 7.30494247 103.379716 5.89694247 104.011866 2.39710685 115.161791 4.44510685"></polygon>
                        <path d="M79.1825448,23.3484274 C79.6645149,20.6884822 77.9130075,18.1407562 75.2743955,17.656811 C72.6340373,17.1728658 70.1019478,18.9350575 69.6217239,21.5914959 C69.1415,24.2479342 70.8930075,26.7939068 73.5316194,27.2813589 C76.1684851,27.7635507 78.7040672,26.0031123 79.1825448,23.3484274" id="Fill-108" fill="#15B0BF"></path>
                        <path d="M61.2022642,6.12751781 C61.6789955,3.46932603 59.9309806,0.925106849 57.2888761,0.441161644 C54.6520104,-0.0445369863 52.1199209,1.71765479 51.6379507,4.37409315 C51.1559806,7.03228493 52.9074881,9.58001096 55.5461,10.0639562 C58.1882045,10.5479014 60.720294,8.78570959 61.2022642,6.12751781" id="Fill-110" fill="#15B0BF"></path>
                    </g>
                </g>
                <g id="Group-12" transform="translate(55.000000, 414.118242) rotate(-195.000000) translate(-55.000000, -414.118242) translate(14.000000, 355.618242)">
                    <g id="Group-3" transform="translate(26.000000, 0.000000)">
                        <mask id="mask-20" fill="white">
                            <use xlink:href="#path-19"></use>
                        </mask>
                        <g id="Clip-2"></g>
                        <path d="M7.0541,0.95 L0.3775,2.6942 L29.1739,113.3027 L35.8467,111.5585 C47.4614,108.5223 55.1773,98.0514 55.2438,86.5735 L55.2438,86.5735 L55.2438,86.2828 C55.2305,84.1624 54.9588,82.0116 54.4002,79.8665 L54.4002,79.8665 L38.691,19.532 C35.651,7.8489 25.1307,0.1026 13.6129,0.1026 L13.6129,0.1026 C11.4488,0.1026 9.2467,0.3781 7.0541,0.95" id="Fill-1" fill="url(#linearGradient-21)" mask="url(#mask-20)"></path>
                    </g>
                    <g id="Group-11" transform="translate(0.000000, 2.000000)">
                        <g id="Group-6">
                            <mask id="mask-23" fill="white">
                                <use xlink:href="#path-22"></use>
                            </mask>
                            <g id="Clip-5"></g>
                            <path d="M19.349569,2.54543 L26.0292241,0.79553 L54.7752586,111.40213 L48.0918103,113.15393 C34.2735345,116.77153 20.1271552,108.45523 16.5218103,94.57953 L0.843017241,34.24693 C-2.76232759,20.36933 5.52939655,6.16493 19.349569,2.54543" id="Fill-4" fill="#E6E7E8" mask="url(#mask-23)"></path>
                        </g>
                        <path d="M41.309931,25.29166 L42.7133793,30.69716 C43.9176897,35.32366 41.1392414,40.05846 36.5476897,41.27256 L30.7878621,19.10146 C35.3775172,17.89876 40.1094138,20.66896 41.309931,25.29166" id="Fill-7" fill="#103754"></path>
                        <path d="M30.7880517,19.10184 L30.7880517,19.10184 L36.5478793,41.27294 C31.9297759,42.48324 27.2225345,39.69974 26.0201207,35.06944 L24.6166724,29.66584 C23.4123621,25.04124 26.1680517,20.31214 30.7880517,19.10184" id="Fill-9" fill="#0E303F"></path>
                    </g>
                </g>
                <g id="Group-48" transform="translate(744.756127, 525.000000) rotate(-194.000000) translate(-744.756127, -525.000000) translate(692.256127, 450.000000)">
                    <g id="Group-47">
                        <g id="Group-3" transform="translate(1.000000, 45.296761)">
                            <mask id="mask-25" fill="white">
                                <use xlink:href="#path-24"></use>
                            </mask>
                            <g id="Clip-2"></g>
                            <path d="M0.325170968,4.10607955 L100.44559,0.783920455 L103.620461,96.1788068 C103.654655,97.3583523 103.244332,98.5651705 102.365558,99.4992614 C101.486784,100.431648 100.320784,100.919148 99.1359774,100.960057 L8.28884839,103.973693 C7.11088065,104.016307 5.90897742,103.607216 4.97207419,102.73108 C4.03688065,101.858352 3.53936452,100.68392 3.49662258,99.5009659 L0.325170968,4.10607955 Z" id="Fill-1" fill="#617B93" mask="url(#mask-25)"></path>
                        </g>
                        <polygon id="Fill-4" fill="#FFFFFF" points="88.7842323 46.4998295 1.32568387 49.4026705 4.11929677 133.332784"></polygon>
                        <path d="M56.8980645,69.0409091 C56.9083226,69.4909091 57.2912903,69.8420455 57.7323871,69.8267045 L91.0847742,68.7204545 C91.5344194,68.7068182 91.8797742,68.3301136 91.8660968,67.8801136 L91.5104839,57.1568182 C91.4933871,56.71875 91.1189677,56.3659091 90.6761613,56.3795455 L57.3237742,57.4875 C56.8809677,57.5011364 56.5270645,57.8778409 56.5407419,58.3193182 L56.8980645,69.0409091 Z" id="Fill-6" fill="#21D8DE"></path>
                        <path d="M34.2682613,69.7932955 C34.2836484,70.2415909 34.6649065,70.5927273 35.1077129,70.5756818 L45.8308097,70.2228409 C46.2736161,70.2057955 46.6275194,69.8325 46.6155516,69.3825 L46.258229,58.6592045 C46.2411323,58.2211364 45.8581645,57.8682955 45.4204871,57.8819318 L34.7008097,58.2398864 C34.2562935,58.2518182 33.9023903,58.6302273 33.9143581,59.07 L34.2682613,69.7932955 Z" id="Fill-8" fill="#E64717"></path>
                        <path d="M11.6517935,70.5415909 C11.6620516,70.9932955 12.0347613,71.3461364 12.4792774,71.3307955 L23.2092129,70.9711364 C23.6468903,70.9592045 23.9956645,70.5825 23.9819871,70.1325 L23.6246645,59.4109091 C23.6126968,58.9728409 23.2399871,58.6182955 22.7988903,58.6319318 L12.0723742,58.9898864 C11.622729,59.0018182 11.2790839,59.3836364 11.2927613,59.8217045 L11.6517935,70.5415909 Z" id="Fill-10" fill="#F2F9FF"></path>
                        <path d="M80.284229,90.9020455 C80.2979065,91.3452273 80.6671968,91.6946591 81.1117129,91.6810227 L91.838229,91.3213636 C92.2878742,91.3060227 92.6349387,90.9361364 92.6212613,90.4929545 L92.262229,79.7713636 C92.2451323,79.3264773 91.8792613,78.9753409 91.4296161,78.9906818 L80.7013903,79.3469318 C80.2551645,79.3605682 79.9098097,79.7338636 79.9234871,80.1821591 L80.284229,90.9020455 Z" id="Fill-12" fill="#F2F9FF"></path>
                        <path d="M57.6477581,91.6552841 C57.6614355,92.0950568 58.0426935,92.4444886 58.480371,92.4325568 L69.2120161,92.0763068 C69.6548226,92.0592614 70.0070161,91.6859659 69.9967581,91.2444886 L69.6411452,80.5246023 C69.6223387,80.0780114 69.2445,79.7251705 68.7999839,79.7422159 L58.0768871,80.0967614 C57.632371,80.1138068 57.2750484,80.4871023 57.2921452,80.9353977 L57.6477581,91.6552841 Z" id="Fill-14" fill="#F2F9FF"></path>
                        <path d="M35.0212032,92.4051136 C35.0383,92.8465909 35.414429,93.1960227 35.8606548,93.1823864 L46.5854613,92.8261364 C47.0248484,92.8090909 47.3804613,92.4392045 47.3684935,91.9943182 L47.0094613,81.2761364 C46.9957839,80.8278409 46.6179452,80.4784091 46.1751387,80.49375 L35.4520419,80.8482955 C35.0041065,80.8636364 34.6467839,81.2369318 34.6655903,81.6852273 L35.0212032,92.4051136 Z" id="Fill-16" fill="#F2F9FF"></path>
                        <path d="M12.4064452,93.1559659 C12.4115742,93.6008523 12.7859935,93.9485795 13.2305097,93.9349432 L23.9621548,93.5769886 C24.4015419,93.5599432 24.7503161,93.1900568 24.734929,92.746875 L24.3758968,82.0269886 C24.3622194,81.5803977 23.9860903,81.2292614 23.5484129,81.2463068 L12.8218968,81.5991477 C12.3722516,81.6144886 12.0320258,81.9894886 12.0457032,82.4360795 L12.4064452,93.1559659 Z" id="Fill-18" fill="#F2F9FF"></path>
                        <path d="M81.0289645,113.508068 C81.0460613,113.952955 81.4204806,114.304091 81.8649968,114.28875 L92.5915129,113.930795 C93.0343194,113.917159 93.3865129,113.542159 93.3642871,113.100682 L93.0103839,102.380795 C92.9932871,101.934205 92.6274161,101.584773 92.1794806,101.600114 L81.4563839,101.958068 C81.0118677,101.97 80.6630935,102.343295 80.6733516,102.789886 L81.0289645,113.508068 Z" id="Fill-20" fill="#F2F9FF"></path>
                        <path d="M58.3974516,114.260455 C58.4145484,114.703636 58.7992258,115.054773 59.2420323,115.041136 L69.96,114.684886 C70.4079355,114.669545 70.7618387,114.292841 70.749871,113.849659 L70.3908387,103.129773 C70.3771613,102.686591 69.9976129,102.335455 69.5496774,102.349091 L58.8282903,102.707045 C58.3837742,102.724091 58.029871,103.095682 58.0435484,103.540568 L58.3974516,114.260455 Z" id="Fill-22" fill="#F2F9FF"></path>
                        <path d="M35.7741452,115.010455 C35.7861129,115.453636 36.1656613,115.804773 36.6118871,115.791136 L47.3366935,115.436591 C47.7777903,115.419545 48.1316935,115.042841 48.1145968,114.599659 L47.7641129,103.881477 C47.7470161,103.436591 47.3674677,103.088864 46.926371,103.1025 L36.2032742,103.460455 C35.7604677,103.474091 35.4014355,103.847386 35.4185323,104.292273 L35.7741452,115.010455 Z" id="Fill-24" fill="#20364D"></path>
                        <path d="M81.7836161,136.115795 C81.7955839,136.560682 82.1717129,136.908409 82.616229,136.894773 L93.3410355,136.538523 C93.788971,136.526591 94.1360355,136.151591 94.1206484,135.706705 L93.7616161,124.993636 C93.7496484,124.54875 93.3735194,124.190795 92.9324226,124.207841 L82.2076161,124.562386 C81.757971,124.577727 81.4160355,124.957841 81.4297129,125.401023 L81.7836161,136.115795 Z" id="Fill-26" fill="#F2F9FF"></path>
                        <path d="M59.1503935,136.866477 C59.1657806,137.313068 59.5470387,137.659091 59.9932645,137.647159 L70.7129419,137.289205 C71.1608774,137.275568 71.5113613,136.902273 71.4976839,136.459091 L71.1437806,125.742614 C71.1283935,125.301136 70.7539742,124.941477 70.3060387,124.956818 L59.5846516,125.313068 C59.1384258,125.326705 58.7828129,125.711932 58.7999097,126.153409 L59.1503935,136.866477 Z" id="Fill-28" fill="#F2F9FF"></path>
                        <path d="M36.5255484,137.618011 C36.5392258,138.062898 36.9221935,138.414034 37.3667097,138.395284 L48.0880968,138.040739 C48.5291935,138.027102 48.8848065,137.653807 48.8677097,137.20892 L48.5155161,126.494148 C48.4967097,126.050966 48.118871,125.694716 47.6794839,125.708352 L36.9563871,126.064602 C36.511871,126.078239 36.1596774,126.463466 36.1699355,126.903239 L36.5255484,137.618011 Z" id="Fill-30" fill="#20364D"></path>
                        <path d="M13.9024129,138.369716 C13.922929,138.814602 14.293929,139.164034 14.7367355,139.148693 L25.4649613,138.792443 C25.9043484,138.775398 26.2565419,138.405511 26.2360258,137.960625 L25.8838323,127.245852 C25.8684452,126.80267 25.4940258,126.444716 25.052929,126.460057 L14.3281226,126.814602 C13.8818968,126.829943 13.5314129,127.211761 13.5485097,127.653239 L13.9024129,138.369716 Z" id="Fill-32" fill="#20364D"></path>
                        <path d="M13.1527194,115.761989 C13.1698161,116.20517 13.5356871,116.558011 13.9853323,116.54267 L24.7067194,116.188125 C25.1512355,116.17108 25.5017194,115.79608 25.4880419,115.351193 L25.1273,104.633011 C25.1153323,104.18642 24.7426226,103.838693 24.2998161,103.854034 L13.5750097,104.210284 C13.1270742,104.225625 12.7800097,104.59892 12.7971065,105.043807 L13.1527194,115.761989 Z" id="Fill-34" fill="#20364D"></path>
                        <g id="Group-38" transform="translate(0.000000, 0.978580)">
                            <mask id="mask-27" fill="white">
                                <use xlink:href="#path-26"></use>
                            </mask>
                            <g id="Clip-37"></g>
                            <path d="M0.00290645161,8.533125 C-0.0381258065,7.34505682 0.380745161,6.14846591 1.24926129,5.21096591 C2.13316452,4.27517045 3.30258387,3.78426136 4.48055161,3.74335227 L95.3276806,0.728011364 C96.5073581,0.687102273 97.710971,1.10301136 98.6410355,1.98085227 C99.5830677,2.851875 100.082294,4.02119318 100.119906,5.20926136 L101.444906,45.1024432 L1.3244871,48.4246023 L0.00290645161,8.533125 Z" id="Fill-36" fill="#365772" mask="url(#mask-27)"></path>
                        </g>
                        <path d="M90.0765774,38.4422727 C90.810029,38.4167045 91.488771,38.1132955 91.9914161,37.5763636 C92.4940613,37.0411364 92.7453839,36.3525 92.7248677,35.6195455 L91.9606419,12.5740909 C91.9298677,11.8428409 91.6255452,11.1644318 91.0938355,10.6684091 C90.5587065,10.1740909 89.8611581,9.90818182 89.1328355,9.93375 L10.5235774,12.54 C9.79183548,12.5638636 9.11309355,12.8757955 8.61044839,13.4144318 C8.11806129,13.9377273 7.85135161,14.6365909 7.8752871,15.3644318 L8.64293226,38.4115909 C8.6702871,39.1445455 8.97973871,39.8144318 9.50973871,40.3189773 C10.0363194,40.8115909 10.7372871,41.0757955 11.4724484,41.0519318 L90.0765774,38.4422727 Z" id="Fill-39" fill="#2F4F6B"></path>
                        <path d="M89.1983161,11.8563068 C89.4034774,11.8494886 89.6120581,11.9227841 89.7693484,12.0710795 C89.9403161,12.2261932 90.020671,12.4341477 90.0275097,12.6369886 L90.7934452,35.6824432 C90.8019935,35.8869886 90.7318968,36.1017614 90.5763161,36.2636932 C90.4275742,36.4307386 90.2224129,36.5108523 90.0121226,36.5176705 L11.4148323,39.1273295 C11.2045419,39.1341477 10.9993806,39.0642614 10.8318323,38.9125568 C10.6711226,38.7591477 10.583929,38.5494886 10.5805097,38.3483523 L9.81286452,15.3011932 C9.80773548,15.0983523 9.87612258,14.8835795 10.0248645,14.7216477 C10.1804452,14.5563068 10.3821871,14.4710795 10.5890581,14.4659659 L89.1983161,11.8563068 Z" id="Fill-41" fill="#A2D7E7"></path>
                        <path d="M89.1983161,11.8563068 C89.4034774,11.8494886 89.6120581,11.9227841 89.7693484,12.0710795 C89.9403161,12.2261932 90.020671,12.4341477 90.0275097,12.6369886 L90.7934452,35.6824432 C90.8019935,35.8869886 90.7318968,36.1017614 90.5763161,36.2636932 C90.4275742,36.4307386 90.2224129,36.5108523 90.0121226,36.5176705 L9.81286452,15.3011932 C9.80773548,15.0983523 9.87612258,14.8835795 10.0248645,14.7216477 C10.1804452,14.5563068 10.3821871,14.4710795 10.5890581,14.4659659 L89.1983161,11.8563068 Z" id="Fill-43" fill="#FFFFFF"></path>
                        <polygon id="Fill-45" fill="#2F4F6B" points="1.32517097 49.4028409 101.44559 46.0806818 101.382332 44.1494318 1.26020323 47.4767045"></polygon>
                    </g>
                </g>
            </g>
        </g>
    </g>
</svg>