<?xml version="1.0" encoding="UTF-8"?>
<svg width="746px" height="352px" viewBox="0 0 746 352" version="1.1" xmlns="http://www.w3.org/2000/svg" xmlns:xlink="http://www.w3.org/1999/xlink">
    <!-- Generator: Sketch 54.1 (76490) - https://sketchapp.com -->
    <title>Group 2</title>
    <desc>Created with Sketch.</desc>
    <defs>
        <polygon id="path-1" points="0 97.9978097 29.9884381 97.9978097 29.9884381 0.000561320755 0 0.000561320755"></polygon>
        <polygon id="path-3" points="1.33375343e-05 0.315985527 11.9720176 0.315985527 11.9720176 5.97396094 1.33375343e-05 5.97396094"></polygon>
        <polygon id="path-5" points="0.16133262 0.315985527 12.134262 0.315985527 12.134262 5.97396094 0.16133262 5.97396094"></polygon>
        <polygon id="path-7" points="-0.00015882353 0.00480608282 13.4009588 0.00480608282 13.4009588 10.5301058 -0.00015882353 10.5301058"></polygon>
        <polygon id="path-9" points="0 97.6108956 29.9551176 97.6108956 29.9551176 0.699239392 0 0.699239392"></polygon>
        <polygon id="path-11" points="0.892055496 0.316644511 13.0958592 0.316644511 13.0958592 5.97941673 0.892055496 5.97941673"></polygon>
        <polygon id="path-13" points="0.113431202 0.316644511 12.317235 0.316644511 12.317235 5.97941673 0.113431202 5.97941673"></polygon>
        <polygon id="path-15" points="0.233963782 0.455599806 18.8071931 0.455599806 18.8071931 28.6872307 0.233963782 28.6872307"></polygon>
        <polygon id="path-17" points="0 0.224836652 29.2932139 0.224836652 29.2932139 27.2070869 0 27.2070869"></polygon>
        <polygon id="path-19" points="0.436260006 0.702290432 5.57296798 0.702290432 5.57296798 22.2247512 0.436260006 22.2247512"></polygon>
        <polygon id="path-21" points="0.000195690475 0.319537588 11.9722 0.319537588 11.9722 6.04111552 0.000195690475 6.04111552"></polygon>
        <polygon id="path-23" points="0.165162032 0.319537588 12.1378548 0.319537588 12.1378548 6.04111552 0.165162032 6.04111552"></polygon>
        <polygon id="path-25" points="0 0.355712049 41.2172727 0.355712049 41.2172727 13.1605938 0 13.1605938"></polygon>
        <polygon id="path-27" points="0.127487774 0.188825911 13.7679423 0.188825911 13.7679423 11.5101327 0.127487774 11.5101327"></polygon>
        <polygon id="path-29" points="0 104.647091 41.2172727 104.647091 41.2172727 0.716001697 0 0.716001697"></polygon>
        <polygon id="path-31" points="0.000381818182 0.348826148 41.2172727 0.348826148 41.2172727 12.9461479 0.000381818182 12.9461479"></polygon>
        <polygon id="path-33" points="0.323472094 0.0272434511 17.9433124 0.0272434511 17.9433124 20.4080492 0.323472094 20.4080492"></polygon>
    </defs>
    <g id="Model" stroke="none" stroke-width="1" fill="none" fill-rule="evenodd">
        <g id="Desktop-HD-Copy" transform="translate(-628.000000, -21.000000)">
            <g id="Group-2" transform="translate(628.000000, 21.000000)">
                <g id="Group-22" transform="translate(0.000000, 246.000000)">
                    <path d="M11.9851521,94.492923 L11.9851521,97.9974355 L1.37318458,97.9974355 C0.255943205,97.9974355 -0.397606491,96.6933003 0.26872211,95.7764764 C1.07926978,94.6613192 2.5926572,93.359055 5.41496957,92.4553286 L10.7054361,92.275706 L11.9851521,94.492923 Z" id="Fill-1" fill="#32303C"></path>
                    <path d="M18.0036511,94.492923 L18.0036511,97.9974355 L28.6156187,97.9974355 C29.73286,97.9974355 30.3864097,96.6933003 29.7200811,95.7764764 C28.9095335,94.6613192 27.396146,93.359055 24.5738337,92.4553286 L19.2815416,92.275706 L18.0036511,94.492923 Z" id="Fill-3" fill="#32303C"></path>
                    <polygon id="Fill-5" fill="#00517E" points="5.97888438 45.9364324 5.41478702 92.4549544 11.9849696 94.4925487 14.9204665 58.1694827 17.9947059 94.4925487 24.426146 92.4549544 23.8638742 45.9364324"></polygon>
                    <path d="M5.63312373,49.0465236 L24.2921501,49.0465236 L24.2921501,31.6998412 L29.5789655,31.7859104 L29.4164909,26.7546053 C28.9363692,24.3427972 27.1747059,22.4137248 24.858073,21.7607217 L17.3312982,19.6426714 L14.9617241,20.6268538 L12.5939757,19.6426714 L5.0635497,21.7607217 C2.75056795,22.4137248 0.987079108,24.3427972 0.506957404,26.7546053 L0.203914807,31.7260362 L5.63312373,31.6998412 L5.63312373,49.0465236 Z" id="Fill-7" fill="#F05A3D"></path>
                    <mask id="mask-2" fill="white">
                        <use xlink:href="#path-1"></use>
                    </mask>
                    <g id="Clip-10"></g>
                    <polygon id="Fill-9" fill="#F2F2F2" mask="url(#mask-2)" points="5.6336714 37.1543821 24.2926978 37.1543821 24.2926978 31.8817091 5.6336714 31.8817091"></polygon>
                    <path d="M15.2581947,0.000374213836 L14.7634686,0.000374213836 C11.2328398,0.000374213836 8.3448073,2.90614465 8.30281947,6.52479245 L8.30281947,6.66325157 L8.30281947,10.6448868 L21.7188438,10.6448868 L21.7188438,6.66325157 C21.7188438,6.6314434 21.7170183,6.59776415 21.7170183,6.56595597 C21.7024138,2.93046855 18.8052535,0.000374213836 15.2581947,0.000374213836" id="Fill-11" fill="#32303C" mask="url(#mask-2)"></path>
                    <path d="M18.3762475,14.8061447 L11.6837525,14.8061447 L11.6837525,19.9515849 L11.7257404,19.9852642 C13.6845639,21.4877327 16.3754361,21.4877327 18.3342596,19.9852642 L18.3762475,19.9515849 L18.3762475,14.8061447 Z" id="Fill-12" fill="#F8A771" mask="url(#mask-2)"></path>
                    <path d="M11.7496552,10.5908129 C11.7496552,9.6010173 10.9646653,8.79645755 9.99894523,8.79645755 C9.03322515,8.79645755 8.25006085,9.6010173 8.25006085,10.5908129 C8.25006085,11.5806085 9.03322515,12.3832972 9.99894523,12.3832972 C10.9646653,12.3832972 11.7496552,11.5806085 11.7496552,10.5908129" id="Fill-13" fill="#F8A771" mask="url(#mask-2)"></path>
                    <path d="M21.8117647,10.5908129 C21.8117647,9.6010173 21.0267748,8.79645755 20.0610548,8.79645755 C19.0953347,8.79645755 18.3121704,9.6010173 18.3121704,10.5908129 C18.3121704,11.5806085 19.0953347,12.3832972 20.0610548,12.3832972 C21.0267748,12.3832972 21.8117647,11.5806085 21.8117647,10.5908129" id="Fill-14" fill="#F8A771" mask="url(#mask-2)"></path>
                    <polygon id="Fill-15" fill="#F6BA8E" mask="url(#mask-2)" points="1.72697769 51.0695236 5.63549696 51.0695236 5.63549696 31.7002154 1.72697769 31.7002154"></polygon>
                    <path d="M5.61340771,51.0270503 L1.72862069,51.0270503 L1.72862069,53.7326164 C1.79068966,55.1003679 2.39494929,56.3670818 2.87324544,57.1697704 C3.18724138,57.699283 3.79880325,57.9032296 4.33551724,57.6787013 C4.75904665,57.4298491 4.9343002,56.8573019 4.72983773,56.374566 L4.46513185,55.725305 C4.35742394,55.4596132 4.2898783,55.1789528 4.26979716,54.8908082 C4.23511156,54.4454937 4.19494929,53.803717 4.22780933,53.6914528 C4.28257606,53.5137013 4.76087221,53.2405252 4.76087221,53.2405252 L4.92882353,55.5101321 C4.95985801,55.8787327 5.23916836,56.1593931 5.57507099,56.1593931 C5.93653144,56.157522 6.22679513,55.8263428 6.21401623,55.427805 C6.19028398,54.6064057 6.15194726,53.3247233 6.11726166,52.8214057 C6.07892495,52.2675692 5.77770791,51.4461698 5.61340771,51.0270503" id="Fill-16" fill="#F6BA8E" mask="url(#mask-2)"></path>
                    <polygon id="Fill-17" fill="#F6BA8E" mask="url(#mask-2)" points="24.2853955 51.0695236 28.1920892 51.0695236 28.1920892 31.7002154 24.2853955 31.7002154"></polygon>
                    <path d="M24.3076673,51.0270503 L28.1924544,51.0270503 L28.1924544,53.7326164 C28.1285598,55.1003679 27.5261258,56.3670818 27.0478296,57.1697704 C26.7320081,57.699283 26.1204462,57.9032296 25.5855578,57.6787013 C25.1602028,57.4298491 24.9849493,56.8573019 25.1894118,56.374566 L25.4559432,55.725305 C25.5618256,55.4596132 25.6293712,55.1789528 25.6512779,54.8908082 C25.6859635,54.4454937 25.7243002,53.803717 25.6914402,53.6914528 C25.638499,53.5137013 25.1602028,53.2405252 25.1602028,53.2405252 L24.990426,55.5101321 C24.961217,55.8787327 24.6819067,56.1593931 24.3460041,56.1593931 C23.9845436,56.157522 23.6942799,55.8263428 23.7052333,55.427805 C23.7289655,54.6064057 23.7673022,53.3247233 23.8038134,52.8214057 C23.8421501,52.2675692 24.1415416,51.4461698 24.3076673,51.0270503" id="Fill-18" fill="#F6BA8E" mask="url(#mask-2)"></path>
                    <path d="M18.9003651,6.60019654 L19.1413387,7.77897013 C18.4275456,7.41411164 17.4253144,6.5421934 17.4253144,6.5421934 L17.7502637,7.62741352 C16.6768357,7.35797956 15.1890061,6.4448978 15.1890061,6.4448978 L15.3551318,7.37294811 C14.2123327,7.03054245 12.1859635,5.22496069 12.1859635,5.22496069 C11.5433671,6.3232783 10.0190264,7.92117138 10.0190264,7.92117138 L10.0190264,12.8907311 C10.0190264,15.7291431 12.2626369,18.026816 15.0301826,18.026816 C17.7977282,18.026816 20.0413387,15.7291431 20.0413387,12.8907311 L20.0413387,9.32447327 L20.0413387,8.81367138 L20.0413387,7.23261792 L18.9003651,6.60019654 Z" id="Fill-19" fill="#F6BA8E" mask="url(#mask-2)"></path>
                    <path d="M20.2784787,6.49429403 L19.5336511,6.42693553 C19.4770588,8.28490723 19.4168154,13.1908506 19.4168154,13.1908506 C19.4168154,13.1908506 19.2160041,14.2480047 18.6792901,14.9533978 C18.2794929,14.0085079 17.8030223,13.093555 17.4214807,13.0130991 L15.2490669,13.0130991 L14.9770588,13.0130991 L12.804645,13.0130991 C12.392069,13.1010393 11.8663083,14.1656777 11.4482556,15.1891525 C10.7545436,14.5174387 10.5007911,13.1908506 10.5007911,13.1908506 C10.5007911,13.1908506 10.4405477,7.54583491 10.3839554,5.68412107 L9.75778905,8.18199843 L9.75778905,12.7904418 C9.75778905,14.120772 10.2379108,15.3350959 11.0302028,16.2612752 L11.0429817,16.2481777 C11.0411562,16.2556619 11.0393306,16.2631462 11.0375051,16.2687594 C11.9794929,17.3689481 13.3614402,18.0649858 14.9040365,18.0649858 L15.1322312,18.0649858 C16.6510953,18.0649858 18.0074848,17.3839167 18.9494726,16.3136651 L18.9549493,16.3192783 C18.9951116,16.2762437 19.0279716,16.2257248 19.0681339,16.1808192 C19.088215,16.1564953 19.1101217,16.1321714 19.1302028,16.1097186 C19.1302028,16.1078475 19.1283773,16.1059764 19.1283773,16.1041053 C19.8458215,15.1985079 20.2784787,14.0478003 20.2784787,12.7904418 L20.2784787,6.49429403 Z" id="Fill-20" fill="#32303C" mask="url(#mask-2)"></path>
                    <path d="M17.7024341,15.9445031 C17.5983773,16.1147704 17.0689655,16.3860755 17.0689655,16.3860755 C17.0689655,16.3860755 15.9663286,15.9445031 15.0133874,15.9445031 C14.0622718,15.9445031 12.9559838,16.3860755 12.9559838,16.3860755 C12.9559838,16.3860755 12.4283976,16.1147704 12.3279919,15.9445031 C12.1655172,15.6806824 12.4667343,14.9996132 12.7423935,14.481327 C12.9578093,14.0790472 13.3703854,13.8264528 13.8194726,13.8245818 C14.1535497,13.8227107 14.5442191,13.8208396 14.8308316,13.8208396 L14.8308316,13.8189686 L15.015213,13.8189686 L15.1995943,13.8189686 L15.1995943,13.8208396 C15.4862069,13.8208396 15.8750507,13.8227107 16.2109533,13.8245818 C16.658215,13.8264528 17.0689655,14.0790472 17.2862069,14.481327 C17.5636917,14.9996132 17.8649087,15.6806824 17.7024341,15.9445031" id="Fill-21" fill="#F6BA8E" mask="url(#mask-2)"></path>
                </g>
                <g id="Group-29" transform="translate(633.000000, 254.000000)">
                    <g id="Group-3" transform="translate(0.000000, 91.636935)">
                        <mask id="mask-4" fill="white">
                            <use xlink:href="#path-3"></use>
                        </mask>
                        <g id="Clip-2"></g>
                        <path d="M11.9720176,2.50864066 L11.9720176,5.97433101 L1.37184118,5.97433101 C0.255841176,5.97433101 -0.398805882,4.68279238 0.268605882,3.77797519 C1.07825294,2.67332109 2.58995882,1.38733348 5.40913529,0.491768006 L10.6937235,0.315985527 L11.9720176,2.50864066 Z" id="Fill-1" fill="#32303C" mask="url(#mask-4)"></path>
                    </g>
                    <g id="Group-6" transform="translate(17.820856, 91.636935)">
                        <mask id="mask-6" fill="white">
                            <use xlink:href="#path-5"></use>
                        </mask>
                        <g id="Clip-5"></g>
                        <path d="M0.16133262,2.50864066 L0.16133262,5.97433101 L10.7633326,5.97433101 C11.8793326,5.97433101 12.5321561,4.68279238 11.8665679,3.77797519 C11.0550973,2.67332109 9.54339144,1.38733348 6.7260385,0.491768006 L1.43962674,0.315985527 L0.16133262,2.50864066 Z" id="Fill-4" fill="#32303C" mask="url(#mask-6)"></path>
                    </g>
                    <polygon id="Fill-7" fill="#DEE2E5" points="5.97260588 46.126983 5.40913529 92.1283326 11.9720176 94.1452053 14.9042529 58.2226679 17.9750765 94.1452053 24.3993706 92.1283326 23.8377235 46.126983"></polygon>
                    <path d="M5.62704706,49.2007709 L24.2653412,49.2007709 L24.2653412,32.0481017 L29.5462824,32.1313671 L29.3839882,27.1576481 C28.9044,24.7725574 27.1446941,22.8648549 24.8306353,22.2190856 L17.3122235,20.1244986 L14.9452824,21.7509491 L12.5783412,20.1244986 L5.05810588,22.2190856 C2.74587059,22.8648549 0.986164706,24.7725574 0.504752941,27.1576481 L0.203870588,32.0721561 L5.62704706,32.0481017 L5.62704706,49.2007709 Z" id="Fill-9" fill="#7BCBC2"></path>
                    <g id="Group-13" transform="translate(8.294118, 0.694433)">
                        <mask id="mask-8" fill="white">
                            <use xlink:href="#path-7"></use>
                        </mask>
                        <g id="Clip-12"></g>
                        <path d="M6.94748824,0.0035108435 L6.45331176,0.0035108435 C2.92660588,0.0035108435 0.0417823529,2.87894213 -0.00015882353,6.45750334 L-0.00015882353,6.59442864 L-0.00015882353,10.5301058 L13.4009588,10.5301058 L13.4009588,6.59442864 C13.4009588,6.56112248 13.3991353,6.52966667 13.3991353,6.49821086 C13.3827235,2.90299658 10.4906059,0.0035108435 6.94748824,0.0035108435" id="Fill-11" fill="#32303C" mask="url(#mask-8)"></path>
                    </g>
                    <path d="M18.3561941,15.3415498 L11.6711353,15.3415498 L11.6711353,20.4281397 L13.0551941,21.4809842 C14.2149588,22.3654476 15.8105471,22.3654476 16.9721353,21.4809842 L18.3561941,20.4281397 L18.3561941,15.3415498 Z" id="Fill-14" fill="#F8A771"></path>
                    <path d="M11.7369647,11.1710643 C11.7369647,10.1922334 10.9528471,9.39843673 9.9882,9.39843673 C9.02355294,9.39843673 8.24125882,10.1922334 8.24125882,11.1710643 C8.24125882,12.1517455 9.02355294,12.9455421 9.9882,12.9455421 C10.9528471,12.9455421 11.7369647,12.1517455 11.7369647,11.1710643" id="Fill-16" fill="#F8A771"></path>
                    <path d="M21.7877118,11.1710643 C21.7877118,10.1922334 21.0035941,9.39843673 20.0389471,9.39843673 C19.0743,9.39843673 18.2920059,10.1922334 18.2920059,11.1710643 C18.2920059,12.1517455 19.0743,12.9455421 20.0389471,12.9455421 C21.0035941,12.9455421 21.7877118,12.1517455 21.7877118,11.1710643" id="Fill-18" fill="#F8A771"></path>
                    <path d="M15.0136647,18.5272835 L15.0136647,18.5272835 C12.2491941,18.5272835 10.0080765,16.2532133 10.0080765,13.448095 L10.0080765,7.85081078 L20.0192529,7.85081078 L20.0192529,13.448095 C20.0192529,16.2532133 17.7799588,18.5272835 15.0136647,18.5272835" id="Fill-20" fill="#F6BA8E"></path>
                    <path d="M10.0078941,7.85173595 C10.0078941,7.85173595 13.7917176,7.50202133 17.0503647,5.63872705 C17.0503647,5.63872705 18.5675412,7.31143612 20.0190706,7.85173595 L20.0190706,12.2796041 L12.5535412,12.2796041 L10.0078941,7.85173595 Z" id="Fill-22" fill="#F6BA8E"></path>
                    <mask id="mask-10" fill="white">
                        <use xlink:href="#path-9"></use>
                    </mask>
                    <g id="Clip-25"></g>
                    <polygon id="Fill-24" fill="#F6BA8E" mask="url(#mask-10)" points="1.72505882 51.2043211 5.62923529 51.2043211 5.62923529 32.0477316 1.72505882 32.0477316"></polygon>
                    <path d="M5.60753529,51.1612082 L1.72524118,51.1612082 L1.72524118,53.8368025 C1.78906471,55.1894025 2.39265294,56.4420839 2.87041765,57.2358806 C3.18406471,57.757677 3.79494706,57.9612146 4.33106471,57.7373232 C4.75412353,57.4930781 4.92918235,56.9250231 4.72494706,56.4494853 L4.46053529,55.8074166 C4.35294706,55.5428178 4.28547647,55.2671168 4.26541765,54.9821642 C4.23077059,54.5417828 4.19065294,53.9052652 4.22347647,53.7942447 C4.27818235,53.6203125 4.75594706,53.3501626 4.75594706,53.3501626 L4.92371176,55.592777 C4.95471176,55.9572943 5.23371176,56.236696 5.56741765,56.2348456 C5.9303,56.2348456 6.21841765,55.9073351 6.20747647,55.5113619 C6.18377059,54.6990619 6.14547647,53.433428 6.11082941,52.935686 C6.07253529,52.3879848 5.77165294,51.5738344 5.60753529,51.1612082" id="Fill-26" fill="#F6BA8E" mask="url(#mask-10)"></path>
                    <polygon id="Fill-27" fill="#F6BA8E" mask="url(#mask-10)" points="24.2602353 51.2043211 28.1625882 51.2043211 28.1625882 32.0477316 24.2602353 32.0477316"></polygon>
                    <path d="M24.2808412,51.1612082 L28.1613118,51.1612082 L28.1613118,53.8368025 C28.0974882,55.1894025 27.4957235,56.4420839 27.0179588,57.2358806 C26.7024882,57.757677 26.0916059,57.9612146 25.5573118,57.7373232 C25.1324294,57.4930781 24.9573706,56.9250231 25.1616059,56.4494853 L25.4278412,55.8074166 C25.5336059,55.5428178 25.6010765,55.2671168 25.6211353,54.9821642 C25.6557824,54.5417828 25.6959,53.9052652 25.6630765,53.7942447 C25.6101941,53.6203125 25.1324294,53.3501626 25.1324294,53.3501626 L24.9628412,55.592777 C24.9336647,55.9572943 24.6546647,56.236696 24.3191353,56.2348456 C23.9580765,56.2348456 23.6681353,55.9073351 23.6790765,55.5113619 C23.7027824,54.6990619 23.7410765,53.433428 23.7775471,52.935686 C23.8140176,52.3879848 24.1149,51.5738344 24.2808412,51.1612082" id="Fill-28" fill="#F6BA8E" mask="url(#mask-10)"></path>
                </g>
                <g id="Group-52" transform="translate(500.000000, 53.000000)">
                    <g id="Group-3" transform="translate(14.870690, 92.421988)">
                        <mask id="mask-12" fill="white">
                            <use xlink:href="#path-11"></use>
                        </mask>
                        <g id="Clip-2"></g>
                        <path d="M0.892055496,2.51130211 L0.892055496,5.98015754 L11.6974704,5.98015754 C12.8350781,5.98015754 13.5024003,4.68743939 12.8220663,3.77994385 C11.996743,2.67613294 8.77352101,1.97791697 5.89976024,1.08338565 L2.19509968,0.316644511 L0.892055496,2.51130211 Z" id="Fill-1" fill="#F05A3D" mask="url(#mask-12)"></path>
                    </g>
                    <g id="Group-6" transform="translate(1.143899, 92.421988)">
                        <mask id="mask-14" fill="white">
                            <use xlink:href="#path-13"></use>
                        </mask>
                        <g id="Clip-5"></g>
                        <path d="M12.317235,2.51130211 L12.317235,5.98015754 L1.51182008,5.98015754 C0.374212326,5.98015754 -0.293109872,4.68743939 0.387224179,3.77994385 C1.21254746,2.67613294 4.43576944,1.97791697 7.30767138,1.08338565 L11.0141908,0.316644511 L12.317235,2.51130211 Z" id="Fill-4" fill="#F05A3D" mask="url(#mask-14)"></path>
                    </g>
                    <path d="M14.5520851,47.6901827 L14.6524623,47.6920347 L15.745458,47.6624022 L15.7398815,47.7216672 L23.1863793,47.9142785 C23.1863793,47.9142785 24.1120797,53.9074532 22.8629418,62.3823504 C21.4799677,71.7647431 20.3944073,93.4742591 20.3944073,93.4742591 L15.7603287,95.6152078 L14.6524623,60.7710828 L14.5520851,61.9823115 L14.5520851,47.6901827 Z" id="Fill-7" fill="#F6BA8E"></path>
                    <path d="M14.6717942,47.6901827 L14.571417,47.6920347 L13.4784213,47.6624022 L13.4839978,47.7216672 L6.0375,47.9142785 C6.0375,47.9142785 5.11179957,53.9074532 6.3609375,62.3823504 C7.74391164,71.7647431 8.82947198,93.4742591 8.82947198,93.4742591 L13.4635506,95.6152078 L14.571417,60.7710828 L14.6717942,61.9823115 L14.6717942,47.6901827 Z" id="Fill-9" fill="#F6BA8E"></path>
                    <path d="M23.8371579,63.0183381 C25.1327667,54.6508587 23.8836288,47.9150193 23.8836288,47.9150193 L15.8757624,47.720556 L15.8794801,47.663143 L14.7065544,47.6927755 L13.5317699,47.663143 L13.5373464,47.720556 L5.52762123,47.9150193 C5.52762123,47.9150193 4.15951778,54.6508587 5.45512662,63.0183381 L23.8371579,63.0183381 Z" id="Fill-11" fill="#00517E"></path>
                    <g id="Group-15" transform="translate(5.133929, 0.243723)">
                        <mask id="mask-16" fill="white">
                            <use xlink:href="#path-15"></use>
                        </mask>
                        <g id="Clip-14"></g>
                        <path d="M9.52057843,0.454858993 L9.52057843,0.454858993 C7.06133813,0.454858993 4.65786292,1.447548 3.08528748,3.33106427 C1.9718446,4.66082305 1.11492111,6.38136053 0.9606377,8.58527829 C0.663223907,12.7634619 0.402986838,18.96036 0.237550416,23.3681956 C0.129737916,26.2758854 2.46629503,28.6872307 5.38652671,28.6872307 L13.6546302,28.6872307 C16.5748618,28.6872307 18.911419,26.2758854 18.8036065,23.3681956 C18.63817,18.96036 18.377933,12.7634619 18.082378,8.58527829 C17.9262358,6.38136053 17.0693123,4.66082305 15.9577282,3.33106427 C14.383294,1.447548 11.9798187,0.454858993 9.52057843,0.454858993" id="Fill-13" fill="#C76828" mask="url(#mask-16)"></path>
                    </g>
                    <polygon id="Fill-16" fill="#F6BA8E" points="5.13707974 32.7781788 1.15731142 30.0519881 1.15731142 51.9504112 5.13707974 51.9504112"></polygon>
                    <path d="M5.11533136,51.9098518 L1.15972791,51.9098518 L1.15972791,54.5878896 C1.22292834,55.9398728 1.83820313,57.1955503 2.32521821,57.9882199 C2.64493804,58.5123449 3.26764817,58.7142163 3.81228718,58.4919725 C4.24725485,58.2475043 4.42384429,57.6789306 4.21565463,57.2029584 L3.94612338,56.5603034 C3.83645205,56.2954629 3.76767511,56.0195102 3.74722791,55.7342973 C3.71191002,55.2916617 3.67101563,54.6564148 3.70447468,54.5452929 C3.76023976,54.3712019 4.24725485,54.0989533 4.24725485,54.0989533 L4.41826778,56.3454677 C4.44800916,56.710318 4.7324111,56.9899748 5.07443696,56.9881228 C5.44434537,56.9862707 5.73804149,56.6584611 5.72688847,56.2639784 C5.70458244,55.4509364 5.66368804,54.1822947 5.62837015,53.6840982 C5.58933459,53.1377488 5.28262662,52.3228548 5.11533136,51.9098518" id="Fill-18" fill="#F6BA8E"></path>
                    <polygon id="Fill-20" fill="#F6BA8E" points="24.1275081 32.7781788 28.1054176 30.0019832 28.1054176 51.9504112 24.1275081 51.9504112"></polygon>
                    <path d="M24.1494423,51.9098518 L28.1050458,51.9098518 L28.1050458,54.5878896 C28.0418454,55.9398728 27.4265706,57.1955503 26.9395555,57.9882199 C26.6198357,58.5123449 25.9971255,58.7142163 25.4506277,58.4919725 C25.0175189,58.2475043 24.8409294,57.6789306 25.0491191,57.2029584 L25.3186503,56.5603034 C25.4283217,56.2954629 25.4952398,56.0195102 25.5175458,55.7342973 C25.5528637,55.2916617 25.5937581,54.6564148 25.560299,54.5452929 C25.5045339,54.3712019 25.0175189,54.0989533 25.0175189,54.0989533 L24.8465059,56.3454677 C24.8167645,56.710318 24.5323626,56.9899748 24.1903367,56.9881228 C23.8204283,56.9862707 23.5267322,56.6584611 23.5360264,56.2639784 C23.5601913,55.4509364 23.6010857,54.1822947 23.6364036,53.6840982 C23.6754391,53.1377488 23.9821471,52.3228548 24.1494423,51.9098518" id="Fill-22" fill="#F6BA8E"></path>
                    <g id="Group-26" transform="translate(0.000000, 20.616072)">
                        <mask id="mask-18" fill="white">
                            <use xlink:href="#path-17"></use>
                        </mask>
                        <g id="Clip-25"></g>
                        <path d="M5.38858028,14.7484695 C5.78265356,15.8004235 6.12839709,16.6523581 6.95000269,17.0635091 C6.95000269,17.0635091 7.15261584,22.2140094 5.48895744,27.2070869 L23.6813874,27.1996788 C22.017729,22.2066013 22.3430253,17.0635091 22.3430253,17.0635091 C23.1646309,16.6523581 23.5103745,15.8004235 23.9044477,14.7484695 C24.2260264,13.905795 24.4360749,12.9742231 24.5736288,12.1630332 L29.2932139,10.0387528 L29.1259186,7.26626129 C28.633327,4.88269645 26.8451266,2.97139971 24.4844046,2.32133657 L16.8222818,0.224836652 L15.6698033,1.00454201 L15.4839197,1.1267761 L14.6455846,1.69164578 L13.8091083,1.1267761 L13.6232247,1.00454201 L12.4707462,0.224836652 L4.80862338,2.32133657 C2.4479014,2.97139971 0.65970097,4.88269645 0.167109375,7.26626129 L-0.000185883621,10.0387528 L4.71939925,12.1630332 C4.85695313,12.9742231 5.06700162,13.905795 5.38858028,14.7484695" id="Fill-24" fill="#F180AF" mask="url(#mask-18)"></path>
                    </g>
                    <polygon id="Fill-27" fill="#F180AF" points="11.303583 21.1631618 14.7684537 34.2162814 9.6826778 28.8453894 10.3369881 27.1433722 8.53205819 27.4415493 8.88709591 21.820633"></polygon>
                    <polygon id="Fill-29" fill="#F180AF" points="19.2001051 27.1442982 19.8599919 28.8463154 14.7686395 34.2153554 18.1052505 21.1955723 20.6667268 21.8937883 21.0124704 27.4406233"></polygon>
                    <polygon id="Fill-31" fill="#F6BA8E" points="18.110827 16.0574807 11.2963335 16.0574807 11.2963335 21.1487159 14.7723572 34.2166518 18.110827 21.1487159"></polygon>
                    <polygon id="Fill-33" fill="#DEE2E5" points="12.6904607 26.3901509 14.7723572 34.216837 16.772465 26.3901509"></polygon>
                    <path d="M11.3625081,11.8831864 C11.3625081,10.9034616 10.5650673,10.10894 9.581743,10.10894 C8.59655981,10.10894 7.79911907,10.9034616 7.79911907,11.8831864 C7.79911907,12.8629112 8.59655981,13.6592848 9.581743,13.6592848 C10.5650673,13.6592848 11.3625081,12.8629112 11.3625081,11.8831864" id="Fill-35" fill="#F8A771"></path>
                    <path d="M21.6089709,11.8831864 C21.6089709,10.9034616 20.8115302,10.10894 19.826347,10.10894 C18.8430226,10.10894 18.0455819,10.9034616 18.0455819,11.8831864 C18.0455819,12.8629112 18.8430226,13.6592848 19.826347,13.6592848 C20.8115302,13.6592848 21.6089709,12.8629112 21.6089709,11.8831864" id="Fill-37" fill="#F8A771"></path>
                    <path d="M11.2972629,19.2894613 C12.2712931,19.9413764 13.4423599,20.3210429 14.7045097,20.3210429 C15.9648006,20.3210429 17.1358675,19.9413764 18.1117565,19.2894613 L18.1117565,16.0576659 L11.2972629,16.0576659 L11.2972629,19.2894613 Z" id="Fill-39" fill="#F8A771"></path>
                    <path d="M14.906937,6.3450559 C11.5851967,8.21005185 9.60181843,8.56008585 9.60181843,8.56008585 L9.60181843,14.1624818 C9.60181843,16.9683099 11.8863281,19.2463089 14.7043238,19.2463089 C17.5223195,19.2463089 19.8068292,16.9683099 19.8068292,14.1624818 L19.8068292,12.9919978 L19.8068292,8.56008585 C17.6766029,7.97484382 14.906937,6.3450559 14.906937,6.3450559" id="Fill-41" fill="#F6BA8E"></path>
                    <polygon id="Fill-43" fill="#F180AF" points="0.00167295259 30.6529724 0.00167295259 52.0365307 5.13949623 52.0365307 5.13949623 32.8642982 1.89396821 31.1437608"></polygon>
                    <g id="Group-47" transform="translate(23.722291, 29.876230)">
                        <mask id="mask-20" fill="white">
                            <use xlink:href="#path-19"></use>
                        </mask>
                        <g id="Clip-46"></g>
                        <polygon id="Fill-45" fill="#F180AF" mask="url(#mask-20)" points="3.68178802 1.33012919 0.436260006 3.0525187 0.436260006 22.2247512 5.57408328 22.2247512 5.57408328 0.702290432"></polygon>
                    </g>
                    <polygon id="Fill-48" fill="#D0508A" points="9.68342134 28.8461302 10.3377317 27.144113 8.53094289 27.4404381 8.8859806 21.8213739 11.3043265 21.1639026 14.7673384 34.2151702"></polygon>
                    <polygon id="Fill-50" fill="#D0508A" points="19.2001051 27.1442982 19.8599919 28.8463154 14.7686395 34.2153554 18.1052505 21.1955723 20.6667268 21.8937883 21.0124704 27.4406233"></polygon>
                </g>
                <g id="Group-39" transform="translate(716.000000, 152.000000)">
                    <g id="Group-3" transform="translate(0.000000, 93.340848)">
                        <mask id="mask-22" fill="white">
                            <use xlink:href="#path-21"></use>
                        </mask>
                        <g id="Clip-2"></g>
                        <path d="M11.9722,2.53684083 L11.9722,6.04148975 L1.37202353,6.04148975 C0.256023529,6.04148975 -0.398623529,4.73543265 0.268788235,3.82044422 C1.07843529,2.70337246 4.24043529,1.99795194 7.05961176,1.09419037 L10.6939059,0.319537588 L11.9722,2.53684083 Z" id="Fill-1" fill="#32303C" mask="url(#mask-22)"></path>
                    </g>
                    <g id="Group-6" transform="translate(17.820856, 93.340848)">
                        <mask id="mask-24" fill="white">
                            <use xlink:href="#path-23"></use>
                        </mask>
                        <g id="Clip-5"></g>
                        <path d="M0.165162032,2.53684083 L0.165162032,6.04148975 L10.7653385,6.04148975 C11.8813385,6.04148975 12.5359856,4.73543265 11.8703973,3.82044422 C11.0589267,2.70337246 7.89692674,1.99795194 5.07775027,1.09419037 L1.44345615,0.319537588 L0.165162032,2.53684083 Z" id="Fill-4" fill="#32303C" mask="url(#mask-24)"></path>
                    </g>
                    <path d="M23.9267118,48.3736979 L16.0691235,48.1790992 L16.0745941,48.1210938 L14.9239471,48.1491609 L13.7714765,48.1210938 L13.7769471,48.1790992 L5.91935882,48.3736979 C5.91935882,48.3736979 4.94194706,54.4287133 6.26035882,62.991059 C7.71918235,72.4702643 6.58859412,94.4543113 6.58859412,94.4543113 L11.9242412,95.8389564 L14.9239471,61.3631655 L17.9200059,95.8389564 L23.2574765,94.4543113 C23.2574765,94.4543113 22.1268882,72.4702643 23.5857118,62.991059 C24.9041235,54.4287133 23.9267118,48.3736979 23.9267118,48.3736979" id="Fill-7" fill="#32303C"></path>
                    <path d="M1.80930588,30.4170968 C1.80930588,30.4170968 1.84577647,24.4986748 4.6996,23.4770312 L9.40065882,30.0952604 L5.71348235,33.1714178 L1.80930588,30.4170968 Z" id="Fill-9" fill="#F6BA8E"></path>
                    <path d="M28.2557706,30.4170968 C28.2557706,30.4170968 28.2211235,24.4986748 25.3654765,23.4770312 L20.6644176,30.0952604 L24.3534176,33.1714178 L28.2557706,30.4170968 Z" id="Fill-11" fill="#F6BA8E"></path>
                    <path d="M16.0093118,0 L14.3827235,0 C13.4782529,0 12.5683118,0.136593364 11.7386059,0.507079475 C8.28484118,2.04890046 7.44237059,6.04940201 6.55066471,11.6085648 C5.56413529,17.7683642 12.1689588,20.8351659 12.1689588,20.8351659 L15.1978412,15.182446 L18.2267235,20.8351659 C18.2267235,20.8351659 24.8279,17.7683642 23.8413706,11.6085648 C22.9533118,6.04940201 22.1090176,2.04890046 18.6534294,0.507079475 C17.8237235,0.136593364 16.9137824,0 16.0093118,0" id="Fill-13" fill="#32303C"></path>
                    <polygon id="Fill-15" fill="#F6BA8E" points="5.71275294 33.1706694 1.80857647 30.4163484 1.80857647 52.5407311 5.71275294 52.5407311"></polygon>
                    <path d="M5.69141765,52.4978819 L1.80912353,52.4978819 L1.80912353,55.2035532 C1.87294706,56.571358 2.47471176,57.8381211 2.95247647,58.640841 C3.26794706,59.1703742 3.87882941,59.3743287 4.41494706,59.1497917 C4.83800588,58.9028009 5.01306471,58.3283603 4.80882941,57.8474769 L4.54441765,57.1963194 C4.43682941,56.9306173 4.36935882,56.649946 4.3493,56.3617901 C4.31465294,55.9164583 4.27453529,55.2746566 4.30735882,55.1623881 C4.36206471,54.9846296 4.83800588,54.7114429 4.83800588,54.7114429 L5.00759412,56.9811381 C5.03677059,57.3497531 5.31577059,57.6322955 5.6513,57.6304244 C6.01418235,57.6285532 6.3023,57.2973611 6.29135882,56.8988079 C6.26765294,56.0773765 6.22935882,54.7956443 6.19288824,54.2923071 C6.15641765,53.7403202 5.85553529,52.9170177 5.69141765,52.4978819" id="Fill-17" fill="#F6BA8E"></path>
                    <polygon id="Fill-19" fill="#F6BA8E" points="24.3415647 33.1706694 28.2457412 30.3658275 28.2457412 52.5407311 24.3415647 52.5407311"></polygon>
                    <path d="M24.3629,52.4978819 L28.2451941,52.4978819 L28.2451941,55.2035532 C28.1813706,56.571358 27.5796059,57.8381211 27.1018412,58.640841 C26.7863706,59.1703742 26.1754882,59.3743287 25.6393706,59.1497917 C25.2163118,58.9028009 25.0412529,58.3283603 25.2454882,57.8474769 L25.5099,57.1963194 C25.6174882,56.9306173 25.6849588,56.649946 25.7050176,56.3617901 C25.7396647,55.9164583 25.7797824,55.2746566 25.7469588,55.1623881 C25.6922529,54.9846296 25.2163118,54.7114429 25.2163118,54.7114429 L25.0467235,56.9811381 C25.0175471,57.3497531 24.7385471,57.6322955 24.4030176,57.6304244 C24.0401353,57.6285532 23.7520176,57.2973611 23.7629588,56.8988079 C23.7866647,56.0773765 23.8249588,54.7956443 23.8614294,54.2923071 C23.8979,53.7403202 24.1987824,52.9170177 24.3629,52.4978819" id="Fill-21" fill="#F6BA8E"></path>
                    <path d="M22.5911588,38.1207755 C23.0379235,37.8924961 23.3351588,37.5182677 23.5831588,37.0579668 L6.50033529,37.0579668 C6.74833529,37.5182677 7.04557059,37.8924961 7.49051176,38.1207755 C7.49051176,38.1207755 7.68927647,43.3262924 6.05904118,48.3708912 L23.9059235,48.3615355 C22.2720412,43.3169367 22.5911588,38.1207755 22.5911588,38.1207755" id="Fill-23" fill="#F05A3D"></path>
                    <path d="M18.4400765,16.2755671 L11.7550176,16.2755671 L11.7550176,21.4212076 L13.1390765,22.4840162 C14.2988412,23.3784221 15.8944294,23.3784221 17.0560176,22.4840162 L18.4400765,21.4212076 L18.4400765,16.2755671 Z" id="Fill-25" fill="#F6BA8E"></path>
                    <path d="M11.8208471,12.0600714 C11.8208471,11.0702373 11.0367294,10.2656462 10.0720824,10.2656462 C9.10743529,10.2656462 8.32331765,11.0702373 8.32331765,12.0600714 C8.32331765,13.0499055 9.10743529,13.8526254 10.0720824,13.8526254 C11.0367294,13.8526254 11.8208471,13.0499055 11.8208471,12.0600714" id="Fill-27" fill="#F8A771"></path>
                    <path d="M21.8715941,12.0600714 C21.8715941,11.0702373 21.0874765,10.2656462 20.1228294,10.2656462 C19.1581824,10.2656462 18.3740647,11.0702373 18.3740647,12.0600714 C18.3740647,13.0499055 19.1581824,13.8526254 20.1228294,13.8526254 C21.0874765,13.8526254 21.8715941,13.0499055 21.8715941,12.0600714" id="Fill-29" fill="#F8A771"></path>
                    <path d="M11.7550176,19.5427681 C12.7105471,20.2014101 13.8593706,20.5849942 15.0975471,20.5849942 C16.3357235,20.5849942 17.4845471,20.2014101 18.4400765,19.5427681 L18.4400765,16.2757542 L11.7550176,16.2757542 L11.7550176,19.5427681 Z" id="Fill-31" fill="#F8A771"></path>
                    <path d="M13.6657118,6.03181327 C10.2575353,8.36512731 10.0915941,8.70380401 10.0915941,8.70380401 L10.0915941,14.3621373 C10.0915941,17.1987886 12.3345353,19.4965509 15.0971824,19.4965509 C17.8616529,19.4965509 20.1027706,17.1987886 20.1027706,14.3621373 L20.1027706,13.1777045 L20.1027706,8.70380401 C15.7901235,8.46616898 13.6657118,6.03181327 13.6657118,6.03181327" id="Fill-33" fill="#F6BA8E"></path>
                    <path d="M25.7002765,23.6212963 C25.3775118,23.4659915 25.0438059,23.327527 24.6918647,23.2283565 L22.7862765,22.6913387 L7.74580588,22.5641011 L5.38980588,23.2283565 C5.15092353,23.2938465 4.92480588,23.3836613 4.69868824,23.4772184 C6.45474706,25.9939043 5.3041,33.1678627 5.3041,33.1678627 L5.30045294,33.1716049 L5.30227647,33.1716049 C5.43721765,33.9911651 5.64327647,34.9323495 5.95874706,35.7837191 C6.32162941,36.7772955 6.65533529,37.5800154 7.35374706,38.0197338 L22.7279235,38.0197338 C23.4263353,37.5800154 23.7618647,36.7772955 24.1229235,35.7837191 C24.4402176,34.9323495 24.6444529,33.9911651 24.7793941,33.1716049 C24.7793941,33.1716049 23.9661,27.3186728 25.7002765,23.6212963" id="Fill-35" fill="#F05A3D"></path>
                    <path d="M16.0448706,21.8981617 L15.8625176,22.0179147 L15.0401059,22.5923553 L14.2195176,22.0179147 L14.0371647,21.8981617 L12.9065765,21.1104109 L7.74598824,22.5624171 C9.10816471,25.4402334 11.9729294,27.425515 15.2972235,27.425515 C18.5722824,27.425515 21.4024,25.4982388 22.7864588,22.6915258 L17.1754588,21.1104109 L16.0448706,21.8981617 Z" id="Fill-37" fill="#F6BA8E"></path>
                </g>
                <g id="Group-27" transform="translate(155.000000, 31.000000)">
                    <g id="Group-26">
                        <g id="Group-3" transform="translate(0.000000, 91.486497)">
                            <mask id="mask-26" fill="white">
                                <use xlink:href="#path-25"></use>
                            </mask>
                            <g id="Clip-2"></g>
                            <path d="M41.2188,6.75740089 C41.2188,3.22096133 31.9902545,0.355712049 20.6082545,0.355712049 C9.22625455,0.355712049 -0.000381818182,3.22096133 -0.000381818182,6.75740089 C-0.000381818182,10.2938404 9.22625455,13.1609698 20.6082545,13.1609698 C31.9902545,13.1609698 41.2188,10.2938404 41.2188,6.75740089" id="Fill-1" fill="#E0DEDE" mask="url(#mask-26)"></path>
                        </g>
                        <g id="Group-6" transform="translate(12.902821, 0.527176)">
                            <mask id="mask-28" fill="white">
                                <use xlink:href="#path-27"></use>
                            </mask>
                            <g id="Clip-5"></g>
                            <path d="M6.94866959,0.188261885 L6.94866959,0.188261885 C3.18012414,0.188261885 0.127487774,3.19451752 0.127487774,6.90392489 L0.127487774,11.5101327 L13.7679423,11.5101327 L13.7679423,6.90392489 C13.7679423,3.19451752 10.715306,0.188261885 6.94866959,0.188261885" id="Fill-4" fill="#32303C" mask="url(#mask-28)"></path>
                        </g>
                        <polygon id="Fill-7" fill="#32303C" points="10.4402455 47.0593407 9.85033636 93.8001296 16.7211545 95.849422 19.7909727 59.3513353 23.0058818 95.849422 29.7316091 93.8001296 29.1436091 47.0593407"></polygon>
                        <path d="M10.0784727,50.1832896 L29.5912909,50.1832896 L29.5912909,32.7549033 L35.1181091,32.8395071 L34.9501091,27.783959 C34.4480182,25.3605296 32.6057455,23.4221622 30.1831091,22.7660126 L22.3119273,20.6377565 L19.8320182,22.2922312 L17.3559273,20.6377565 L9.48283636,22.7660126 C7.06210909,23.4221622 5.21983636,25.3605296 4.71583636,27.783959 L4.40083636,32.7793444 L10.0784727,32.7549033 L10.0784727,50.1832896 Z" id="Fill-9" fill="#7BCBC2"></path>
                        <path d="M16.7211545,95.84961 L16.7211545,99.3710089 L5.62360909,99.3710089 C4.45524545,99.3710089 3.76988182,98.0587097 4.46860909,97.1374681 C5.31624545,96.0169376 6.89888182,94.7102786 9.85033636,93.8003176 L15.3828818,93.6217095 L16.7211545,95.84961 Z" id="Fill-11" fill="#32303C"></path>
                        <path d="M23.0133273,95.84961 L23.0133273,99.3710089 L34.1127818,99.3710089 C35.2792364,99.3710089 35.9646,98.0587097 35.2677818,97.1374681 C34.4182364,96.0169376 32.8356,94.7102786 29.8860545,93.8003176 L24.3516,93.6217095 L23.0133273,95.84961 Z" id="Fill-13" fill="#32303C"></path>
                        <mask id="mask-30" fill="white">
                            <use xlink:href="#path-29"></use>
                        </mask>
                        <g id="Clip-16"></g>
                        <polygon id="Fill-15" fill="#F2F2F2" mask="url(#mask-30)" points="4.40045455 52.2152853 10.0761818 52.2152853 10.0761818 32.7526472 4.40045455 32.7526472"></polygon>
                        <path d="M10.0580455,52.1744874 L5.99359091,52.1744874 L5.99359091,54.8930901 C6.06040909,56.265552 6.69040909,57.5402495 7.19059091,58.3468059 C7.52086364,58.8788699 8.16040909,59.0819191 8.72168182,58.8563089 C9.16459091,58.6081377 9.34786364,58.0309517 9.13404545,57.5477699 L8.85722727,56.8935004 C8.74459091,56.6284084 8.67395455,56.3463957 8.65295455,56.0568626 C8.61668182,55.6094024 8.57468182,54.9645333 8.60904545,54.8498482 C8.66631818,54.6731202 9.16459091,54.3967477 9.16459091,54.3967477 L9.34213636,56.6772906 C9.37268182,57.0476673 9.66477273,57.3315601 10.0160455,57.3315601 C10.3959545,57.32968 10.6975909,56.996905 10.6861364,56.5945669 C10.6613182,55.7710897 10.6212273,54.4813515 10.5830455,53.9756087 C10.5448636,53.4209837 10.2298636,52.5937464 10.0580455,52.1744874" id="Fill-17" fill="#A45F27" mask="url(#mask-30)"></path>
                        <polygon id="Fill-18" fill="#F6BA8E" mask="url(#mask-30)" points="29.5832727 52.2152853 33.6706364 52.2152853 33.6706364 32.7526472 29.5832727 32.7526472"></polygon>
                        <path d="M29.6058,52.1744874 L33.6702545,52.1744874 L33.6702545,54.8930901 C33.6034364,56.265552 32.9734364,57.5402495 32.4732545,58.3468059 C32.1429818,58.8788699 31.5034364,59.0819191 30.9440727,58.8563089 C30.4992545,58.6081377 30.3159818,58.0309517 30.5298,57.5477699 L30.8066182,56.8935004 C30.9192545,56.6284084 30.9898909,56.3463957 31.0108909,56.0568626 C31.0471636,55.6094024 31.0891636,54.9645333 31.0548,54.8498482 C30.9975273,54.6731202 30.4992545,54.3967477 30.4992545,54.3967477 L30.3217091,56.6772906 C30.2911636,57.0476673 29.9990727,57.3315601 29.6478,57.3315601 C29.2678909,57.32968 28.9662545,56.996905 28.9777091,56.5945669 C29.0025273,55.7710897 29.0426182,54.4813515 29.0808,53.9756087 C29.1189818,53.4209837 29.4339818,52.5937464 29.6058,52.1744874" id="Fill-19" fill="#A45F27" mask="url(#mask-30)"></path>
                        <polygon id="Fill-20" fill="#F2F2F2" mask="url(#mask-30)" points="29.442 52.2152853 35.1177273 52.2152853 35.1177273 32.7526472 29.442 32.7526472"></polygon>
                        <polygon id="Fill-21" fill="#F2F2F2" mask="url(#mask-30)" points="25.2450545 21.4320924 23.3684182 26.654968 19.8996 23.5396675 16.4346 26.654968 14.5465091 21.3963708 16.3066909 20.9207093 16.4040545 20.9507907 19.8996 23.528387 23.3970545 20.9507907 23.4276 20.9376301"></polygon>
                        <polygon id="Fill-22" fill="#82441D" mask="url(#mask-30)" points="23.4048818 15.7790533 16.4061545 15.7790533 16.4061545 20.9474065 19.9055182 23.5325232 23.4048818 20.9474065"></polygon>
                        <path d="M16.4750727,11.5422822 C16.4750727,10.5458372 15.6541636,9.7411609 14.6442545,9.7411609 C13.6343455,9.7411609 12.8134364,10.5458372 12.8134364,11.5422822 C12.8134364,12.536847 13.6343455,13.3434034 14.6442545,13.3434034 C15.6541636,13.3434034 16.4750727,12.536847 16.4750727,11.5422822" id="Fill-23" fill="#82441D" mask="url(#mask-30)"></path>
                        <path d="M26.9974091,11.5422822 C26.9974091,10.5458372 26.1765,9.7411609 25.1665909,9.7411609 C24.1566818,9.7411609 23.3376818,10.5458372 23.3376818,11.5422822 C23.3376818,12.536847 24.1566818,13.3434034 25.1665909,13.3434034 C26.1765,13.3434034 26.9974091,12.536847 26.9974091,11.5422822" id="Fill-24" fill="#82441D" mask="url(#mask-30)"></path>
                        <path d="M14.6648727,8.21001982 L14.6648727,13.8540345 C14.6648727,16.7061232 17.0111455,19.0167474 19.9053273,19.0167474 C22.7995091,19.0167474 25.1457818,16.7061232 25.1457818,13.8540345 L25.1457818,8.21001982 L23.4199636,6.48222186 L23.1030545,6.57810619 C20.9782364,7.23237571 18.6968727,7.20793461 16.5892364,6.50854305 L16.5090545,6.48222186 L14.6648727,8.21001982 Z" id="Fill-25" fill="#A45F27" mask="url(#mask-30)"></path>
                    </g>
                </g>
                <g id="Group-37" transform="translate(611.000000, 0.000000)">
                    <g id="Group-3" transform="translate(0.000000, 89.601951)">
                        <mask id="mask-32" fill="white">
                            <use xlink:href="#path-31"></use>
                        </mask>
                        <g id="Clip-2"></g>
                        <path d="M41.2176545,6.64841182 C41.2176545,3.16939813 31.9910182,0.348826148 20.6090182,0.348826148 C9.22701818,0.348826148 0.000381818182,3.16939813 0.000381818182,6.64841182 C0.000381818182,10.1274255 9.22701818,12.9461479 20.6090182,12.9461479 C31.9910182,12.9461479 41.2176545,10.1274255 41.2176545,6.64841182" id="Fill-1" fill="#E0DEDE" mask="url(#mask-32)"></path>
                    </g>
                    <polygon id="Fill-4" fill="#F6BA8E" points="10.6292455 32.8326225 6.54188182 30.110077 6.54188182 51.97922 10.6292455 51.97922"></polygon>
                    <path d="M10.6069091,51.9387147 L6.54436364,51.9387147 L6.54436364,54.6131718 C6.60927273,55.9633473 7.24118182,57.2173458 7.74136364,58.0108051 C8.07163636,58.5342293 8.70927273,58.7339813 9.27054545,58.5120346 C9.71536364,58.2678933 9.89672727,57.7019293 9.68481818,57.2247441 L9.40609091,56.5829483 C9.29345455,56.3203115 9.22281818,56.0428782 9.20181818,55.7580466 C9.16554545,55.3178524 9.12354545,54.6834549 9.15790909,54.5706321 C9.21518182,54.3967739 9.71536364,54.1248892 9.71536364,54.1248892 L9.89290909,56.3683999 C9.92345455,56.7327623 10.2155455,57.0138947 10.5668182,57.0120452 C10.9448182,57.0101956 11.2483636,56.6828243 11.235,56.2870195 C11.2120909,55.4769142 11.1700909,54.2099688 11.1338182,53.7124384 C11.0937273,53.16497 10.7787273,52.3511656 10.6069091,51.9387147" id="Fill-6" fill="#F6BA8E"></path>
                    <path d="M17.2998,94.9048113 L17.2998,98.3690286 L6.20225455,98.3690286 C5.03389091,98.3690286 4.34852727,97.0780389 5.04534545,96.1717568 C5.89489091,95.0694218 9.20525455,94.3721394 12.1548,93.4788041 L15.9615273,92.7130882 L17.2998,94.9048113 Z" id="Fill-8" fill="#A45926"></path>
                    <path d="M23.5957909,94.9048113 L23.5957909,98.3690286 L34.6933364,98.3690286 C35.8617,98.3690286 36.5470636,97.0780389 35.8483364,96.1717568 C35.0007,95.0694218 31.6903364,94.3721394 28.7388818,93.4788041 L24.9340636,92.7130882 L23.5957909,94.9048113 Z" id="Fill-10" fill="#A45926"></path>
                    <polygon id="Fill-12" fill="#F6BA8E" points="30.1340455 32.8326225 34.2195 30.060139 34.2195 51.97922 30.1340455 51.97922"></polygon>
                    <path d="M30.1563818,51.9387147 L34.2189273,51.9387147 L34.2189273,54.6131718 C34.1540182,55.9633473 33.5221091,57.2173458 33.0219273,58.0108051 C32.6916545,58.5342293 32.0540182,58.7339813 31.4927455,58.5120346 C31.0479273,58.2678933 30.8665636,57.7019293 31.0784727,57.2247441 L31.3572,56.5829483 C31.4698364,56.3203115 31.5385636,56.0428782 31.5614727,55.7580466 C31.5977455,55.3178524 31.6397455,54.6834549 31.6053818,54.5706321 C31.5500182,54.3967739 31.0479273,54.1248892 31.0479273,54.1248892 L30.8703818,56.3683999 C30.8398364,56.7327623 30.5477455,57.0138947 30.1964727,57.0120452 C29.8184727,57.0101956 29.5149273,56.6828243 29.5263818,56.2870195 C29.5512,55.4769142 29.5912909,54.2099688 29.6294727,53.7124384 C29.6695636,53.16497 29.9826545,52.3511656 30.1563818,51.9387147" id="Fill-14" fill="#F6BA8E"></path>
                    <path d="M29.8152273,47.9488538 L21.5889545,47.7565001 L21.5927727,47.6991639 L20.3900455,47.7269072 L19.1835,47.6991639 L19.1892273,47.7565001 L10.9610455,47.9488538 C10.9610455,47.9488538 9.93777273,53.9340151 11.3199545,62.3975806 C12.8472273,71.7674282 11.6635909,93.4978546 11.6635909,93.4978546 L17.2495909,94.8683751 L20.3900455,60.7903169 L23.5266818,94.8683751 L29.1126818,93.4978546 C29.1126818,93.4978546 27.9290455,71.7674282 29.4582273,62.3975806 C30.8385,53.9340151 29.8152273,47.9488538 29.8152273,47.9488538" id="Fill-16" fill="#00517E"></path>
                    <polygon id="Fill-18" fill="#7ACAEC" points="10.7205 32.9833613 5.44377273 30.2608158 5.44377273 52.1299588 10.7205 52.1299588"></polygon>
                    <path d="M10.8883091,35.4164514 C11.2930364,36.4669989 11.6462182,37.3177944 12.4919455,37.7283957 C12.4919455,37.7283957 12.7000364,42.8720092 10.9914,47.8584106 L29.6756727,47.8491628 C27.9670364,42.864611 28.3011273,37.7283957 28.3011273,37.7283957 C29.1449455,37.3177944 29.4981273,36.4669989 29.9047636,35.4164514 C30.2350364,34.5749037 30.4507636,33.6445774 30.5901273,32.8344721 L35.4144,30.2635901 L35.2674,27.9442476 C34.7614909,25.5620203 32.9249455,23.6551287 30.4984909,23.0059347 L22.6292182,20.912238 L21.4455818,21.6909008 L21.2565818,21.8111219 L20.3955818,22.3770859 L19.5345818,21.8111219 L19.3455818,21.6909008 L18.1638545,20.912238 L10.2926727,23.0059347 C7.86812727,23.6551287 5.94949091,25.5620203 5.44358182,27.9423981 L5.43594545,32.8159765 L10.2010364,32.8344721 C10.3423091,33.6445774 10.5561273,34.5749037 10.8883091,35.4164514" id="Fill-20" fill="#7ACAEC"></path>
                    <polygon id="Fill-22" fill="#7ACAEC" points="30.1395818 32.9833613 35.4144 30.2608158 35.4144 52.1299588 30.1395818 52.1299588"></polygon>
                    <g id="Group-26" transform="translate(11.454545, 0.398394)">
                        <mask id="mask-34" fill="white">
                            <use xlink:href="#path-33"></use>
                        </mask>
                        <g id="Clip-25"></g>
                        <path d="M9.69512727,0.0425947609 C-0.402054545,-0.332864984 0.304309091,13.3538449 0.350127273,14.1103131 L0.338672727,14.1288087 C0.338672727,14.1288087 0.586854545,19.0393782 3.07058182,20.4080492 L15.2314909,20.4080492 C17.7133091,19.0393782 17.9424,14.4635782 17.9424,14.45618 L17.9424,14.4580295 L17.9424,10.2946803 C18.0435818,-0.82484672 9.69512727,0.0425947609 9.69512727,0.0425947609" id="Fill-24" fill="#F05A3D" mask="url(#mask-34)"></path>
                    </g>
                    <path d="M24.0058636,16.1342816 L17.0071364,16.1342816 L17.0071364,21.2187093 L18.1048636,24.9844041 C18.4103182,26.0312525 19.3610455,26.8413578 20.4855,26.8469064 L20.5294091,26.8469064 C21.6519545,26.8413578 22.6026818,26.0312525 22.9081364,24.9844041 L24.0058636,21.2187093 L24.0058636,16.1342816 Z" id="Fill-27" fill="#F6BA8E"></path>
                    <path d="M17.0760545,11.9664934 C17.0760545,10.9880786 16.2551455,10.1946194 15.2452364,10.1946194 C14.2353273,10.1946194 13.4163273,10.9880786 13.4163273,11.9664934 C13.4163273,12.9449082 14.2353273,13.7383675 15.2452364,13.7383675 C16.2551455,13.7383675 17.0760545,12.9449082 17.0760545,11.9664934" id="Fill-29" fill="#F8A771"></path>
                    <path d="M27.5985818,11.9664934 C27.5985818,10.9880786 26.7776727,10.1946194 25.7677636,10.1946194 C24.7578545,10.1946194 23.9388545,10.9880786 23.9388545,11.9664934 C23.9388545,12.9449082 24.7578545,13.7383675 25.7677636,13.7383675 C26.7776727,13.7383675 27.5985818,12.9449082 27.5985818,11.9664934" id="Fill-31" fill="#F8A771"></path>
                    <path d="M17.0071364,19.3628655 C18.0075,20.0120594 19.2102273,20.3930678 20.5065,20.3930678 C21.8027727,20.3930678 23.0055,20.0120594 24.0058636,19.3628655 L24.0058636,16.1335417 L17.0071364,16.1335417 L17.0071364,19.3628655 Z" id="Fill-33" fill="#F8A771"></path>
                    <path d="M25.7490545,10.4186005 L25.7490545,14.2416315 C25.7490545,17.0474071 23.3989636,19.3186611 20.5105091,19.3186611 C17.6125091,19.3186611 15.2643273,17.0474071 15.2643273,14.2416315 L15.2643273,11.0603963 L15.4036909,9.10356664 L16.6293273,10.233645 L17.6640545,7.88470964 L18.7961455,10.2909812 L19.9874182,8.10850584 L21.2474182,10.5554676 L22.5627818,8.14919606 L24.0270545,10.1134239 L25.0770545,8.66337246 L25.7318727,10.4019545 L25.7490545,10.4186005 Z" id="Fill-35" fill="#F6BA8E"></path>
                </g>
            </g>
        </g>
    </g>
</svg>